{
.appVersion = "3151";
DisplayStrings = (
"l/slashlongcomb oø/slashlongcomb.case Ø/primemod/slashlongcomb.sc/oslash.sc",
"/Utildeacute.ss01/W.ss01/Wacute.ss01/Wcircumflex.ss01/Wdieresis.ss01/Wgrave.ss01/Y.ss01/Yacute.ss01/Ycircumflex.ss01/Ydieresis.ss01/Ydotaccent.ss01/Ygrave.ss01/Yhookabove.ss01/Ymacron.ss01/Ytilde.ss01/Z.ss01/Zacute.ss01/Zcaron.ss01/Zdotaccent.ss01 aá/abreve/abreveacute/abrevedotbelow/abrevegrave/abrevehookabove/abrevetilde/acaron â/acircumflexacute/acircumflexdotbelow/acircumflexgrave/acircumflexhookabove/acircumflextilde/adblgrave ä/adotbelow à/ahookabove/ainvertedbreve/amacron/aogonek å/aringacute ãæ/aeacute bc/cacute/ccaron ç/ccedillaacute/ccircumflex/cdotaccent dð\012d/dcaron/d.ss01 d/dcroat d/ddotbelow/dlinebelow/dzcaron eé/ebreve/ecaron/ecedillabreve ê/ecircumflexacute/ecircumflexdotbelow/ecircumflexgrave/ecircumflexhookabove/ecircumflextilde/edblgrave ë/edotaccent/edotbelow è/ehookabove/einvertedbreve/emacron/emacronacute/emacrongrave/eogonek/etilde/schwa/ezh/ezhcaron fg/gbreve/gcaron/gcircumflex/gcommaaccent/gdotaccent/gmacron/gstroke h/hbar/hbrevebelow/hcaron",
"fifj/space nu",
"o/Aturned/Beta-latin/Bstroke/Btopbar/Cbar/Chook/Dtopbar/Eopen/Ereversed/space/Esh/space/Estroke/Ezhreversed/Fhook/Ghook/Glottalstop/Yogh/Hturned/Iota-latin/Istroke/Jcrossedtail/Jstroke \012/Lbar/Lbelt/Ldoublebar/Lmiddletilde L\012A/Astroke/Alpha-latin/Khook K/Kstroke/Chi-latin/Cstroke H/Hcedilla",
"/Mhook/Mturned/Nhookleft/Nlongrightleg/OU/Omega-latin/Oopen/Pstroke/Qhooktail/Rstroke/Rtail/Sobliquestroke/Tdiagonalstroke/Thook/Tretroflexhook L/Tturned/Ubar/Upsilon-latin/Gamma-latin U/Vhook/Vturned/Whook/Yhook/Ystroke/Zstroke/glottalstopreversed.case L/Esh.localGAD/Ezh.localGAD/Vhook.loclTOD0/Bhook.loclXPE/Astroke.ss01/Aturned.ss01",

glyphs = (
{
glyphname = A;
layers = (
{
anchors = (
{
name = bottom;
position = "{292, 0}";
},
{
name = ogonek;
position = "{627, 0}";
},
{
name = top;
position = "{432, 700}";
},
{
name = topleft;
position = "{194, 700}";
}
);
layerId = UUID0;
paths = (
{
closed = 1;
nodes = (
"-21 -3 LINE",
"435 684 LINE",
"426 684 LINE",
"607 -3 LINE",
"627 0 LINE",
"442 700 LINE",
"422 700 LINE",
"-43 0 LINE"
);
},
{
closed = 1;
nodes = (
"561 211 LINE",
"555 230 LINE",
"120 230 LINE",
"106 211 LINE"
);
},
{
closed = 1;
nodes = (
"-54 -3 LINE",
"-21 -3 LINE",
"-21 16 LINE",
"-54 16 LINE"
);
},
{
closed = 1;
nodes = (
"607 -3 LINE",
"642 -3 LINE",
"642 16 LINE",
"607 16 LINE"
);
}
);
width = 688;
},
{
anchors = (
{
name = bottom;
position = "{348, 0}";
},
{
name = ogonek;
position = "{770, 0}";
},
{
name = top;
position = "{488, 700}";
},
{
name = topleft;
position = "{206, 701}";
}
);
guideLines = (
{
angle = 245.556;
position = "{-113, 56}";
}
);
layerId = "5DA6E103-6A94-47F2-987D-4952DB8EA68E";
paths = (
{
closed = 1;
nodes = (
"165 -17 LINE",
"514 591 LINE",
"422 591 LINE",
"538 -17 LINE",
"770 0 LINE",
"604 700 LINE",
"372 700 LINE",
"-74 0 LINE"
);
},
{
closed = 1;
nodes = (
"574 122 LINE",
"548 292 LINE",
"226 292 LINE",
"132 122 LINE"
);
},
{
closed = 1;
nodes = (
"-75 -17 LINE",
"165 -17 LINE",
"167 73 LINE",
"-75 73 LINE"
);
},
{
closed = 1;
nodes = (
"538 -17 LINE",
"778 -17 LINE",
"778 73 LINE",
"547 73 LINE"
);
}
);
width = 806;
},
{
anchors = (
{
name = bottom;
position = "{317, 0}";
},
{
name = ogonek;
position = "{690, 0}";
},
{
name = top;
position = "{457, 700}";
},
{
name = topleft;
position = "{200, 700}";
}
);
layerId = "C4221BDF-4AE8-4E40-821A-B2476087DE1A";
paths = (
{
closed = 1;
nodes = (
"61 -10 LINE",
"471 639 LINE",
"425 639 LINE",
"578 -10 LINE",
"690 0 LINE",
"514 700 LINE",
"401 700 LINE",
"-56 0 LINE"
);
},
{
closed = 1;
nodes = (
"568 168 LINE",
"553 260 LINE",
"167 260 LINE",
"118 168 LINE"
);
},
{
closed = 1;
nodes = (
"-60 -10 LINE",
"61 -10 LINE",
"61 40 LINE",
"-60 40 LINE"
);
},
{
closed = 1;
nodes = (
"578 -10 LINE",
"700 -10 LINE",
"700 40 LINE",
"578 40 LINE"
);
}
);
width = 740;
}
);
leftKerningGroup = A;
rightKerningGroup = A;
unicode = 0041;
},
{
glyphname = "Alpha-latin";
layers = (
{
anchors = (
{
name = bottom;
position = "{383, 0}";
},
{
name = ogonek;
position = "{725, 0}";
},
{
name = top;
position = "{524, 700}";
}
);
layerId = UUID0;
paths = (
{
closed = 1;
nodes = (
"592 -3 OFFCURVE",
"750 132 OFFCURVE",
"793 352 CURVE",
"834 555 OFFCURVE",
"707 703 OFFCURVE",
"490 703 CURVE SMOOTH",
"254 703 OFFCURVE",
"72 524 OFFCURVE",
"72 290 CURVE SMOOTH",
"72 107 OFFCURVE",
"187 -3 OFFCURVE",
"379 -3 CURVE SMOOTH"
);
},
{
closed = 1;
nodes = (
"379 -3 LINE",
"379 16 LINE",
"-52 16 LINE",
"-52 -3 LINE"
);
},
{
closed = 1;
nodes = (
"862 -3 LINE",
"862 16 LINE",
"723 16 LINE",
"704 -3 LINE"
);
},
{
closed = 1;
nodes = (
"199 16 OFFCURVE",
"92 118 OFFCURVE",
"92 291 CURVE SMOOTH",
"92 514 OFFCURVE",
"265 684 OFFCURVE",
"490 684 CURVE SMOOTH",
"695 684 OFFCURVE",
"812 545 OFFCURVE",
"775 348 CURVE SMOOTH",
"737 150 OFFCURVE",
"577 16 OFFCURVE",
"379 16 CURVE SMOOTH"
);
},
{
closed = 1;
nodes = (
"725 0 LINE",
"865 700 LINE",
"845 700 LINE",
"794 443 LINE",
"791 353 LINE",
"758 263 LINE",
"704 -3 LINE"
);
}
);
userData = {
RMXScaler = {
height = 136;
width = 144;
};
};
width = 910;
},
{
anchors = (
{
name = bottom;
position = "{394, 0}";
},
{
name = ogonek;
position = "{739, 0}";
},
{
name = top;
position = "{534, 700}";
}
);
layerId = "C4221BDF-4AE8-4E40-821A-B2476087DE1A";
paths = (
{
closed = 1;
nodes = (
"564 -10 OFFCURVE",
"717 128 OFFCURVE",
"760 343 CURVE SMOOTH",
"804 567 OFFCURVE",
"696 709 OFFCURVE",
"483 709 CURVE SMOOTH",
"244 709 OFFCURVE",
"59 531 OFFCURVE",
"59 301 CURVE SMOOTH",
"59 114 OFFCURVE",
"182 -10 OFFCURVE",
"368 -10 CURVE SMOOTH"
);
},
{
closed = 1;
nodes = (
"368 -10 LINE",
"368 40 LINE",
"-52 40 LINE",
"-52 -10 LINE"
);
},
{
closed = 1;
nodes = (
"844 -10 LINE",
"844 40 LINE",
"670 40 LINE",
"627 -10 LINE"
);
},
{
closed = 1;
nodes = (
"254 92 OFFCURVE",
"174 174 OFFCURVE",
"174 305 CURVE SMOOTH",
"174 475 OFFCURVE",
"306 607 OFFCURVE",
"478 607 CURVE SMOOTH",
"630 607 OFFCURVE",
"721 505 OFFCURVE",
"698 361 CURVE SMOOTH",
"674 210 OFFCURVE",
"537 92 OFFCURVE",
"382 92 CURVE SMOOTH"
);
},
{
closed = 1;
nodes = (
"739 0 LINE",
"879 700 LINE",
"764 700 LINE",
"726 508 LINE",
"709 353 LINE",
"668 198 LINE",
"627 -10 LINE"
);
}
);
userData = {
RMXScaler = {
height = 133;
weight = 5;
width = 138;
};
};
width = 892;
},
{
anchors = (
{
name = bottom;
position = "{394, 0}";
},
{
name = ogonek;
position = "{763, 0}";
},
{
name = top;
position = "{534, 700}";
}
);
layerId = "5DA6E103-6A94-47F2-987D-4952DB8EA68E";
paths = (
{
closed = 1;
nodes = (
"524 -17 OFFCURVE",
"646 104 OFFCURVE",
"687 320 CURVE SMOOTH",
"734 567 OFFCURVE",
"638 716 OFFCURVE",
"442 716 CURVE SMOOTH",
"224 716 OFFCURVE",
"42 531 OFFCURVE",
"42 309 CURVE SMOOTH",
"42 120 OFFCURVE",
"174 -17 OFFCURVE",
"357 -17 CURVE SMOOTH"
);
},
{
closed = 1;
nodes = (
"357 -17 LINE",
"357 73 LINE",
"-51 73 LINE",
"-51 -17 LINE"
);
},
{
closed = 1;
nodes = (
"828 -17 LINE",
"828 73 LINE",
"568 73 LINE",
"536 -17 LINE"
);
},
{
closed = 1;
nodes = (
"336 173 OFFCURVE",
"280 230 OFFCURVE",
"280 322 CURVE SMOOTH",
"280 434 OFFCURVE",
"363 525 OFFCURVE",
"470 525 CURVE SMOOTH",
"572 525 OFFCURVE",
"626 441 OFFCURVE",
"604 330 CURVE SMOOTH",
"585 233 OFFCURVE",
"519 173 OFFCURVE",
"426 173 CURVE SMOOTH"
);
},
{
closed = 1;
nodes = (
"763 0 LINE",
"903 700 LINE",
"668 700 LINE",
"644 577 LINE",
"611 350 LINE",
"564 125 LINE",
"536 -17 LINE"
);
}
);
userData = {
RMXScaler = {
height = 129;
weight = 9;
width = 131;
};
};
width = 875;
}
);
leftKerningGroup = O;
rightKerningGroup = H;
unicode = 2C6D;
userData = {
RMXScaler = {
source = a.ss01;
};
};
},
{
glyphname = Astroke;
layers = (
{
layerId = UUID0;
paths = (
{
closed = 1;
nodes = (
"435 684 LINE",
"426 684 LINE",
"607 -3 LINE",
"627 0 LINE",
"442 700 LINE",
"422 700 LINE",
"-43 0 LINE",
"-21 -3 LINE"
);
},
{
closed = 1;
nodes = (
"-21 -3 LINE",
"-21 16 LINE",
"-54 16 LINE",
"-54 -3 LINE"
);
},
{
closed = 1;
nodes = (
"561 211 LINE",
"555 230 LINE",
"120 230 LINE",
"106 211 LINE"
);
},
{
closed = 1;
nodes = (
"642 -3 LINE",
"642 16 LINE",
"607 16 LINE",
"607 -3 LINE"
);
},
{
closed = 1;
nodes = (
"146 -70 LINE",
"704 770 LINE",
"681 770 LINE",
"123 -70 LINE"
);
}
);
width = 688;
},
{
layerId = "C4221BDF-4AE8-4E40-821A-B2476087DE1A";
paths = (
{
closed = 1;
nodes = (
"471 639 LINE",
"425 639 LINE",
"578 -10 LINE",
"690 0 LINE",
"514 700 LINE",
"401 700 LINE",
"-56 0 LINE",
"61 -10 LINE"
);
},
{
closed = 1;
nodes = (
"61 -10 LINE",
"61 40 LINE",
"-60 40 LINE",
"-60 -10 LINE"
);
},
{
closed = 1;
nodes = (
"568 168 LINE",
"553 260 LINE",
"167 260 LINE",
"118 168 LINE"
);
},
{
closed = 1;
nodes = (
"700 -10 LINE",
"700 40 LINE",
"578 40 LINE",
"578 -10 LINE"
);
},
{
closed = 1;
nodes = (
"210 -70 LINE",
"739 770 LINE",
"646 770 LINE",
"116 -70 LINE"
);
}
);
width = 740;
},
{
layerId = "5DA6E103-6A94-47F2-987D-4952DB8EA68E";
paths = (
{
closed = 1;
nodes = (
"495 604 LINE",
"416 604 LINE",
"541 -17 LINE",
"740 0 LINE",
"571 700 LINE",
"375 700 LINE",
"-74 0 LINE",
"122 -17 LINE"
);
},
{
closed = 1;
nodes = (
"122 -17 LINE",
"124 73 LINE",
"-85 73 LINE",
"-85 -17 LINE"
);
},
{
closed = 1;
nodes = (
"570 137 LINE",
"547 281 LINE",
"206 281 LINE",
"126 137 LINE"
);
},
{
closed = 1;
nodes = (
"778 -17 LINE",
"778 73 LINE",
"553 73 LINE",
"541 -17 LINE"
);
},
{
closed = 1;
nodes = (
"347 -71 LINE",
"851 769 LINE",
"741 769 LINE",
"237 -71 LINE"
);
}
);
width = 776;
},
{
associatedMasterId = UUID0;
background = {
paths = (
{
closed = 1;
nodes = (
"146 -70 LINE",
"704 770 LINE",
"681 770 LINE",
"123 -70 LINE"
);
},
{
closed = 1;
nodes = (
"562 211 LINE",
"555 230 LINE",
"120 230 LINE",
"107 211 LINE"
);
},
{
closed = 1;
nodes = (
"-18 0 LINE",
"436 684 LINE",
"426 684 LINE",
"606 0 LINE",
"627 0 LINE",
"442 700 LINE",
"422 700 LINE",
"-43 0 LINE"
);
}
);
};
layerId = "15231F3C-40AF-4E34-88B9-405A495C1E65";
name = "[100]";
paths = (
{
closed = 1;
nodes = (
"435 684 LINE",
"426 684 LINE",
"607 -3 LINE",
"627 0 LINE",
"442 700 LINE",
"422 700 LINE",
"-43 0 LINE",
"-21 -3 LINE"
);
},
{
closed = 1;
nodes = (
"-21 -3 LINE",
"-21 16 LINE",
"-54 16 LINE",
"-54 -3 LINE"
);
},
{
closed = 1;
nodes = (
"561 211 LINE",
"555 230 LINE",
"120 230 LINE",
"106 211 LINE"
);
},
{
closed = 1;
nodes = (
"642 -3 LINE",
"642 16 LINE",
"607 16 LINE",
"607 -3 LINE"
);
},
{
closed = 1;
nodes = (
"146 -70 LINE",
"704 770 LINE",
"681 770 LINE",
"123 -70 LINE"
);
}
);
width = 688;
},
{
associatedMasterId = "C4221BDF-4AE8-4E40-821A-B2476087DE1A";
background = {
paths = (
{
closed = 1;
nodes = (
"353 -70 LINE",
"882 770 LINE",
"789 770 LINE",
"259 -70 LINE"
);
},
{
closed = 1;
nodes = (
"567 172 LINE",
"552 257 LINE",
"166 257 LINE",
"118 172 LINE"
);
},
{
closed = 1;
nodes = (
"65 0 LINE",
"470 642 LINE",
"424 642 LINE",
"573 0 LINE",
"690 0 LINE",
"513 700 LINE",
"400 700 LINE",
"-56 0 LINE"
);
}
);
};
layerId = "60498850-8910-4F02-A99E-9F8831170BA1";
name = "[100]";
paths = (
{
closed = 1;
nodes = (
"471 639 LINE",
"425 639 LINE",
"578 -10 LINE",
"690 0 LINE",
"514 700 LINE",
"401 700 LINE",
"-56 0 LINE",
"61 -10 LINE"
);
},
{
closed = 1;
nodes = (
"61 -10 LINE",
"61 40 LINE",
"-60 40 LINE",
"-60 -10 LINE"
);
},
{
closed = 1;
nodes = (
"568 168 LINE",
"553 260 LINE",
"167 260 LINE",
"118 168 LINE"
);
},
{
closed = 1;
nodes = (
"700 -10 LINE",
"700 40 LINE",
"578 40 LINE",
"578 -10 LINE"
);
},
{
closed = 1;
nodes = (
"354 -70 LINE",
"883 770 LINE",
"790 770 LINE",
"260 -70 LINE"
);
}
);
width = 740;
},
{
associatedMasterId = "5DA6E103-6A94-47F2-987D-4952DB8EA68E";
background = {
paths = (
{
closed = 1;
nodes = (
"347 -71 LINE",
"851 769 LINE",
"741 769 LINE",
"237 -71 LINE"
);
},
{
closed = 1;
nodes = (
"570 137 LINE",
"547 281 LINE",
"206 281 LINE",
"126 137 LINE"
);
},
{
closed = 1;
nodes = (
"132 0 LINE",
"495 604 LINE",
"416 604 LINE",
"537 0 LINE",
"740 0 LINE",
"571 700 LINE",
"375 700 LINE",
"-74 0 LINE"
);
}
);
};
layerId = "9BE802E5-D9F9-454E-AFE0-AA32968E4612";
name = "[100]";
paths = (
{
closed = 1;
nodes = (
"495 604 LINE",
"416 604 LINE",
"541 -17 LINE",
"740 0 LINE",
"571 700 LINE",
"375 700 LINE",
"-74 0 LINE",
"122 -17 LINE"
);
},
{
closed = 1;
nodes = (
"122 -17 LINE",
"124 73 LINE",
"-85 73 LINE",
"-85 -17 LINE"
);
},
{
closed = 1;
nodes = (
"570 137 LINE",
"547 281 LINE",
"206 281 LINE",
"126 137 LINE"
);
},
{
closed = 1;
nodes = (
"778 -17 LINE",
"778 73 LINE",
"553 73 LINE",
"541 -17 LINE"
);
},
{
closed = 1;
nodes = (
"347 -71 LINE",
"851 769 LINE",
"741 769 LINE",
"237 -71 LINE"
);
}
);
width = 776;
}
);
leftKerningGroup = A;
rightKerningGroup = A;
unicode = 023A;
},
{
glyphname = Aturned;
layers = (
{
anchors = (
{
name = bottom;
position = "{292, 0}";
},
{
name = top;
position = "{432, 700}";
}
);
layerId = UUID0;
paths = (
{
closed = 1;
nodes = (
"744 700 LINE",
"290 16 LINE",
"299 16 LINE",
"119 700 LINE",
"98 700 LINE",
"283 0 LINE",
"303 0 LINE",
"768 700 LINE"
);
},
{
closed = 1;
nodes = (
"164 489 LINE",
"170 470 LINE",
"605 470 LINE",
"619 489 LINE"
);
},
{
closed = 1;
nodes = (
"640 -3 LINE",
"640 16 LINE",
"-52 16 LINE",
"-52 -3 LINE"
);
}
);
width = 688;
},
{
anchors = (
{
name = bottom;
position = "{317, 0}";
},
{
name = top;
position = "{457, 700}";
}
);
layerId = "C4221BDF-4AE8-4E40-821A-B2476087DE1A";
paths = (
{
closed = 1;
nodes = (
"707 700 LINE",
"303 61 LINE",
"349 61 LINE",
"198 700 LINE",
"84 700 LINE",
"260 0 LINE",
"373 0 LINE",
"830 700 LINE"
);
},
{
closed = 1;
nodes = (
"206 532 LINE",
"221 440 LINE",
"607 440 LINE",
"656 532 LINE"
);
},
{
closed = 1;
nodes = (
"692 -10 LINE",
"692 40 LINE",
"-52 40 LINE",
"-52 -10 LINE"
);
}
);
width = 740;
},
{
anchors = (
{
name = bottom;
position = "{348, 0}";
},
{
name = top;
position = "{488, 700}";
}
);
layerId = "5DA6E103-6A94-47F2-987D-4952DB8EA68E";
paths = (
{
closed = 1;
nodes = (
"662 700 LINE",
"323 109 LINE",
"415 109 LINE",
"302 700 LINE",
"67 700 LINE",
"233 0 LINE",
"465 0 LINE",
"911 700 LINE"
);
},
{
closed = 1;
nodes = (
"263 578 LINE",
"289 408 LINE",
"611 408 LINE",
"705 578 LINE"
);
},
{
closed = 1;
nodes = (
"759 -17 LINE",
"759 73 LINE",
"-51 73 LINE",
"-51 -17 LINE"
);
}
);
width = 806;
}
);
leftKerningGroup = V;
rightKerningGroup = V;
unicode = 2C6F;
},
{
glyphname = AE;
layers = (
{
anchors = (
{
name = bottom;
position = "{428, 0}";
},
{
name = top;
position = "{568, 700}";
}
);
layerId = UUID0;
paths = (
{
closed = 1;
nodes = (
"-21 -3 LINE",
"553 685 LINE",
"537 681 LINE",
"559 681 LINE",
"563 700 LINE",
"540 700 LINE",
"-43 0 LINE"
);
},
{
closed = 1;
nodes = (
"465 211 LINE",
"469 230 LINE",
"157 230 LINE",
"143 211 LINE"
);
},
{
closed = 1;
nodes = (
"883 -3 LINE",
"890 27 LINE",
"444 27 LINE",
"574 681 LINE",
"1005 681 LINE",
"1009 700 LINE",
"558 700 LINE",
"417 -3 LINE"
);
},
{
closed = 1;
nodes = (
"893 346 LINE",
"897 365 LINE",
"506 365 LINE",
"502 346 LINE"
);
},
{
closed = 1;
nodes = (
"-54 -3 LINE",
"-21 -3 LINE",
"-21 16 LINE",
"-54 16 LINE"
);
},
{
closed = 1;
nodes = (
"418 -3 LINE",
"959 -3 LINE",
"959 16 LINE",
"422 16 LINE"
);
}
);
width = 1005;
},
{
anchors = (
{
name = bottom;
position = "{569, 0}";
},
{
name = top;
position = "{709, 700}";
}
);
layerId = "5DA6E103-6A94-47F2-987D-4952DB8EA68E";
paths = (
{
closed = 1;
nodes = (
"168 -17 LINE",
"604 616 LINE",
"439 522 LINE",
"638 522 LINE",
"674 700 LINE",
"430 700 LINE",
"-74 0 LINE"
);
},
{
closed = 1;
nodes = (
"558 122 LINE",
"592 292 LINE",
"227 292 LINE",
"193 122 LINE"
);
},
{
closed = 1;
nodes = (
"1035 0 LINE",
"1071 178 LINE",
"720 178 LINE",
"789 522 LINE",
"1126 522 LINE",
"1162 700 LINE",
"593 700 LINE",
"450 -17 LINE"
);
},
{
closed = 1;
nodes = (
"1035 270 LINE",
"1069 440 LINE",
"757 440 LINE",
"723 270 LINE"
);
},
{
closed = 1;
nodes = (
"-75 -17 LINE",
"168 -17 LINE",
"167 73 LINE",
"-75 73 LINE"
);
},
{
closed = 1;
nodes = (
"450 -17 LINE",
"1077 -17 LINE",
"1077 73 LINE",
"498 73 LINE"
);
}
);
width = 1105;
},
{
anchors = (
{
name = bottom;
position = "{490, 0}";
},
{
name = top;
position = "{630, 700}";
}
);
layerId = "C4221BDF-4AE8-4E40-821A-B2476087DE1A";
paths = (
{
closed = 1;
nodes = (
"63 -10 LINE",
"575 652 LINE",
"494 604 LINE",
"594 604 LINE",
"611 700 LINE",
"490 700 LINE",
"-57 0 LINE"
);
},
{
closed = 1;
nodes = (
"506 168 LINE",
"523 260 LINE",
"188 260 LINE",
"165 168 LINE"
);
},
{
closed = 1;
nodes = (
"948 0 LINE",
"968 99 LINE",
"566 99 LINE",
"666 601 LINE",
"1054 601 LINE",
"1074 700 LINE",
"573 700 LINE",
"431 -10 LINE"
);
},
{
closed = 1;
nodes = (
"952 307 LINE",
"972 404 LINE",
"618 404 LINE",
"597 307 LINE"
);
},
{
closed = 1;
nodes = (
"-60 -10 LINE",
"63 -10 LINE",
"63 40 LINE",
"-60 40 LINE"
);
},
{
closed = 1;
nodes = (
"431 -10 LINE",
"1010 -10 LINE",
"1010 40 LINE",
"447 40 LINE"
);
}
);
width = 1050;
}
);
leftKerningGroup = A;
rightKerningGroup = E;
unicode = 00C6;
},
{
glyphname = B;
layers = (
{
anchors = (
{
name = bottom;
position = "{325, 0}";
},
{
name = top;
position = "{465, 700}";
}
);
layerId = UUID0;
paths = (
{
closed = 1;
nodes = (
"382 8 LINE SMOOTH",
"567 8 OFFCURVE",
"672 77 OFFCURVE",
"672 214 CURVE SMOOTH",
"672 314 OFFCURVE",
"596 362 OFFCURVE",
"471 362 CURVE",
"452 351 LINE",
"589 351 OFFCURVE",
"701 421 OFFCURVE",
"701 559 CURVE SMOOTH",
"701 652 OFFCURVE",
"623 700 OFFCURVE",
"498 700 CURVE SMOOTH",
"221 700 LINE",
"81 8 LINE"
);
},
{
closed = 1;
nodes = (
"237 681 LINE",
"498 681 LINE SMOOTH",
"614 681 OFFCURVE",
"681 639 OFFCURVE",
"681 556 CURVE SMOOTH",
"681 430 OFFCURVE",
"577 365 OFFCURVE",
"435 365 CURVE SMOOTH",
"169 365 LINE",
"165 346 LINE",
"455 346 LINE SMOOTH",
"585 346 OFFCURVE",
"652 308 OFFCURVE",
"652 212 CURVE SMOOTH",
"652 88 OFFCURVE",
"559 27 OFFCURVE",
"388 27 CURVE SMOOTH",
"107 27 LINE"
);
},
{
closed = 1;
nodes = (
"-54 -3 LINE",
"702 -3 LINE",
"702 16 LINE",
"-54 16 LINE"
);
}
);
width = 748;
},
{
anchors = (
{
name = bottom;
position = "{327, 0}";
},
{
name = top;
position = "{467, 700}";
}
);
layerId = "5DA6E103-6A94-47F2-987D-4952DB8EA68E";
paths = (
{
closed = 1;
nodes = (
"406 0 LINE SMOOTH",
"585 0 OFFCURVE",
"733 68 OFFCURVE",
"733 223 CURVE SMOOTH",
"733 325 OFFCURVE",
"646 385 OFFCURVE",
"503 385 CURVE",
"473 331 LINE",
"643 331 OFFCURVE",
"764 403 OFFCURVE",
"764 533 CURVE SMOOTH",
"764 639 OFFCURVE",
"679 700 OFFCURVE",
"513 700 CURVE SMOOTH",
"142 700 LINE",
"2 0 LINE"
);
},
{
closed = 1;
nodes = (
"341 535 LINE",
"456 535 LINE SMOOTH",
"495 535 OFFCURVE",
"518 521 OFFCURVE",
"518 492 CURVE SMOOTH",
"518 454 OFFCURVE",
"494 431 OFFCURVE",
"440 431 CURVE SMOOTH",
"304 431 LINE",
"273 275 LINE",
"441 275 LINE SMOOTH",
"472 275 OFFCURVE",
"499 260 OFFCURVE",
"499 229 CURVE SMOOTH",
"499 186 OFFCURVE",
"465 165 OFFCURVE",
"419 165 CURVE SMOOTH",
"267 165 LINE"
);
},
{
closed = 1;
nodes = (
"-50 -17 LINE",
"725 -17 LINE",
"725 73 LINE",
"-50 73 LINE"
);
}
);
width = 773;
},
{
anchors = (
{
name = bottom;
position = "{324, 0}";
},
{
name = top;
position = "{464, 700}";
}
);
layerId = "C4221BDF-4AE8-4E40-821A-B2476087DE1A";
paths = (
{
closed = 1;
nodes = (
"390 0 LINE SMOOTH",
"573 0 OFFCURVE",
"697 73 OFFCURVE",
"697 220 CURVE SMOOTH",
"697 320 OFFCURVE",
"628 374 OFFCURVE",
"528 374 CURVE",
"504 342 LINE",
"616 342 OFFCURVE",
"727 412 OFFCURVE",
"727 544 CURVE SMOOTH",
"727 646 OFFCURVE",
"645 700 OFFCURVE",
"503 700 CURVE SMOOTH",
"187 700 LINE",
"47 0 LINE"
);
},
{
closed = 1;
nodes = (
"282 607 LINE",
"478 607 LINE SMOOTH",
"560 607 OFFCURVE",
"608 582 OFFCURVE",
"608 525 CURVE SMOOTH",
"608 442 OFFCURVE",
"539 401 OFFCURVE",
"435 401 CURVE SMOOTH",
"222 401 LINE",
"204 308 LINE",
"447 308 LINE SMOOTH",
"534 308 OFFCURVE",
"583 285 OFFCURVE",
"583 219 CURVE SMOOTH",
"583 136 OFFCURVE",
"515 93 OFFCURVE",
"398 93 CURVE SMOOTH",
"180 93 LINE"
);
},
{
closed = 1;
nodes = (
"-55 -10 LINE",
"714 -10 LINE",
"714 40 LINE",
"-55 40 LINE"
);
}
);
width = 759;
}
);
leftKerningGroup = H;
rightKerningGroup = B;
unicode = 0042;
},
{
glyphname = "Beta-latin";
layers = (
{
anchors = (
{
name = bottom;
position = "{341, 0}";
},
{
name = hook.af;
position = "{237, 700}";
},
{
name = top;
position = "{481, 700}";
}
);
layerId = UUID0;
paths = (
{
closed = 1;
nodes = (
"107 0 LINE",
"396 0 LINE SMOOTH",
"581 0 OFFCURVE",
"686 77 OFFCURVE",
"686 214 CURVE SMOOTH",
"686 314 OFFCURVE",
"610 362 OFFCURVE",
"485 362 CURVE",
"466 351 LINE",
"603 351 OFFCURVE",
"715 421 OFFCURVE",
"715 559 CURVE SMOOTH",
"715 652 OFFCURVE",
"637 700 OFFCURVE",
"512 700 CURVE SMOOTH",
"235 700 LINE",
"56 -194 LINE",
"78 -194 LINE",
"251 681 LINE",
"512 681 LINE SMOOTH",
"628 681 OFFCURVE",
"695 639 OFFCURVE",
"695 556 CURVE SMOOTH",
"695 430 OFFCURVE",
"591 365 OFFCURVE",
"449 365 CURVE SMOOTH",
"183 365 LINE",
"179 346 LINE",
"469 346 LINE SMOOTH",
"599 346 OFFCURVE",
"666 308 OFFCURVE",
"666 212 CURVE SMOOTH",
"666 88 OFFCURVE",
"571 19 OFFCURVE",
"400 19 CURVE SMOOTH",
"107 19 LINE"
);
},
{
closed = 1;
nodes = (
"741 -3 LINE",
"741 16 LINE",
"-52 16 LINE",
"-52 -3 LINE"
);
}
);
width = 789;
},
{
anchors = (
{
name = bottom;
position = "{338, 0}";
},
{
name = hook.af;
position = "{199, 700}";
},
{
name = top;
position = "{478, 700}";
}
);
layerId = "C4221BDF-4AE8-4E40-821A-B2476087DE1A";
paths = (
{
closed = 1;
nodes = (
"126 0 LINE",
"400 0 LINE SMOOTH",
"583 0 OFFCURVE",
"707 73 OFFCURVE",
"707 220 CURVE SMOOTH",
"707 320 OFFCURVE",
"638 374 OFFCURVE",
"538 374 CURVE",
"514 342 LINE",
"626 342 OFFCURVE",
"737 412 OFFCURVE",
"737 544 CURVE SMOOTH",
"737 646 OFFCURVE",
"655 700 OFFCURVE",
"513 700 CURVE SMOOTH",
"197 700 LINE",
"18 -194 LINE",
"132 -194 LINE",
"292 607 LINE",
"488 607 LINE SMOOTH",
"570 607 OFFCURVE",
"618 582 OFFCURVE",
"618 525 CURVE SMOOTH",
"618 442 OFFCURVE",
"549 401 OFFCURVE",
"445 401 CURVE SMOOTH",
"232 401 LINE",
"214 308 LINE",
"457 308 LINE SMOOTH",
"544 308 OFFCURVE",
"593 285 OFFCURVE",
"593 219 CURVE SMOOTH",
"593 136 OFFCURVE",
"525 93 OFFCURVE",
"408 93 CURVE SMOOTH",
"126 93 LINE"
);
},
{
closed = 1;
nodes = (
"734 -10 LINE",
"734 40 LINE",
"-52 40 LINE",
"-52 -10 LINE"
);
}
);
width = 782;
},
{
anchors = (
{
name = bottom;
position = "{345, 0}";
},
{
name = hook.af;
position = "{160, 700}";
},
{
name = top;
position = "{485, 700}";
}
);
layerId = "5DA6E103-6A94-47F2-987D-4952DB8EA68E";
paths = (
{
closed = 1;
nodes = (
"121 0 LINE",
"415 0 LINE SMOOTH",
"594 0 OFFCURVE",
"742 68 OFFCURVE",
"742 223 CURVE SMOOTH",
"742 325 OFFCURVE",
"655 385 OFFCURVE",
"512 385 CURVE",
"482 331 LINE",
"652 331 OFFCURVE",
"773 403 OFFCURVE",
"773 533 CURVE SMOOTH",
"773 639 OFFCURVE",
"688 700 OFFCURVE",
"522 700 CURVE SMOOTH",
"151 700 LINE",
"-28 -194 LINE",
"205 -194 LINE",
"350 535 LINE",
"465 535 LINE SMOOTH",
"504 535 OFFCURVE",
"527 521 OFFCURVE",
"527 492 CURVE SMOOTH",
"527 454 OFFCURVE",
"503 431 OFFCURVE",
"449 431 CURVE SMOOTH",
"313 431 LINE",
"282 275 LINE",
"450 275 LINE SMOOTH",
"481 275 OFFCURVE",
"508 260 OFFCURVE",
"508 229 CURVE SMOOTH",
"508 186 OFFCURVE",
"474 165 OFFCURVE",
"428 165 CURVE SMOOTH",
"121 165 LINE"
);
},
{
closed = 1;
nodes = (
"735 -17 LINE",
"735 73 LINE",
"-51 73 LINE",
"-51 -17 LINE"
);
}
);
width = 782;
}
);
leftKerningGroup = H;
rightKerningGroup = B;
unicode = A7B4;
},
{
glyphname = Bhook;
layers = (
{
anchors = (
{
name = bottom;
position = "{467, 0}";
},
{
name = top;
position = "{607, 700}";
}
);
layerId = UUID0;
paths = (
{
closed = 1;
nodes = (
"524 8 LINE SMOOTH",
"709 8 OFFCURVE",
"814 77 OFFCURVE",
"814 214 CURVE SMOOTH",
"814 314 OFFCURVE",
"738 362 OFFCURVE",
"613 362 CURVE",
"594 351 LINE",
"731 351 OFFCURVE",
"843 421 OFFCURVE",
"843 559 CURVE SMOOTH",
"843 652 OFFCURVE",
"765 700 OFFCURVE",
"640 700 CURVE SMOOTH",
"363 700 LINE",
"223 8 LINE"
);
},
{
closed = 1;
nodes = (
"379 681 LINE",
"640 681 LINE SMOOTH",
"756 681 OFFCURVE",
"823 639 OFFCURVE",
"823 556 CURVE SMOOTH",
"823 430 OFFCURVE",
"719 365 OFFCURVE",
"577 365 CURVE SMOOTH",
"311 365 LINE",
"307 346 LINE",
"597 346 LINE SMOOTH",
"727 346 OFFCURVE",
"794 308 OFFCURVE",
"794 212 CURVE SMOOTH",
"794 88 OFFCURVE",
"701 27 OFFCURVE",
"530 27 CURVE SMOOTH",
"249 27 LINE"
);
},
{
closed = 1;
nodes = (
"-52 -3 LINE",
"842 -3 LINE",
"842 16 LINE",
"-52 16 LINE"
);
},
{
closed = 1;
nodes = (
"141 455 LINE",
"85 572 OFFCURVE",
"145 681 OFFCURVE",
"266 681 CURVE SMOOTH",
"364 681 LINE",
"368 700 LINE",
"266 700 LINE SMOOTH",
"129 700 OFFCURVE",
"56 567 OFFCURVE",
"125 445 CURVE"
);
}
);
width = 890;
},
{
anchors = (
{
name = bottom;
position = "{499, 0}";
},
{
name = top;
position = "{639, 700}";
}
);
layerId = "C4221BDF-4AE8-4E40-821A-B2476087DE1A";
paths = (
{
closed = 1;
nodes = (
"565 0 LINE SMOOTH",
"748 0 OFFCURVE",
"872 73 OFFCURVE",
"872 220 CURVE SMOOTH",
"872 320 OFFCURVE",
"803 374 OFFCURVE",
"703 374 CURVE",
"679 342 LINE",
"791 342 OFFCURVE",
"902 412 OFFCURVE",
"902 544 CURVE SMOOTH",
"902 646 OFFCURVE",
"820 700 OFFCURVE",
"678 700 CURVE SMOOTH",
"362 700 LINE",
"222 0 LINE"
);
},
{
closed = 1;
nodes = (
"457 607 LINE",
"653 607 LINE SMOOTH",
"735 607 OFFCURVE",
"783 582 OFFCURVE",
"783 525 CURVE SMOOTH",
"783 442 OFFCURVE",
"714 401 OFFCURVE",
"610 401 CURVE SMOOTH",
"397 401 LINE",
"379 308 LINE",
"622 308 LINE SMOOTH",
"709 308 OFFCURVE",
"758 285 OFFCURVE",
"758 219 CURVE SMOOTH",
"758 136 OFFCURVE",
"690 93 OFFCURVE",
"573 93 CURVE SMOOTH",
"355 93 LINE"
);
},
{
closed = 1;
nodes = (
"-52 -10 LINE",
"886 -10 LINE",
"886 40 LINE",
"-52 40 LINE"
);
},
{
closed = 1;
nodes = (
"221 435 LINE",
"167 506 OFFCURVE",
"203 601 OFFCURVE",
"284 601 CURVE SMOOTH",
"351 601 LINE",
"371 700 LINE",
"283 700 LINE SMOOTH",
"107 700 OFFCURVE",
"25 527 OFFCURVE",
"130 371 CURVE"
);
}
);
width = 934;
},
{
anchors = (
{
name = bottom;
position = "{577, 0}";
},
{
name = top;
position = "{717, 700}";
}
);
layerId = "5DA6E103-6A94-47F2-987D-4952DB8EA68E";
paths = (
{
closed = 1;
nodes = (
"656 0 LINE SMOOTH",
"835 0 OFFCURVE",
"983 68 OFFCURVE",
"983 223 CURVE SMOOTH",
"983 325 OFFCURVE",
"896 385 OFFCURVE",
"753 385 CURVE",
"723 331 LINE",
"893 331 OFFCURVE",
"1014 403 OFFCURVE",
"1014 533 CURVE SMOOTH",
"1014 639 OFFCURVE",
"929 700 OFFCURVE",
"763 700 CURVE SMOOTH",
"392 700 LINE",
"252 0 LINE"
);
},
{
closed = 1;
nodes = (
"591 535 LINE",
"706 535 LINE SMOOTH",
"745 535 OFFCURVE",
"768 521 OFFCURVE",
"768 492 CURVE SMOOTH",
"768 454 OFFCURVE",
"744 431 OFFCURVE",
"690 431 CURVE SMOOTH",
"554 431 LINE",
"523 275 LINE",
"691 275 LINE SMOOTH",
"722 275 OFFCURVE",
"749 260 OFFCURVE",
"749 229 CURVE SMOOTH",
"749 186 OFFCURVE",
"715 165 OFFCURVE",
"669 165 CURVE SMOOTH",
"517 165 LINE"
);
},
{
closed = 1;
nodes = (
"-51 -17 LINE",
"976 -17 LINE",
"976 73 LINE",
"-51 73 LINE"
);
},
{
closed = 1;
nodes = (
"268 393 LINE",
"243 458 OFFCURVE",
"263 517 OFFCURVE",
"322 517 CURVE SMOOTH",
"361 517 LINE",
"397 700 LINE",
"309 700 LINE SMOOTH",
"89 700 OFFCURVE",
"4 492 OFFCURVE",
"75 317 CURVE"
);
}
);
width = 1023;
}
);
leftKerningGroup = Hhook;
rightKerningGroup = B;
unicode = 0181;
},
{
glyphname = Bstroke;
layers = (
{
anchors = (
{
name = bottom;
position = "{358, 0}";
},
{
name = hook.af;
position = "{254, 700}";
},
{
name = top;
position = "{498, 700}";
}
);
layerId = UUID0;
paths = (
{
closed = 1;
nodes = (
"411 0 LINE SMOOTH",
"581 0 OFFCURVE",
"677 65 OFFCURVE",
"701 183 CURVE SMOOTH",
"724 301 OFFCURVE",
"656 363 OFFCURVE",
"495 363 CURVE",
"475 350 LINE",
"605 350 OFFCURVE",
"707 406 OFFCURVE",
"731 523 CURVE SMOOTH",
"754 640 OFFCURVE",
"675 700 OFFCURVE",
"531 700 CURVE SMOOTH",
"254 700 LINE",
"114 0 LINE"
);
},
{
closed = 1;
nodes = (
"157 176 LINE",
"166 176 LINE",
"339 176 LINE",
"343 195 LINE",
"170 195 LINE",
"161 195 LINE",
"34 195 LINE",
"30 176 LINE"
);
},
{
closed = 1;
nodes = (
"270 681 LINE",
"531 681 LINE SMOOTH",
"664 681 OFFCURVE",
"732 627 OFFCURVE",
"711 523 CURVE SMOOTH",
"690 419 OFFCURVE",
"601 365 OFFCURVE",
"468 365 CURVE SMOOTH",
"202 365 LINE",
"198 346 LINE",
"484 346 LINE SMOOTH",
"633 346 OFFCURVE",
"703 296 OFFCURVE",
"681 183 CURVE SMOOTH",
"658 70 OFFCURVE",
"568 19 OFFCURVE",
"419 19 CURVE SMOOTH",
"138 19 LINE"
);
},
{
closed = 1;
nodes = (
"730 -3 LINE",
"730 16 LINE",
"-52 16 LINE",
"-52 -3 LINE"
);
}
);
width = 778;
},
{
anchors = (
{
name = bottom;
position = "{363, 0}";
},
{
name = hook.af;
position = "{224, 700}";
},
{
name = top;
position = "{503, 700}";
}
);
layerId = "C4221BDF-4AE8-4E40-821A-B2476087DE1A";
paths = (
{
closed = 1;
nodes = (
"425 0 LINE SMOOTH",
"603 0 OFFCURVE",
"709 63 OFFCURVE",
"733 183 CURVE SMOOTH",
"754 290 OFFCURVE",
"681 376 OFFCURVE",
"571 376 CURVE",
"547 343 LINE",
"641 343 OFFCURVE",
"740 396 OFFCURVE",
"762 508 CURVE SMOOTH",
"785 620 OFFCURVE",
"709 700 OFFCURVE",
"545 700 CURVE SMOOTH",
"224 700 LINE",
"84 0 LINE"
);
},
{
closed = 1;
nodes = (
"154 158 LINE",
"178 158 LINE",
"379 158 LINE",
"396 246 LINE",
"195 246 LINE",
"171 246 LINE",
"32 246 LINE",
"15 158 LINE"
);
},
{
closed = 1;
nodes = (
"319 607 LINE",
"514 607 LINE SMOOTH",
"610 607 OFFCURVE",
"658 573 OFFCURVE",
"645 504 CURVE SMOOTH",
"631 435 OFFCURVE",
"570 404 OFFCURVE",
"474 404 CURVE SMOOTH",
"270 404 LINE",
"251 311 LINE",
"481 311 LINE SMOOTH",
"585 311 OFFCURVE",
"635 275 OFFCURVE",
"620 200 CURVE SMOOTH",
"605 125 OFFCURVE",
"541 93 OFFCURVE",
"437 93 CURVE SMOOTH",
"216 93 LINE"
);
},
{
closed = 1;
nodes = (
"750 -10 LINE",
"750 40 LINE",
"-52 40 LINE",
"-52 -10 LINE"
);
}
);
width = 798;
},
{
anchors = (
{
name = bottom;
position = "{354, 0}";
},
{
name = hook.af;
position = "{169, 700}";
},
{
name = top;
position = "{494, 700}";
}
);
layerId = "5DA6E103-6A94-47F2-987D-4952DB8EA68E";
paths = (
{
closed = 1;
nodes = (
"423 0 LINE SMOOTH",
"616 0 OFFCURVE",
"734 71 OFFCURVE",
"758 193 CURVE SMOOTH",
"782 315 OFFCURVE",
"694 387 OFFCURVE",
"531 390 CURVE",
"501 340 LINE",
"663 333 OFFCURVE",
"768 401 OFFCURVE",
"790 507 CURVE SMOOTH",
"811 613 OFFCURVE",
"736 700 OFFCURVE",
"543 700 CURVE SMOOTH",
"169 700 LINE",
"29 0 LINE"
);
},
{
closed = 1;
nodes = (
"155 167 LINE",
"201 182 LINE",
"394 182 LINE",
"411 272 LINE",
"218 272 LINE",
"179 287 LINE",
"15 287 LINE",
"-9 167 LINE"
);
},
{
closed = 1;
nodes = (
"368 535 LINE",
"478 535 LINE SMOOTH",
"531 535 OFFCURVE",
"552 517 OFFCURVE",
"545 483 CURVE SMOOTH",
"538 449 OFFCURVE",
"510 431 OFFCURVE",
"457 431 CURVE SMOOTH",
"331 431 LINE",
"304 294 LINE",
"462 294 LINE SMOOTH",
"514 294 OFFCURVE",
"535 269 OFFCURVE",
"527 226 CURVE SMOOTH",
"519 187 OFFCURVE",
"487 160 OFFCURVE",
"435 160 CURVE SMOOTH",
"293 160 LINE"
);
},
{
closed = 1;
nodes = (
"752 -17 LINE",
"752 73 LINE",
"-51 73 LINE",
"-51 -17 LINE"
);
}
);
width = 799;
}
);
leftKerningGroup = Bstroke;
rightKerningGroup = B;
unicode = 0243;
},
{
glyphname = Btopbar;
layers = (
{
anchors = (
{
name = bottom;
position = "{325, 0}";
},
{
name = hook.af;
position = "{221, 700}";
},
{
name = top;
position = "{465, 700}";
}
);
layerId = UUID0;
paths = (
{
closed = 1;
nodes = (
"378 0 LINE SMOOTH",
"553 0 OFFCURVE",
"675 84 OFFCURVE",
"675 230 CURVE SMOOTH",
"675 333 OFFCURVE",
"611 386 OFFCURVE",
"466 386 CURVE SMOOTH",
"173 386 LINE",
"169 367 LINE",
"455 367 LINE SMOOTH",
"591 367 OFFCURVE",
"655 329 OFFCURVE",
"655 229 CURVE SMOOTH",
"655 96 OFFCURVE",
"543 19 OFFCURVE",
"386 19 CURVE SMOOTH",
"105 19 LINE",
"237 681 LINE",
"712 681 LINE",
"716 700 LINE",
"221 700 LINE",
"81 0 LINE"
);
},
{
closed = 1;
nodes = (
"700 -3 LINE",
"700 16 LINE",
"-52 16 LINE",
"-52 -3 LINE"
);
}
);
width = 748;
},
{
anchors = (
{
name = bottom;
position = "{327, 0}";
},
{
name = hook.af;
position = "{142, 700}";
},
{
name = top;
position = "{467, 700}";
}
);
layerId = "5DA6E103-6A94-47F2-987D-4952DB8EA68E";
paths = (
{
closed = 1;
nodes = (
"406 0 LINE SMOOTH",
"586 0 OFFCURVE",
"733 80 OFFCURVE",
"733 242 CURVE SMOOTH",
"733 367 OFFCURVE",
"646 429 OFFCURVE",
"503 430 CURVE SMOOTH",
"304 431 LINE",
"273 275 LINE",
"441 275 LINE SMOOTH",
"472 275 OFFCURVE",
"499 261 OFFCURVE",
"499 226 CURVE SMOOTH",
"499 187 OFFCURVE",
"465 165 OFFCURVE",
"419 165 CURVE SMOOTH",
"267 165 LINE",
"341 535 LINE",
"734 535 LINE",
"767 700 LINE",
"142 700 LINE",
"2 0 LINE"
);
},
{
closed = 1;
nodes = (
"726 -17 LINE",
"726 73 LINE",
"-51 73 LINE",
"-51 -17 LINE"
);
}
);
width = 773;
},
{
anchors = (
{
name = bottom;
position = "{324, 0}";
},
{
name = hook.af;
position = "{187, 700}";
},
{
name = top;
position = "{464, 700}";
}
);
layerId = "C4221BDF-4AE8-4E40-821A-B2476087DE1A";
paths = (
{
closed = 1;
nodes = (
"388 0 LINE SMOOTH",
"570 0 OFFCURVE",
"699 84 OFFCURVE",
"699 230 CURVE SMOOTH",
"699 353 OFFCURVE",
"607 406 OFFCURVE",
"463 406 CURVE SMOOTH",
"233 406 LINE",
"215 313 LINE",
"445 313 LINE SMOOTH",
"540 313 OFFCURVE",
"584 287 OFFCURVE",
"584 222 CURVE SMOOTH",
"584 141 OFFCURVE",
"514 93 OFFCURVE",
"401 93 CURVE SMOOTH",
"180 93 LINE",
"282 607 LINE",
"716 607 LINE",
"735 700 LINE",
"187 700 LINE",
"47 0 LINE"
);
},
{
closed = 1;
nodes = (
"711 -10 LINE",
"711 40 LINE",
"-52 40 LINE",
"-52 -10 LINE"
);
}
);
width = 759;
}
);
leftKerningGroup = H;
rightKerningGroup = B;
unicode = 0182;
},
{
glyphname = C;
layers = (
{
anchors = (
{
name = bottom;
position = "{366, 0}";
},
{
name = top;
position = "{495, 700}";
}
);
layerId = UUID0;
paths = (
{
closed = 1;
nodes = (
"491 -3 OFFCURVE",
"586 32 OFFCURVE",
"644 86 CURVE",
"632 102 LINE",
"573 47 OFFCURVE",
"491 16 OFFCURVE",
"388 16 CURVE SMOOTH",
"192 16 OFFCURVE",
"91 123 OFFCURVE",
"91 280 CURVE SMOOTH",
"91 499 OFFCURVE",
"246 684 OFFCURVE",
"490 684 CURVE SMOOTH",
"591 684 OFFCURVE",
"665 656 OFFCURVE",
"713 602 CURVE",
"727 615 LINE",
"680 671 OFFCURVE",
"597 703 OFFCURVE",
"492 703 CURVE SMOOTH",
"229 703 OFFCURVE",
"71 504 OFFCURVE",
"71 280 CURVE SMOOTH",
"71 111 OFFCURVE",
"182 -3 OFFCURVE",
"386 -3 CURVE SMOOTH"
);
},
{
closed = 1;
nodes = (
"-54 -3 LINE",
"665 -3 LINE",
"665 16 LINE",
"-54 16 LINE"
);
}
);
width = 711;
},
{
anchors = (
{
name = bottom;
position = "{347, 0}";
},
{
name = top;
position = "{503, 700}";
}
);
layerId = "5DA6E103-6A94-47F2-987D-4952DB8EA68E";
paths = (
{
closed = 1;
nodes = (
"529 -16 OFFCURVE",
"633 19 OFFCURVE",
"718 123 CURVE",
"579 256 LINE",
"531 198 OFFCURVE",
"478 175 OFFCURVE",
"423 175 CURVE SMOOTH",
"336 175 OFFCURVE",
"279 230 OFFCURVE",
"279 312 CURVE SMOOTH",
"279 437 OFFCURVE",
"357 525 OFFCURVE",
"468 525 CURVE SMOOTH",
"532 525 OFFCURVE",
"578 495 OFFCURVE",
"608 443 CURVE",
"778 576 LINE",
"727 666 OFFCURVE",
"617 716 OFFCURVE",
"483 716 CURVE SMOOTH",
"224 716 OFFCURVE",
"41 543 OFFCURVE",
"41 297 CURVE SMOOTH",
"41 111 OFFCURVE",
"183 -16 OFFCURVE",
"400 -16 CURVE SMOOTH"
);
},
{
closed = 1;
nodes = (
"-50 -17 LINE",
"706 -17 LINE",
"706 73 LINE",
"-50 73 LINE"
);
}
);
width = 744;
},
{
anchors = (
{
name = bottom;
position = "{358, 0}";
},
{
name = top;
position = "{498, 700}";
}
);
layerId = "C4221BDF-4AE8-4E40-821A-B2476087DE1A";
paths = (
{
closed = 1;
nodes = (
"509 -9 OFFCURVE",
"610 26 OFFCURVE",
"676 100 CURVE",
"609 175 LINE",
"555 120 OFFCURVE",
"485 93 OFFCURVE",
"403 93 CURVE SMOOTH",
"252 93 OFFCURVE",
"173 174 OFFCURVE",
"173 295 CURVE SMOOTH",
"173 464 OFFCURVE",
"290 607 OFFCURVE",
"480 607 CURVE SMOOTH",
"565 607 OFFCURVE",
"627 578 OFFCURVE",
"667 525 CURVE",
"749 596 LINE",
"701 669 OFFCURVE",
"606 709 OFFCURVE",
"488 709 CURVE SMOOTH",
"227 709 OFFCURVE",
"58 523 OFFCURVE",
"58 288 CURVE SMOOTH",
"58 112 OFFCURVE",
"183 -9 OFFCURVE",
"395 -9 CURVE SMOOTH"
);
},
{
closed = 1;
nodes = (
"-55 -10 LINE",
"680 -10 LINE",
"680 40 LINE",
"-55 40 LINE"
);
}
);
width = 725;
}
);
leftKerningGroup = O;
rightKerningGroup = C;
unicode = 0043;
},
{
glyphname = Cbar;
layers = (
{
anchors = (
{
name = bottom;
position = "{444, 0}";
},
{
name = top;
position = "{573, 700}";
}
);
layerId = UUID0;
paths = (
{
closed = 1;
nodes = (
"569 -3 OFFCURVE",
"664 32 OFFCURVE",
"722 86 CURVE",
"710 102 LINE",
"651 47 OFFCURVE",
"569 16 OFFCURVE",
"466 16 CURVE SMOOTH",
"270 16 OFFCURVE",
"169 123 OFFCURVE",
"169 280 CURVE SMOOTH",
"169 499 OFFCURVE",
"324 684 OFFCURVE",
"568 684 CURVE SMOOTH",
"669 684 OFFCURVE",
"743 656 OFFCURVE",
"791 602 CURVE",
"805 615 LINE",
"758 671 OFFCURVE",
"675 703 OFFCURVE",
"570 703 CURVE SMOOTH",
"307 703 OFFCURVE",
"149 504 OFFCURVE",
"149 280 CURVE SMOOTH",
"149 111 OFFCURVE",
"260 -3 OFFCURVE",
"464 -3 CURVE SMOOTH"
);
},
{
closed = 1;
nodes = (
"365 345 LINE",
"369 364 LINE",
"39 364 LINE",
"35 345 LINE"
);
},
{
closed = 1;
nodes = (
"747 -3 LINE",
"747 16 LINE",
"-52 16 LINE",
"-52 -3 LINE"
);
}
);
width = 795;
},
{
anchors = (
{
name = bottom;
position = "{441, 0}";
},
{
name = top;
position = "{581, 700}";
}
);
layerId = "C4221BDF-4AE8-4E40-821A-B2476087DE1A";
paths = (
{
closed = 1;
nodes = (
"592 -9 OFFCURVE",
"693 26 OFFCURVE",
"759 100 CURVE",
"692 175 LINE",
"638 120 OFFCURVE",
"568 93 OFFCURVE",
"486 93 CURVE SMOOTH",
"335 93 OFFCURVE",
"256 174 OFFCURVE",
"256 295 CURVE SMOOTH",
"256 464 OFFCURVE",
"373 607 OFFCURVE",
"563 607 CURVE SMOOTH",
"648 607 OFFCURVE",
"710 578 OFFCURVE",
"750 525 CURVE",
"832 596 LINE",
"784 669 OFFCURVE",
"689 709 OFFCURVE",
"571 709 CURVE SMOOTH",
"310 709 OFFCURVE",
"141 523 OFFCURVE",
"141 288 CURVE SMOOTH",
"141 112 OFFCURVE",
"266 -9 OFFCURVE",
"478 -9 CURVE SMOOTH"
);
},
{
closed = 1;
nodes = (
"424 314 LINE",
"441 404 LINE",
"54 404 LINE",
"37 314 LINE"
);
},
{
closed = 1;
nodes = (
"764 -10 LINE",
"764 40 LINE",
"-52 40 LINE",
"-52 -10 LINE"
);
}
);
width = 812;
},
{
anchors = (
{
name = bottom;
position = "{406, 0}";
},
{
name = top;
position = "{561, 700}";
}
);
layerId = "5DA6E103-6A94-47F2-987D-4952DB8EA68E";
paths = (
{
closed = 1;
nodes = (
"588 -16 OFFCURVE",
"692 19 OFFCURVE",
"777 123 CURVE",
"638 256 LINE",
"590 198 OFFCURVE",
"537 175 OFFCURVE",
"482 175 CURVE SMOOTH",
"395 175 OFFCURVE",
"338 230 OFFCURVE",
"338 312 CURVE SMOOTH",
"338 437 OFFCURVE",
"416 525 OFFCURVE",
"527 525 CURVE SMOOTH",
"591 525 OFFCURVE",
"637 495 OFFCURVE",
"667 443 CURVE",
"837 576 LINE",
"786 666 OFFCURVE",
"676 716 OFFCURVE",
"542 716 CURVE SMOOTH",
"283 716 OFFCURVE",
"100 543 OFFCURVE",
"100 297 CURVE SMOOTH",
"100 111 OFFCURVE",
"242 -16 OFFCURVE",
"459 -16 CURVE SMOOTH"
);
},
{
closed = 1;
nodes = (
"453 287 LINE",
"480 423 LINE",
"47 423 LINE",
"20 287 LINE"
);
},
{
closed = 1;
nodes = (
"766 -17 LINE",
"766 73 LINE",
"-51 73 LINE",
"-51 -17 LINE"
);
}
);
width = 813;
}
);
leftKerningGroup = Cbar;
rightKerningGroup = C;
unicode = A792;
},
{
glyphname = "Chi-latin";
layers = (
{
layerId = UUID0;
paths = (
{
closed = 1;
nodes = (
"34 -194 LINE",
"386 258 LINE",
"392 266 LINE",
"735 702 LINE",
"709 702 LINE",
"383 282 LINE",
"378 278 LINE",
"8 -194 LINE"
);
},
{
closed = 1;
nodes = (
"173 -3 LINE",
"186 16 LINE",
"-52 16 LINE",
"-52 -3 LINE"
);
},
{
closed = 1;
nodes = (
"736 -3 LINE",
"736 16 LINE",
"472 16 LINE",
"478 -3 LINE"
);
},
{
closed = 1;
nodes = (
"669 -140 LINE",
"626 -183 OFFCURVE",
"559 -207 OFFCURVE",
"529 -119 CURVE SMOOTH",
"392 278 LINE",
"390 283 LINE",
"267 639 LINE SMOOTH",
"238 724 OFFCURVE",
"161 716 OFFCURVE",
"101 659 CURVE",
"112 646 LINE",
"156 689 OFFCURVE",
"221 713 OFFCURVE",
"251 625 CURVE SMOOTH",
"375 266 LINE",
"378 259 LINE",
"513 -133 LINE SMOOTH",
"542 -218 OFFCURVE",
"620 -210 OFFCURVE",
"681 -153 CURVE"
);
}
);
userData = {
RMXScaler = {
height = 128;
verticalShift = -194;
width = 93;
};
};
width = 784;
},
{
layerId = "C4221BDF-4AE8-4E40-821A-B2476087DE1A";
paths = (
{
closed = 1;
nodes = (
"129 -194 LINE",
"433 231 LINE",
"448 231 LINE",
"815 702 LINE",
"683 702 LINE",
"395 303 LINE",
"378 308 LINE",
"-6 -194 LINE"
);
},
{
closed = 1;
nodes = (
"211 -10 LINE",
"211 40 LINE",
"-52 40 LINE",
"-52 -10 LINE"
);
},
{
closed = 1;
nodes = (
"793 -10 LINE",
"793 40 LINE",
"517 40 LINE",
"517 -10 LINE"
);
},
{
closed = 1;
nodes = (
"703 -67 LINE",
"659 -110 OFFCURVE",
"609 -120 OFFCURVE",
"585 -53 CURVE SMOOTH",
"466 287 LINE",
"444 335 LINE",
"352 615 LINE SMOOTH",
"313 734 OFFCURVE",
"192 733 OFFCURVE",
"90 644 CURVE",
"132 574 LINE",
"178 616 OFFCURVE",
"228 627 OFFCURVE",
"252 559 CURVE SMOOTH",
"364 241 LINE",
"390 191 LINE",
"486 -109 LINE SMOOTH",
"524 -228 OFFCURVE",
"644 -227 OFFCURVE",
"746 -138 CURVE"
);
}
);
userData = {
RMXScaler = {
height = 128;
verticalShift = -194;
width = 92;
};
};
width = 841;
},
{
layerId = "5DA6E103-6A94-47F2-987D-4952DB8EA68E";
paths = (
{
closed = 1;
nodes = (
"253 -194 LINE",
"495 197 LINE",
"522 186 LINE",
"920 702 LINE",
"651 702 LINE",
"412 329 LINE",
"380 346 LINE",
"-21 -194 LINE"
);
},
{
closed = 1;
nodes = (
"271 -17 LINE",
"297 73 LINE",
"-51 73 LINE",
"-51 -17 LINE"
);
},
{
closed = 1;
nodes = (
"872 -17 LINE",
"872 73 LINE",
"506 73 LINE",
"536 -17 LINE"
);
},
{
closed = 1;
nodes = (
"769 -36 LINE",
"703 -49 OFFCURVE",
"688 -42 OFFCURVE",
"669 11 CURVE SMOOTH",
"564 298 LINE",
"515 403 LINE",
"463 585 LINE SMOOTH",
"418 743 OFFCURVE",
"241 762 OFFCURVE",
"78 625 CURVE",
"161 481 LINE",
"206 521 OFFCURVE",
"240 518 OFFCURVE",
"256 474 CURVE SMOOTH",
"352 209 LINE",
"407 104 LINE",
"450 -69 LINE SMOOTH",
"484 -207 OFFCURVE",
"653 -257 OFFCURVE",
"805 -175 CURVE"
);
}
);
userData = {
RMXScaler = {
height = 128;
verticalShift = -194;
width = 97;
};
};
width = 919;
}
);
leftKerningGroup = "Chi-latin";
rightKerningGroup = "Chi-latin";
unicode = A7B3;
userData = {
RMXScaler = {
source = X;
};
};
},
{
glyphname = Chook;
layers = (
{
anchors = (
{
name = bottom;
position = "{372, 0}";
},
{
name = top;
position = "{523, 703}";
}
);
layerId = UUID0;
paths = (
{
closed = 1;
nodes = (
"507 -3 OFFCURVE",
"602 32 OFFCURVE",
"660 86 CURVE",
"648 102 LINE",
"589 47 OFFCURVE",
"507 16 OFFCURVE",
"404 16 CURVE SMOOTH",
"208 16 OFFCURVE",
"107 123 OFFCURVE",
"107 280 CURVE SMOOTH",
"107 499 OFFCURVE",
"262 684 OFFCURVE",
"506 684 CURVE SMOOTH",
"607 684 OFFCURVE",
"681 656 OFFCURVE",
"729 602 CURVE",
"743 615 LINE",
"696 671 OFFCURVE",
"613 703 OFFCURVE",
"508 703 CURVE SMOOTH",
"245 703 OFFCURVE",
"87 504 OFFCURVE",
"87 280 CURVE SMOOTH",
"87 111 OFFCURVE",
"198 -3 OFFCURVE",
"402 -3 CURVE SMOOTH"
);
},
{
closed = 1;
nodes = (
"743 615 LINE",
"757 685 LINE SMOOTH",
"774 772 OFFCURVE",
"840 810 OFFCURVE",
"906 770 CURVE",
"915 787 LINE",
"843 830 OFFCURVE",
"758 795 OFFCURVE",
"737 687 CURVE SMOOTH",
"723 615 LINE"
);
},
{
closed = 1;
nodes = (
"694 -3 LINE",
"694 16 LINE",
"-52 16 LINE",
"-52 -3 LINE"
);
}
);
width = 742;
},
{
anchors = (
{
name = bottom;
position = "{319, 0}";
},
{
name = top;
position = "{459, 700}";
}
);
layerId = "C4221BDF-4AE8-4E40-821A-B2476087DE1A";
paths = (
{
closed = 1;
nodes = (
"515 -9 OFFCURVE",
"616 26 OFFCURVE",
"682 100 CURVE",
"615 175 LINE",
"561 120 OFFCURVE",
"491 93 OFFCURVE",
"409 93 CURVE SMOOTH",
"258 93 OFFCURVE",
"179 174 OFFCURVE",
"179 295 CURVE SMOOTH",
"179 464 OFFCURVE",
"296 607 OFFCURVE",
"486 607 CURVE SMOOTH",
"571 607 OFFCURVE",
"633 578 OFFCURVE",
"673 525 CURVE",
"755 596 LINE",
"707 668 OFFCURVE",
"612 709 OFFCURVE",
"494 709 CURVE SMOOTH",
"233 709 OFFCURVE",
"64 523 OFFCURVE",
"64 288 CURVE SMOOTH",
"64 112 OFFCURVE",
"189 -9 OFFCURVE",
"401 -9 CURVE SMOOTH"
);
},
{
closed = 1;
nodes = (
"755 596 LINE",
"765 650 LINE SMOOTH",
"778 718 OFFCURVE",
"829 749 OFFCURVE",
"887 733 CURVE",
"913 820 LINE",
"816 855 OFFCURVE",
"687 798 OFFCURVE",
"664 672 CURVE SMOOTH",
"650 596 LINE"
);
},
{
closed = 1;
nodes = (
"695 -10 LINE",
"695 40 LINE",
"-52 40 LINE",
"-52 -10 LINE"
);
}
);
width = 743;
},
{
anchors = (
{
name = bottom;
position = "{332, 0}";
},
{
name = top;
position = "{498, 701}";
}
);
layerId = "5DA6E103-6A94-47F2-987D-4952DB8EA68E";
paths = (
{
closed = 1;
nodes = (
"526 -16 OFFCURVE",
"630 19 OFFCURVE",
"715 123 CURVE",
"576 256 LINE",
"528 198 OFFCURVE",
"475 175 OFFCURVE",
"420 175 CURVE SMOOTH",
"333 175 OFFCURVE",
"276 230 OFFCURVE",
"276 312 CURVE SMOOTH",
"276 437 OFFCURVE",
"354 525 OFFCURVE",
"465 525 CURVE SMOOTH",
"529 525 OFFCURVE",
"575 495 OFFCURVE",
"605 443 CURVE",
"775 576 LINE",
"724 666 OFFCURVE",
"614 716 OFFCURVE",
"480 716 CURVE SMOOTH",
"221 716 OFFCURVE",
"38 543 OFFCURVE",
"38 297 CURVE SMOOTH",
"38 111 OFFCURVE",
"180 -16 OFFCURVE",
"397 -16 CURVE SMOOTH"
);
},
{
closed = 1;
nodes = (
"775 576 LINE",
"787 636 LINE SMOOTH",
"796 681 OFFCURVE",
"828 700 OFFCURVE",
"872 686 CURVE",
"930 837 LINE",
"760 894 OFFCURVE",
"642 820 OFFCURVE",
"616 683 CURVE SMOOTH",
"596 576 LINE"
);
},
{
closed = 1;
nodes = (
"743 -17 LINE",
"743 73 LINE",
"-51 73 LINE",
"-51 -17 LINE"
);
}
);
width = 790;
}
);
leftKerningGroup = O;
rightKerningGroup = C;
unicode = 0187;
},
{
glyphname = Cstroke;
layers = (
{
anchors = (
{
name = bottom;
position = "{357, 0}";
},
{
name = top;
position = "{508, 700}";
}
);
layerId = UUID0;
paths = (
{
closed = 1;
nodes = (
"137 -70 LINE",
"715 770 LINE",
"692 770 LINE",
"114 -70 LINE"
);
},
{
closed = 1;
nodes = (
"173 -3 LINE",
"186 16 LINE",
"-52 16 LINE",
"-52 -3 LINE"
);
},
{
closed = 1;
nodes = (
"663 -3 LINE",
"663 16 LINE",
"385 16 LINE",
"385 -3 LINE"
);
},
{
closed = 1;
nodes = (
"491 -3 OFFCURVE",
"586 32 OFFCURVE",
"644 86 CURVE",
"632 102 LINE",
"573 47 OFFCURVE",
"491 16 OFFCURVE",
"388 16 CURVE SMOOTH",
"192 16 OFFCURVE",
"91 123 OFFCURVE",
"91 280 CURVE SMOOTH",
"91 499 OFFCURVE",
"246 684 OFFCURVE",
"490 684 CURVE SMOOTH",
"591 684 OFFCURVE",
"665 656 OFFCURVE",
"713 602 CURVE",
"727 615 LINE",
"680 671 OFFCURVE",
"597 703 OFFCURVE",
"492 703 CURVE SMOOTH",
"229 703 OFFCURVE",
"71 504 OFFCURVE",
"71 280 CURVE SMOOTH",
"71 111 OFFCURVE",
"182 -3 OFFCURVE",
"386 -3 CURVE SMOOTH"
);
}
);
width = 711;
},
{
anchors = (
{
name = bottom;
position = "{348, 0}";
},
{
name = top;
position = "{499, 700}";
}
);
layerId = "C4221BDF-4AE8-4E40-821A-B2476087DE1A";
paths = (
{
closed = 1;
nodes = (
"200 -70 LINE",
"745 770 LINE",
"653 770 LINE",
"107 -70 LINE"
);
},
{
closed = 1;
nodes = (
"205 -10 LINE",
"205 40 LINE",
"-52 40 LINE",
"-52 -10 LINE"
);
},
{
closed = 1;
nodes = (
"677 -10 LINE",
"677 40 LINE",
"394 40 LINE",
"394 -10 LINE"
);
},
{
closed = 1;
nodes = (
"509 -10 OFFCURVE",
"610 26 OFFCURVE",
"676 100 CURVE",
"609 175 LINE",
"555 120 OFFCURVE",
"485 92 OFFCURVE",
"403 92 CURVE SMOOTH",
"252 92 OFFCURVE",
"173 174 OFFCURVE",
"173 295 CURVE SMOOTH",
"173 464 OFFCURVE",
"290 607 OFFCURVE",
"480 607 CURVE SMOOTH",
"565 607 OFFCURVE",
"627 578 OFFCURVE",
"667 525 CURVE",
"749 596 LINE",
"701 669 OFFCURVE",
"606 709 OFFCURVE",
"488 709 CURVE SMOOTH",
"227 709 OFFCURVE",
"58 523 OFFCURVE",
"58 288 CURVE SMOOTH",
"58 112 OFFCURVE",
"183 -10 OFFCURVE",
"395 -10 CURVE SMOOTH"
);
}
);
width = 725;
},
{
anchors = (
{
name = bottom;
position = "{326, 0}";
},
{
name = top;
position = "{492, 700}";
}
);
guideLines = (
{
position = "{319, 769}";
}
);
layerId = "5DA6E103-6A94-47F2-987D-4952DB8EA68E";
paths = (
{
closed = 1;
nodes = (
"205 -70 LINE",
"769 770 LINE",
"655 770 LINE",
"91 -70 LINE"
);
},
{
closed = 1;
nodes = (
"188 -17 LINE",
"245 73 LINE",
"-51 73 LINE",
"-51 -17 LINE"
);
},
{
closed = 1;
nodes = (
"697 -17 LINE",
"697 73 LINE",
"400 73 LINE",
"400 -17 LINE"
);
},
{
closed = 1;
nodes = (
"529 -17 OFFCURVE",
"633 19 OFFCURVE",
"718 123 CURVE",
"579 256 LINE",
"531 198 OFFCURVE",
"478 174 OFFCURVE",
"423 174 CURVE SMOOTH",
"336 174 OFFCURVE",
"279 230 OFFCURVE",
"279 312 CURVE SMOOTH",
"279 437 OFFCURVE",
"357 525 OFFCURVE",
"468 525 CURVE SMOOTH",
"532 525 OFFCURVE",
"578 495 OFFCURVE",
"608 443 CURVE",
"778 576 LINE",
"727 666 OFFCURVE",
"617 716 OFFCURVE",
"483 716 CURVE SMOOTH",
"224 716 OFFCURVE",
"41 543 OFFCURVE",
"41 297 CURVE SMOOTH",
"41 111 OFFCURVE",
"183 -17 OFFCURVE",
"400 -17 CURVE SMOOTH"
);
}
);
width = 744;
}
);
leftKerningGroup = O;
rightKerningGroup = C;
unicode = 023B;
},
{
glyphname = D;
layers = (
{
anchors = (
{
name = bottom;
position = "{344, 0}";
},
{
name = center;
position = "{219, 356}";
},
{
name = top;
position = "{479, 699}";
}
);
layerId = UUID0;
paths = (
{
closed = 1;
nodes = (
"359 8 LINE SMOOTH",
"626 8 OFFCURVE",
"793 188 OFFCURVE",
"793 410 CURVE SMOOTH",
"793 591 OFFCURVE",
"681 700 OFFCURVE",
"472 700 CURVE SMOOTH",
"221 700 LINE",
"83 8 LINE"
);
},
{
closed = 1;
nodes = (
"237 681 LINE",
"470 681 LINE SMOOTH",
"673 681 OFFCURVE",
"773 580 OFFCURVE",
"773 411 CURVE SMOOTH",
"773 197 OFFCURVE",
"614 27 OFFCURVE",
"361 27 CURVE SMOOTH",
"107 27 LINE"
);
},
{
closed = 1;
nodes = (
"-54 -3 LINE",
"780 -3 LINE",
"780 16 LINE",
"-54 16 LINE"
);
}
);
width = 826;
},
{
anchors = (
{
name = bottom;
position = "{304, 0}";
},
{
name = center;
position = "{222, 355}";
},
{
name = top;
position = "{442, 700}";
}
);
layerId = "5DA6E103-6A94-47F2-987D-4952DB8EA68E";
paths = (
{
closed = 1;
nodes = (
"377 0 LINE SMOOTH",
"632 0 OFFCURVE",
"815 156 OFFCURVE",
"815 403 CURVE SMOOTH",
"815 587 OFFCURVE",
"679 700 OFFCURVE",
"458 700 CURVE SMOOTH",
"142 700 LINE",
"2 0 LINE"
);
},
{
closed = 1;
nodes = (
"341 516 LINE",
"431 516 LINE SMOOTH",
"526 516 OFFCURVE",
"577 470 OFFCURVE",
"577 389 CURVE SMOOTH",
"577 274 OFFCURVE",
"510 184 OFFCURVE",
"385 184 CURVE SMOOTH",
"275 184 LINE"
);
},
{
closed = 1;
nodes = (
"-50 -17 LINE",
"778 -17 LINE",
"778 73 LINE",
"-50 73 LINE"
);
}
);
width = 826;
},
{
anchors = (
{
name = bottom;
position = "{326, 0}";
},
{
name = center;
position = "{220, 356}";
},
{
name = top;
position = "{462, 699}";
}
);
layerId = "C4221BDF-4AE8-4E40-821A-B2476087DE1A";
paths = (
{
closed = 1;
nodes = (
"367 0 LINE SMOOTH",
"628 0 OFFCURVE",
"802 164 OFFCURVE",
"802 412 CURVE SMOOTH",
"802 587 OFFCURVE",
"677 700 OFFCURVE",
"465 700 CURVE SMOOTH",
"187 700 LINE",
"47 0 LINE"
);
},
{
closed = 1;
nodes = (
"281 601 LINE",
"453 601 LINE SMOOTH",
"609 601 OFFCURVE",
"687 525 OFFCURVE",
"687 405 CURVE SMOOTH",
"687 229 OFFCURVE",
"567 99 OFFCURVE",
"370 99 CURVE SMOOTH",
"181 99 LINE"
);
},
{
closed = 1;
nodes = (
"-55 -10 LINE",
"781 -10 LINE",
"781 40 LINE",
"-55 40 LINE"
);
}
);
width = 826;
}
);
leftKerningGroup = H;
rightKerningGroup = O;
unicode = 0044;
},
{
glyphname = Dcroat;
layers = (
{
anchors = (
{
name = _center;
position = "{219, 356}";
},
{
name = bottom;
position = "{369, 0}";
},
{
name = center;
position = "{224, 350}";
},
{
name = top;
position = "{474, 699}";
}
);
layerId = UUID0;
paths = (
{
closed = 1;
nodes = (
"359 8 LINE SMOOTH",
"626 8 OFFCURVE",
"793 188 OFFCURVE",
"793 410 CURVE SMOOTH",
"793 591 OFFCURVE",
"681 700 OFFCURVE",
"472 700 CURVE SMOOTH",
"221 700 LINE",
"83 8 LINE"
);
},
{
closed = 1;
nodes = (
"237 681 LINE",
"470 681 LINE SMOOTH",
"673 681 OFFCURVE",
"773 580 OFFCURVE",
"773 411 CURVE SMOOTH",
"773 197 OFFCURVE",
"614 27 OFFCURVE",
"361 27 CURVE SMOOTH",
"107 27 LINE"
);
},
{
closed = 1;
nodes = (
"-54 -3 LINE",
"780 -3 LINE",
"780 16 LINE",
"-54 16 LINE"
);
},
{
closed = 1;
nodes = (
"397 346 LINE",
"401 365 LINE",
"41 365 LINE",
"37 346 LINE"
);
}
);
width = 826;
},
{
anchors = (
{
name = _center;
position = "{222, 355}";
},
{
name = bottom;
position = "{309, 0}";
},
{
name = center;
position = "{197, 351}";
},
{
name = top;
position = "{437, 701}";
}
);
layerId = "5DA6E103-6A94-47F2-987D-4952DB8EA68E";
paths = (
{
closed = 1;
nodes = (
"377 0 LINE SMOOTH",
"632 0 OFFCURVE",
"815 156 OFFCURVE",
"815 403 CURVE SMOOTH",
"815 587 OFFCURVE",
"679 700 OFFCURVE",
"458 700 CURVE SMOOTH",
"142 700 LINE",
"2 0 LINE"
);
},
{
closed = 1;
nodes = (
"341 516 LINE",
"431 516 LINE SMOOTH",
"526 516 OFFCURVE",
"577 470 OFFCURVE",
"577 389 CURVE SMOOTH",
"577 274 OFFCURVE",
"510 184 OFFCURVE",
"385 184 CURVE SMOOTH",
"275 184 LINE"
);
},
{
closed = 1;
nodes = (
"-50 -17 LINE",
"778 -17 LINE",
"778 73 LINE",
"-50 73 LINE"
);
},
{
closed = 1;
nodes = (
"444 287 LINE",
"471 423 LINE",
"1 423 LINE",
"-26 287 LINE"
);
}
);
width = 826;
},
{
anchors = (
{
name = _center;
position = "{220, 356}";
},
{
name = bottom;
position = "{343, 0}";
},
{
name = center;
position = "{212, 350}";
},
{
name = top;
position = "{458, 700}";
}
);
layerId = "C4221BDF-4AE8-4E40-821A-B2476087DE1A";
paths = (
{
closed = 1;
nodes = (
"367 0 LINE SMOOTH",
"628 0 OFFCURVE",
"802 164 OFFCURVE",
"802 412 CURVE SMOOTH",
"802 587 OFFCURVE",
"677 700 OFFCURVE",
"465 700 CURVE SMOOTH",
"187 700 LINE",
"47 0 LINE"
);
},
{
closed = 1;
nodes = (
"281 601 LINE",
"453 601 LINE SMOOTH",
"609 601 OFFCURVE",
"687 525 OFFCURVE",
"687 405 CURVE SMOOTH",
"687 229 OFFCURVE",
"567 99 OFFCURVE",
"370 99 CURVE SMOOTH",
"181 99 LINE"
);
},
{
closed = 1;
nodes = (
"-55 -10 LINE",
"781 -10 LINE",
"781 40 LINE",
"-55 40 LINE"
);
},
{
closed = 1;
nodes = (
"415 311 LINE",
"433 401 LINE",
"25 401 LINE",
"7 311 LINE"
);
}
);
width = 826;
}
);
leftKerningGroup = H;
rightKerningGroup = O;
unicode = 0110;
},
{
glyphname = Dhook;
layers = (
{
anchors = (
{
name = bottom;
position = "{486, 0}";
},
{
name = center;
position = "{361, 356}";
},
{
name = top;
position = "{621, 699}";
}
);
layerId = UUID0;
paths = (
{
closed = 1;
nodes = (
"501 8 LINE SMOOTH",
"768 8 OFFCURVE",
"935 188 OFFCURVE",
"935 410 CURVE SMOOTH",
"935 591 OFFCURVE",
"823 700 OFFCURVE",
"614 700 CURVE SMOOTH",
"363 700 LINE",
"225 8 LINE"
);
},
{
closed = 1;
nodes = (
"379 681 LINE",
"612 681 LINE SMOOTH",
"815 681 OFFCURVE",
"915 580 OFFCURVE",
"915 411 CURVE SMOOTH",
"915 197 OFFCURVE",
"756 27 OFFCURVE",
"503 27 CURVE SMOOTH",
"249 27 LINE"
);
},
{
closed = 1;
nodes = (
"-52 -3 LINE",
"920 -3 LINE",
"920 16 LINE",
"-52 16 LINE"
);
},
{
closed = 1;
nodes = (
"141 455 LINE",
"85 572 OFFCURVE",
"145 681 OFFCURVE",
"266 681 CURVE SMOOTH",
"364 681 LINE",
"368 700 LINE",
"266 700 LINE SMOOTH",
"129 700 OFFCURVE",
"56 567 OFFCURVE",
"125 445 CURVE"
);
}
);
width = 968;
},
{
anchors = (
{
name = bottom;
position = "{501, 0}";
},
{
name = center;
position = "{395, 356}";
},
{
name = top;
position = "{637, 699}";
}
);
layerId = "C4221BDF-4AE8-4E40-821A-B2476087DE1A";
paths = (
{
closed = 1;
nodes = (
"542 0 LINE SMOOTH",
"803 0 OFFCURVE",
"977 164 OFFCURVE",
"977 412 CURVE SMOOTH",
"977 587 OFFCURVE",
"852 700 OFFCURVE",
"640 700 CURVE SMOOTH",
"362 700 LINE",
"222 0 LINE"
);
},
{
closed = 1;
nodes = (
"456 601 LINE",
"628 601 LINE SMOOTH",
"784 601 OFFCURVE",
"862 525 OFFCURVE",
"862 405 CURVE SMOOTH",
"862 229 OFFCURVE",
"742 99 OFFCURVE",
"545 99 CURVE SMOOTH",
"356 99 LINE"
);
},
{
closed = 1;
nodes = (
"-52 -10 LINE",
"953 -10 LINE",
"953 40 LINE",
"-52 40 LINE"
);
},
{
closed = 1;
nodes = (
"221 435 LINE",
"167 506 OFFCURVE",
"203 601 OFFCURVE",
"284 601 CURVE SMOOTH",
"351 601 LINE",
"371 700 LINE",
"283 700 LINE SMOOTH",
"107 700 OFFCURVE",
"25 527 OFFCURVE",
"130 371 CURVE"
);
}
);
width = 1001;
},
{
anchors = (
{
name = bottom;
position = "{554, 0}";
},
{
name = center;
position = "{472, 355}";
},
{
name = top;
position = "{692, 700}";
}
);
layerId = "5DA6E103-6A94-47F2-987D-4952DB8EA68E";
paths = (
{
closed = 1;
nodes = (
"627 0 LINE SMOOTH",
"882 0 OFFCURVE",
"1065 156 OFFCURVE",
"1065 403 CURVE SMOOTH",
"1065 587 OFFCURVE",
"929 700 OFFCURVE",
"708 700 CURVE SMOOTH",
"392 700 LINE",
"252 0 LINE"
);
},
{
closed = 1;
nodes = (
"591 516 LINE",
"681 516 LINE SMOOTH",
"776 516 OFFCURVE",
"827 470 OFFCURVE",
"827 389 CURVE SMOOTH",
"827 274 OFFCURVE",
"760 184 OFFCURVE",
"635 184 CURVE SMOOTH",
"525 184 LINE"
);
},
{
closed = 1;
nodes = (
"-51 -17 LINE",
"1029 -17 LINE",
"1029 73 LINE",
"-51 73 LINE"
);
},
{
closed = 1;
nodes = (
"268 393 LINE",
"243 458 OFFCURVE",
"263 517 OFFCURVE",
"322 517 CURVE SMOOTH",
"361 517 LINE",
"397 700 LINE",
"309 700 LINE SMOOTH",
"89 700 OFFCURVE",
"4 492 OFFCURVE",
"75 317 CURVE"
);
}
);
width = 1076;
}
);
leftKerningGroup = Hhook;
rightKerningGroup = O;
unicode = 018A;
},
{
glyphname = Dtopbar;
layers = (
{
layerId = UUID0;
paths = (
{
closed = 1;
nodes = (
"553 0 LINE",
"693 700 LINE",
"213 700 LINE",
"209 681 LINE",
"669 681 LINE",
"610 386 LINE",
"304 386 LINE SMOOTH",
"144 386 OFFCURVE",
"67 328 OFFCURVE",
"47 212 CURVE SMOOTH",
"25 79 OFFCURVE",
"110 0 OFFCURVE",
"288 0 CURVE SMOOTH"
);
},
{
closed = 1;
nodes = (
"124 19 OFFCURVE",
"49 87 OFFCURVE",
"67 210 CURVE SMOOTH",
"83 317 OFFCURVE",
"155 367 OFFCURVE",
"308 367 CURVE SMOOTH",
"607 367 LINE",
"537 19 LINE",
"288 19 LINE SMOOTH"
);
},
{
closed = 1;
nodes = (
"690 -3 LINE",
"690 16 LINE",
"-52 16 LINE",
"-52 -3 LINE"
);
}
);
width = 738;
},
{
layerId = "C4221BDF-4AE8-4E40-821A-B2476087DE1A";
paths = (
{
closed = 1;
nodes = (
"600 0 LINE",
"740 700 LINE",
"207 700 LINE",
"187 601 LINE",
"607 601 LINE",
"571 421 LINE",
"317 421 LINE SMOOTH",
"151 421 OFFCURVE",
"56 360 OFFCURVE",
"33 239 CURVE SMOOTH",
"6 97 OFFCURVE",
"102 0 OFFCURVE",
"266 0 CURVE SMOOTH"
);
},
{
closed = 1;
nodes = (
"186 93 OFFCURVE",
"131 147 OFFCURVE",
"148 227 CURVE SMOOTH",
"162 296 OFFCURVE",
"219 328 OFFCURVE",
"329 328 CURVE SMOOTH",
"552 328 LINE",
"505 93 LINE",
"285 93 LINE SMOOTH"
);
},
{
closed = 1;
nodes = (
"705 -10 LINE",
"705 40 LINE",
"-52 40 LINE",
"-52 -10 LINE"
);
}
);
width = 753;
},
{
layerId = "5DA6E103-6A94-47F2-987D-4952DB8EA68E";
paths = (
{
closed = 1;
nodes = (
"654 0 LINE",
"794 700 LINE",
"186 700 LINE",
"153 535 LINE",
"529 535 LINE",
"509 435 LINE",
"314 435 LINE SMOOTH",
"143 435 OFFCURVE",
"36 369 OFFCURVE",
"10 236 CURVE SMOOTH",
"-18 94 OFFCURVE",
"72 0 OFFCURVE",
"257 0 CURVE SMOOTH"
);
},
{
closed = 1;
nodes = (
"261 165 OFFCURVE",
"243 196 OFFCURVE",
"250 230 CURVE SMOOTH",
"257 263 OFFCURVE",
"284 280 OFFCURVE",
"333 280 CURVE SMOOTH",
"478 280 LINE",
"455 165 LINE",
"310 165 LINE SMOOTH"
);
},
{
closed = 1;
nodes = (
"719 -17 LINE",
"719 73 LINE",
"-51 73 LINE",
"-51 -17 LINE"
);
}
);
width = 766;
}
);
leftKerningGroup = Dtopbar;
rightKerningGroup = H;
unicode = 018B;
},
{
glyphname = E;
layers = (
{
anchors = (
{
name = bottom;
position = "{324, 0}";
},
{
name = ogonek;
position = "{547, 0}";
},
{
name = top;
position = "{447, 700}";
},
{
name = topleft;
position = "{129, 700}";
}
);
layerId = UUID0;
paths = (
{
closed = 1;
nodes = (
"165 346 LINE",
"556 346 LINE",
"560 365 LINE",
"169 365 LINE"
);
},
{
closed = 1;
nodes = (
"237 681 LINE",
"668 681 LINE",
"672 700 LINE",
"221 700 LINE",
"83 8 LINE",
"549 8 LINE",
"553 27 LINE",
"107 27 LINE"
);
},
{
closed = 1;
nodes = (
"-54 -3 LINE",
"622 -3 LINE",
"622 16 LINE",
"-54 16 LINE"
);
}
);
width = 668;
},
{
anchors = (
{
name = bottom;
position = "{287, 0}";
},
{
name = ogonek;
position = "{584, 0}";
},
{
name = top;
position = "{427, 700}";
},
{
name = topleft;
position = "{76, 700}";
}
);
layerId = "5DA6E103-6A94-47F2-987D-4952DB8EA68E";
paths = (
{
closed = 1;
nodes = (
"272 270 LINE",
"584 270 LINE",
"618 440 LINE",
"306 440 LINE"
);
},
{
closed = 1;
nodes = (
"338 522 LINE",
"675 522 LINE",
"711 700 LINE",
"142 700 LINE",
"2 0 LINE",
"584 0 LINE",
"620 178 LINE",
"269 178 LINE"
);
},
{
closed = 1;
nodes = (
"-50 -17 LINE",
"635 -17 LINE",
"635 73 LINE",
"-50 73 LINE"
);
}
);
width = 673;
},
{
anchors = (
{
name = bottom;
position = "{308, 0}";
},
{
name = ogonek;
position = "{563, 0}";
},
{
name = top;
position = "{438, 700}";
},
{
name = topleft;
position = "{106, 700}";
}
);
layerId = "C4221BDF-4AE8-4E40-821A-B2476087DE1A";
paths = (
{
closed = 1;
nodes = (
"214 307 LINE",
"568 307 LINE",
"587 404 LINE",
"233 404 LINE"
);
},
{
closed = 1;
nodes = (
"281 601 LINE",
"669 601 LINE",
"689 700 LINE",
"187 700 LINE",
"47 0 LINE",
"563 0 LINE",
"583 99 LINE",
"181 99 LINE"
);
},
{
closed = 1;
nodes = (
"-55 -10 LINE",
"625 -10 LINE",
"625 40 LINE",
"-55 40 LINE"
);
}
);
width = 670;
}
);
leftKerningGroup = H;
rightKerningGroup = E;
unicode = 0045;
},
{
glyphname = Eopen;
layers = (
{
anchors = (
{
name = bottom;
position = "{284, 0}";
},
{
name = top;
position = "{424, 700}";
}
);
layerId = UUID0;
paths = (
{
closed = 1;
nodes = (
"397 -3 OFFCURVE",
"502 33 OFFCURVE",
"557 91 CURVE",
"543 106 LINE",
"490 50 OFFCURVE",
"393 16 OFFCURVE",
"283 16 CURVE SMOOTH",
"144 16 OFFCURVE",
"68 71 OFFCURVE",
"68 172 CURVE SMOOTH",
"68 286 OFFCURVE",
"166 356 OFFCURVE",
"323 356 CURVE SMOOTH",
"475 356 LINE",
"479 375 LINE",
"326 375 LINE SMOOTH",
"226 375 OFFCURVE",
"166 421 OFFCURVE",
"166 502 CURVE SMOOTH",
"166 607 OFFCURVE",
"269 684 OFFCURVE",
"418 684 CURVE SMOOTH",
"495 684 OFFCURVE",
"561 664 OFFCURVE",
"619 620 CURVE",
"631 637 LINE",
"575 681 OFFCURVE",
"500 703 OFFCURVE",
"417 703 CURVE SMOOTH",
"255 703 OFFCURVE",
"146 618 OFFCURVE",
"146 501 CURVE SMOOTH",
"146 410 OFFCURVE",
"213 359 OFFCURVE",
"316 359 CURVE",
"314 372 LINE",
"153 372 OFFCURVE",
"48 295 OFFCURVE",
"48 171 CURVE SMOOTH",
"48 59 OFFCURVE",
"134 -3 OFFCURVE",
"283 -3 CURVE SMOOTH"
);
},
{
closed = 1;
nodes = (
"538 -3 LINE",
"538 16 LINE",
"-52 16 LINE",
"-52 -3 LINE"
);
}
);
width = 586;
},
{
anchors = (
{
name = bottom;
position = "{315, 0}";
},
{
name = top;
position = "{447, 700}";
}
);
layerId = "C4221BDF-4AE8-4E40-821A-B2476087DE1A";
paths = (
{
closed = 1;
nodes = (
"420 -10 OFFCURVE",
"533 19 OFFCURVE",
"612 71 CURVE",
"576 161 LINE",
"518 118 OFFCURVE",
"412 89 OFFCURVE",
"320 89 CURVE SMOOTH",
"229 89 OFFCURVE",
"152 118 OFFCURVE",
"152 191 CURVE SMOOTH",
"152 271 OFFCURVE",
"220 315 OFFCURVE",
"326 315 CURVE SMOOTH",
"503 315 LINE",
"523 407 LINE",
"360 407 LINE SMOOTH",
"286 407 OFFCURVE",
"246 437 OFFCURVE",
"246 490 CURVE SMOOTH",
"246 573 OFFCURVE",
"335 609 OFFCURVE",
"434 609 CURVE SMOOTH",
"507 609 OFFCURVE",
"585 590 OFFCURVE",
"637 554 CURVE",
"676 645 LINE",
"624 686 OFFCURVE",
"538 708 OFFCURVE",
"449 708 CURVE SMOOTH",
"294 708 OFFCURVE",
"131 640 OFFCURVE",
"131 489 CURVE SMOOTH",
"131 406 OFFCURVE",
"189 348 OFFCURVE",
"274 348 CURVE",
"275 382 LINE",
"138 382 OFFCURVE",
"37 298 OFFCURVE",
"37 178 CURVE SMOOTH",
"37 48 OFFCURVE",
"168 -10 OFFCURVE",
"316 -10 CURVE SMOOTH"
);
},
{
closed = 1;
nodes = (
"592 -10 LINE",
"592 40 LINE",
"-52 40 LINE",
"-52 -10 LINE"
);
}
);
width = 640;
},
{
anchors = (
{
name = bottom;
position = "{324, 0}";
},
{
name = top;
position = "{469, 700}";
}
);
layerId = "5DA6E103-6A94-47F2-987D-4952DB8EA68E";
paths = (
{
closed = 1;
nodes = (
"454 -16 OFFCURVE",
"569 9 OFFCURVE",
"645 48 CURVE",
"595 216 LINE",
"534 184 OFFCURVE",
"459 164 OFFCURVE",
"370 164 CURVE SMOOTH",
"283 164 OFFCURVE",
"246 183 OFFCURVE",
"246 217 CURVE SMOOTH",
"246 250 OFFCURVE",
"279 271 OFFCURVE",
"324 271 CURVE SMOOTH",
"534 271 LINE",
"569 441 LINE",
"398 441 LINE SMOOTH",
"347 441 OFFCURVE",
"328 454 OFFCURVE",
"328 478 CURVE SMOOTH",
"328 511 OFFCURVE",
"366 536 OFFCURVE",
"457 536 CURVE SMOOTH",
"512 536 OFFCURVE",
"588 527 OFFCURVE",
"654 498 CURVE",
"729 667 LINE",
"670 697 OFFCURVE",
"576 716 OFFCURVE",
"471 716 CURVE SMOOTH",
"240 716 OFFCURVE",
"92 623 OFFCURVE",
"92 486 CURVE SMOOTH",
"92 402 OFFCURVE",
"148 335 OFFCURVE",
"271 335 CURVE",
"276 387 LINE",
"120 387 OFFCURVE",
"4 309 OFFCURVE",
"4 185 CURVE SMOOTH",
"4 56 OFFCURVE",
"129 -16 OFFCURVE",
"333 -16 CURVE SMOOTH"
);
},
{
closed = 1;
nodes = (
"626 -17 LINE",
"626 73 LINE",
"-51 73 LINE",
"-51 -17 LINE"
);
}
);
width = 673;
}
);
leftKerningGroup = E.ss01;
rightKerningGroup = E;
unicode = 0190;
},
{
glyphname = Ereversed;
layers = (
{
anchors = (
{
name = bottom;
position = "{258, 0}";
},
{
name = top;
position = "{381, 700}";
}
);
layerId = UUID0;
paths = (
{
closed = 1;
nodes = (
"542 365 LINE",
"151 365 LINE",
"147 346 LINE",
"538 346 LINE"
);
},
{
closed = 1;
nodes = (
"468 19 LINE",
"37 19 LINE",
"33 0 LINE",
"484 0 LINE",
"624 700 LINE",
"158 700 LINE",
"154 681 LINE",
"600 681 LINE"
);
},
{
closed = 1;
nodes = (
"620 -3 LINE",
"620 16 LINE",
"-52 16 LINE",
"-52 -3 LINE"
);
}
);
width = 668;
},
{
anchors = (
{
name = bottom;
position = "{266, 0}";
},
{
name = top;
position = "{396, 700}";
}
);
layerId = "C4221BDF-4AE8-4E40-821A-B2476087DE1A";
paths = (
{
closed = 1;
nodes = (
"492 404 LINE",
"138 404 LINE",
"119 307 LINE",
"473 307 LINE"
);
},
{
closed = 1;
nodes = (
"423 99 LINE",
"21 99 LINE",
"1 0 LINE",
"517 0 LINE",
"657 700 LINE",
"155 700 LINE",
"135 601 LINE",
"523 601 LINE"
);
},
{
closed = 1;
nodes = (
"622 -10 LINE",
"622 40 LINE",
"-52 40 LINE",
"-52 -10 LINE"
);
}
);
width = 670;
},
{
anchors = (
{
name = bottom;
position = "{277, 0}";
},
{
name = top;
position = "{417, 700}";
}
);
layerId = "5DA6E103-6A94-47F2-987D-4952DB8EA68E";
paths = (
{
closed = 1;
nodes = (
"432 440 LINE",
"120 440 LINE",
"86 270 LINE",
"398 270 LINE"
);
},
{
closed = 1;
nodes = (
"366 178 LINE",
"29 178 LINE",
"-7 0 LINE",
"562 0 LINE",
"702 700 LINE",
"120 700 LINE",
"84 522 LINE",
"435 522 LINE"
);
},
{
closed = 1;
nodes = (
"626 -17 LINE",
"626 73 LINE",
"-51 73 LINE",
"-51 -17 LINE"
);
}
);
width = 673;
}
);
leftKerningGroup = "Ereversed-cy";
rightKerningGroup = H;
unicode = 018E;
},
{
glyphname = Esh;
layers = (
{
layerId = UUID0;
paths = (
{
closed = 1;
nodes = (
"116 -8 OFFCURVE",
"182 22 OFFCURVE",
"201 113 CURVE SMOOTH",
"299 586 LINE SMOOTH",
"315 664 OFFCURVE",
"369 689 OFFCURVE",
"421 684 CURVE SMOOTH",
"448 681 OFFCURVE",
"474 670 OFFCURVE",
"493 654 CURVE",
"506 672 LINE",
"484 689 OFFCURVE",
"456 700 OFFCURVE",
"426 703 CURVE SMOOTH",
"364 709 OFFCURVE",
"298 679 OFFCURVE",
"279 588 CURVE SMOOTH",
"181 115 LINE SMOOTH",
"165 37 OFFCURVE",
"111 12 OFFCURVE",
"59 17 CURVE SMOOTH",
"32 19 OFFCURVE",
"6 30 OFFCURVE",
"-13 46 CURVE",
"-25 28 LINE",
"-4 12 OFFCURVE",
"24 1 OFFCURVE",
"54 -2 CURVE SMOOTH"
);
},
{
closed = 1;
nodes = (
"395 -3 LINE",
"395 16 LINE",
"-52 16 LINE",
"-52 -3 LINE"
);
}
);
width = 443;
},
{
layerId = "C4221BDF-4AE8-4E40-821A-B2476087DE1A";
paths = (
{
closed = 1;
nodes = (
"164 -15 OFFCURVE",
"271 22 OFFCURVE",
"296 152 CURVE SMOOTH",
"370 537 LINE SMOOTH",
"381 593 OFFCURVE",
"422 613 OFFCURVE",
"463 609 CURVE SMOOTH",
"486 607 OFFCURVE",
"510 597 OFFCURVE",
"527 581 CURVE",
"581 668 LINE",
"559 689 OFFCURVE",
"521 704 OFFCURVE",
"479 709 CURVE SMOOTH",
"390 718 OFFCURVE",
"280 678 OFFCURVE",
"256 549 CURVE SMOOTH",
"183 164 LINE SMOOTH",
"172 108 OFFCURVE",
"130 88 OFFCURVE",
"89 92 CURVE SMOOTH",
"66 94 OFFCURVE",
"42 104 OFFCURVE",
"25 120 CURVE",
"-29 35 LINE",
"-6 13 OFFCURVE",
"33 -2 OFFCURVE",
"76 -7 CURVE SMOOTH"
);
},
{
closed = 1;
nodes = (
"470 -10 LINE",
"470 40 LINE",
"-52 40 LINE",
"-52 -10 LINE"
);
}
);
width = 518;
},
{
layerId = "5DA6E103-6A94-47F2-987D-4952DB8EA68E";
paths = (
{
closed = 1;
nodes = (
"224 -24 OFFCURVE",
"358 25 OFFCURVE",
"399 211 CURVE SMOOTH",
"456 470 LINE SMOOTH",
"463 504 OFFCURVE",
"481 525 OFFCURVE",
"513 521 CURVE SMOOTH",
"528 520 OFFCURVE",
"547 513 OFFCURVE",
"567 499 CURVE",
"651 659 LINE",
"621 686 OFFCURVE",
"568 707 OFFCURVE",
"509 713 CURVE SMOOTH",
"393 724 OFFCURVE",
"259 675 OFFCURVE",
"218 489 CURVE SMOOTH",
"161 230 LINE SMOOTH",
"154 196 OFFCURVE",
"136 176 OFFCURVE",
"104 179 CURVE SMOOTH",
"89 180 OFFCURVE",
"70 187 OFFCURVE",
"50 201 CURVE",
"-34 41 LINE",
"-4 14 OFFCURVE",
"49 -7 OFFCURVE",
"108 -12 CURVE SMOOTH"
);
},
{
closed = 1;
nodes = (
"540 -17 LINE",
"540 73 LINE",
"-51 73 LINE",
"-51 -17 LINE"
);
}
);
width = 587;
}
);
leftKerningGroup = Esh;
rightKerningGroup = Esh;
unicode = 01A9;
},
{
glyphname = Estroke;
layers = (
{
anchors = (
{
name = bottom;
position = "{324, 0}";
},
{
name = ogonek;
position = "{547, 0}";
},
{
name = top;
position = "{447, 700}";
},
{
name = topleft;
position = "{129, 700}";
}
);
layerId = UUID0;
paths = (
{
closed = 1;
nodes = (
"104 -70 LINE",
"662 770 LINE",
"639 770 LINE",
"81 -70 LINE"
);
},
{
closed = 1;
nodes = (
"547 0 LINE",
"551 19 LINE",
"105 19 LINE",
"237 681 LINE",
"668 681 LINE",
"672 700 LINE",
"221 700 LINE",
"81 0 LINE"
);
},
{
closed = 1;
nodes = (
"556 346 LINE",
"560 365 LINE",
"169 365 LINE",
"165 346 LINE"
);
},
{
closed = 1;
nodes = (
"620 -3 LINE",
"620 16 LINE",
"-52 16 LINE",
"-52 -3 LINE"
);
}
);
width = 668;
},
{
anchors = (
{
name = bottom;
position = "{308, 0}";
},
{
name = ogonek;
position = "{563, 0}";
},
{
name = top;
position = "{439, 700}";
},
{
name = topleft;
position = "{106, 700}";
}
);
layerId = "C4221BDF-4AE8-4E40-821A-B2476087DE1A";
paths = (
{
closed = 1;
nodes = (
"163 -70 LINE",
"708 770 LINE",
"616 770 LINE",
"70 -70 LINE"
);
},
{
closed = 1;
nodes = (
"563 0 LINE",
"583 99 LINE",
"181 99 LINE",
"281 601 LINE",
"669 601 LINE",
"689 700 LINE",
"187 700 LINE",
"47 0 LINE"
);
},
{
closed = 1;
nodes = (
"567 307 LINE",
"587 404 LINE",
"233 404 LINE",
"213 307 LINE"
);
},
{
closed = 1;
nodes = (
"622 -10 LINE",
"622 40 LINE",
"-52 40 LINE",
"-52 -10 LINE"
);
}
);
width = 670;
},
{
anchors = (
{
name = bottom;
position = "{287, 0}";
},
{
name = ogonek;
position = "{584, 0}";
},
{
name = top;
position = "{427, 700}";
},
{
name = topleft;
position = "{76, 700}";
}
);
layerId = "5DA6E103-6A94-47F2-987D-4952DB8EA68E";
paths = (
{
closed = 1;
nodes = (
"209 -70 LINE",
"773 770 LINE",
"659 770 LINE",
"95 -70 LINE"
);
},
{
closed = 1;
nodes = (
"584 0 LINE",
"620 178 LINE",
"270 178 LINE",
"339 522 LINE",
"676 522 LINE",
"711 700 LINE",
"142 700 LINE",
"2 0 LINE"
);
},
{
closed = 1;
nodes = (
"584 270 LINE",
"618 440 LINE",
"306 440 LINE",
"272 270 LINE"
);
},
{
closed = 1;
nodes = (
"632 -17 LINE",
"632 73 LINE",
"-51 73 LINE",
"-51 -17 LINE"
);
}
);
width = 679;
}
);
leftKerningGroup = H;
rightKerningGroup = E;
unicode = 0246;
},
{
glyphname = Schwa;
layers = (
{
anchors = (
{
name = bottom;
position = "{357, 0}";
},
{
name = top;
position = "{497, 700}";
}
);
layerId = UUID0;
paths = (
{
closed = 1;
nodes = (
"624 -3 OFFCURVE",
"782 196 OFFCURVE",
"782 420 CURVE SMOOTH",
"782 589 OFFCURVE",
"671 703 OFFCURVE",
"477 703 CURVE SMOOTH",
"372 703 OFFCURVE",
"277 668 OFFCURVE",
"222 616 CURVE",
"234 602 LINE",
"290 653 OFFCURVE",
"372 684 OFFCURVE",
"475 684 CURVE SMOOTH",
"661 684 OFFCURVE",
"762 577 OFFCURVE",
"762 420 CURVE SMOOTH",
"762 201 OFFCURVE",
"607 16 OFFCURVE",
"378 16 CURVE SMOOTH",
"200 16 OFFCURVE",
"89 120 OFFCURVE",
"89 275 CURVE SMOOTH",
"89 300 OFFCURVE",
"92 324 OFFCURVE",
"98 350 CURVE",
"87 341 LINE",
"758 341 LINE",
"762 360 LINE",
"79 360 LINE",
"73 327 OFFCURVE",
"69 301 OFFCURVE",
"69 274 CURVE SMOOTH",
"69 112 OFFCURVE",
"183 -3 OFFCURVE",
"376 -3 CURVE SMOOTH"
);
},
{
closed = 1;
nodes = (
"770 -3 LINE",
"770 16 LINE",
"-54 16 LINE",
"-54 -3 LINE"
);
}
);
width = 816;
},
{
anchors = (
{
name = bottom;
position = "{354, 0}";
},
{
name = top;
position = "{494, 700}";
}
);
layerId = "5DA6E103-6A94-47F2-987D-4952DB8EA68E";
paths = (
{
closed = 1;
nodes = (
"623 -16 OFFCURVE",
"804 138 OFFCURVE",
"804 393 CURVE SMOOTH",
"804 587 OFFCURVE",
"657 716 OFFCURVE",
"440 716 CURVE SMOOTH",
"322 716 OFFCURVE",
"207 678 OFFCURVE",
"119 604 CURVE",
"228 451 LINE",
"286 500 OFFCURVE",
"352 525 OFFCURVE",
"422 525 CURVE SMOOTH",
"511 525 OFFCURVE",
"567 474 OFFCURVE",
"567 391 CURVE SMOOTH",
"567 318 OFFCURVE",
"542 157 OFFCURVE",
"400 157 CURVE SMOOTH",
"307 157 OFFCURVE",
"270 212 OFFCURVE",
"270 268 CURVE SMOOTH",
"270 284 OFFCURVE",
"272 298 OFFCURVE",
"276 312 CURVE",
"190 268 LINE",
"575 268 LINE",
"601 398 LINE",
"54 398 LINE",
"43 355 OFFCURVE",
"38 314 OFFCURVE",
"38 284 CURVE SMOOTH",
"38 109 OFFCURVE",
"180 -16 OFFCURVE",
"393 -16 CURVE SMOOTH"
);
},
{
closed = 1;
nodes = (
"770 -17 LINE",
"770 73 LINE",
"-50 73 LINE",
"-50 -17 LINE"
);
}
);
width = 818;
},
{
anchors = (
{
name = bottom;
position = "{357, 0}";
},
{
name = top;
position = "{497, 700}";
}
);
color = 3;
layerId = "C4221BDF-4AE8-4E40-821A-B2476087DE1A";
paths = (
{
closed = 1;
nodes = (
"629 -9 OFFCURVE",
"793 177 OFFCURVE",
"793 412 CURVE SMOOTH",
"793 588 OFFCURVE",
"675 709 OFFCURVE",
"464 709 CURVE SMOOTH",
"351 709 OFFCURVE",
"247 675 OFFCURVE",
"176 612 CURVE",
"232 528 LINE",
"289 579 OFFCURVE",
"371 607 OFFCURVE",
"455 607 CURVE SMOOTH",
"604 607 OFFCURVE",
"678 525 OFFCURVE",
"678 405 CURVE SMOOTH",
"678 236 OFFCURVE",
"565 90 OFFCURVE",
"389 90 CURVE SMOOTH",
"246 90 OFFCURVE",
"167 165 OFFCURVE",
"167 295 CURVE SMOOTH",
"167 315 OFFCURVE",
"169 321 OFFCURVE",
"171 342 CURVE",
"129 289 LINE",
"676 289 LINE",
"695 386 LINE",
"68 386 LINE",
"58 341 OFFCURVE",
"55 316 OFFCURVE",
"55 288 CURVE SMOOTH",
"55 112 OFFCURVE",
"177 -9 OFFCURVE",
"378 -9 CURVE SMOOTH"
);
},
{
closed = 1;
nodes = (
"772 -10 LINE",
"772 40 LINE",
"-55 40 LINE",
"-55 -10 LINE"
);
}
);
width = 817;
}
);
leftKerningGroup = O;
rightKerningGroup = O;
unicode = 018F;
},
{
glyphname = Ezhreversed;
layers = (
{
anchors = (
{
name = bottom;
position = "{259, 0}";
},
{
name = top;
position = "{399, 700}";
}
);
layerId = UUID0;
paths = (
{
closed = 1;
nodes = (
"402 -3 OFFCURVE",
"488 38 OFFCURVE",
"544 96 CURVE",
"533 109 LINE",
"481 57 OFFCURVE",
"404 16 OFFCURVE",
"292 16 CURVE SMOOTH",
"147 16 OFFCURVE",
"62 105 OFFCURVE",
"84 212 CURVE SMOOTH",
"105 319 OFFCURVE",
"195 368 OFFCURVE",
"358 368 CURVE SMOOTH",
"398 368 LINE",
"401 383 LINE",
"213 688 LINE",
"209 681 LINE",
"637 681 LINE",
"641 700 LINE",
"193 700 LINE",
"190 685 LINE",
"378 380 LINE",
"379 387 LINE",
"363 387 LINE SMOOTH",
"188 387 OFFCURVE",
"87 332 OFFCURVE",
"64 216 CURVE SMOOTH",
"41 100 OFFCURVE",
"131 -3 OFFCURVE",
"289 -3 CURVE SMOOTH"
);
},
{
closed = 1;
nodes = (
"572 -3 LINE",
"572 16 LINE",
"-52 16 LINE",
"-52 -3 LINE"
);
}
);
width = 620;
},
{
anchors = (
{
name = bottom;
position = "{270, 0}";
},
{
name = top;
position = "{410, 700}";
}
);
layerId = "C4221BDF-4AE8-4E40-821A-B2476087DE1A";
paths = (
{
closed = 1;
nodes = (
"400 -9 OFFCURVE",
"499 22 OFFCURVE",
"567 72 CURVE",
"545 164 LINE",
"485 120 OFFCURVE",
"396 91 OFFCURVE",
"306 91 CURVE SMOOTH",
"196 91 OFFCURVE",
"142 145 OFFCURVE",
"156 218 CURVE SMOOTH",
"170 287 OFFCURVE",
"225 321 OFFCURVE",
"347 321 CURVE SMOOTH",
"424 321 LINE",
"442 409 LINE",
"264 655 LINE",
"243 603 LINE",
"646 603 LINE",
"666 700 LINE",
"176 700 LINE",
"160 622 LINE",
"337 376 LINE",
"390 410 LINE",
"354 410 LINE SMOOTH",
"175 410 OFFCURVE",
"68 347 OFFCURVE",
"44 228 CURVE SMOOTH",
"21 109 OFFCURVE",
"102 -9 OFFCURVE",
"293 -9 CURVE SMOOTH"
);
},
{
closed = 1;
nodes = (
"597 -10 LINE",
"597 40 LINE",
"-52 40 LINE",
"-52 -10 LINE"
);
}
);
width = 645;
},
{
anchors = (
{
name = bottom;
position = "{279, 0}";
},
{
name = top;
position = "{419, 700}";
}
);
layerId = "5DA6E103-6A94-47F2-987D-4952DB8EA68E";
paths = (
{
closed = 1;
nodes = (
"411 -16 OFFCURVE",
"515 5 OFFCURVE",
"600 47 CURVE",
"559 221 LINE",
"489 186 OFFCURVE",
"410 170 OFFCURVE",
"348 170 CURVE SMOOTH",
"288 170 OFFCURVE",
"250 192 OFFCURVE",
"257 228 CURVE SMOOTH",
"263 258 OFFCURVE",
"295 272 OFFCURVE",
"360 272 CURVE SMOOTH",
"458 272 LINE",
"487 417 LINE",
"328 601 LINE",
"292 522 LINE",
"662 522 LINE",
"697 700 LINE",
"154 700 LINE",
"125 555 LINE",
"283 371 LINE",
"405 435 LINE",
"343 435 LINE SMOOTH",
"159 435 OFFCURVE",
"44 371 OFFCURVE",
"19 249 CURVE SMOOTH",
"-5 127 OFFCURVE",
"80 -16 OFFCURVE",
"313 -16 CURVE SMOOTH"
);
},
{
closed = 1;
nodes = (
"618 -17 LINE",
"618 73 LINE",
"-51 73 LINE",
"-51 -17 LINE"
);
}
);
width = 665;
}
);
leftKerningGroup = E.ss01;
rightKerningGroup = E;
unicode = 01B8;
},
{
glyphname = F;
layers = (
{
layerId = UUID0;
paths = (
{
closed = 1;
nodes = (
"161 326 LINE",
"552 326 LINE",
"556 345 LINE",
"165 345 LINE"
);
},
{
closed = 1;
nodes = (
"237 681 LINE",
"668 681 LINE",
"672 700 LINE",
"221 700 LINE",
"81 0 LINE",
"101 0 LINE"
);
},
{
closed = 1;
nodes = (
"-54 -3 LINE",
"583 -3 LINE",
"583 16 LINE",
"-54 16 LINE"
);
}
);
width = 629;
},
{
layerId = "5DA6E103-6A94-47F2-987D-4952DB8EA68E";
paths = (
{
closed = 1;
nodes = (
"267 224 LINE",
"574 224 LINE",
"610 402 LINE",
"302 402 LINE"
);
},
{
closed = 1;
nodes = (
"342 522 LINE",
"675 522 LINE",
"711 700 LINE",
"142 700 LINE",
"2 0 LINE",
"238 0 LINE"
);
},
{
closed = 1;
nodes = (
"-50 -17 LINE",
"601 -17 LINE",
"601 73 LINE",
"-50 73 LINE"
);
}
);
width = 644;
},
{
layerId = "C4221BDF-4AE8-4E40-821A-B2476087DE1A";
paths = (
{
closed = 1;
nodes = (
"206 275 LINE",
"561 275 LINE",
"581 374 LINE",
"226 374 LINE"
);
},
{
closed = 1;
nodes = (
"281 601 LINE",
"669 601 LINE",
"689 700 LINE",
"187 700 LINE",
"47 0 LINE",
"161 0 LINE"
);
},
{
closed = 1;
nodes = (
"-55 -10 LINE",
"591 -10 LINE",
"591 40 LINE",
"-55 40 LINE"
);
}
);
width = 636;
}
);
leftKerningGroup = H;
rightKerningGroup = F;
unicode = 0046;
},
{
glyphname = Fhook;
layers = (
{
layerId = UUID0;
paths = (
{
closed = 1;
nodes = (
"-42 -226 OFFCURVE",
"72 -178 OFFCURVE",
"92 -78 CURVE SMOOTH",
"243 681 LINE",
"674 681 LINE",
"678 700 LINE",
"227 700 LINE",
"72 -74 LINE SMOOTH",
"55 -161 OFFCURVE",
"-41 -202 OFFCURVE",
"-113 -160 CURVE",
"-122 -178 LINE"
);
},
{
closed = 1;
nodes = (
"558 326 LINE",
"562 345 LINE",
"171 345 LINE",
"167 326 LINE"
);
},
{
closed = 1;
nodes = (
"569 -3 LINE",
"569 16 LINE",
"-52 16 LINE",
"-52 -3 LINE"
);
}
);
width = 617;
},
{
layerId = "C4221BDF-4AE8-4E40-821A-B2476087DE1A";
paths = (
{
closed = 1;
nodes = (
"0 -236 OFFCURVE",
"131 -178 OFFCURVE",
"156 -51 CURVE SMOOTH",
"286 601 LINE",
"674 601 LINE",
"694 700 LINE",
"192 700 LINE",
"45 -32 LINE SMOOTH",
"32 -98 OFFCURVE",
"-11 -119 OFFCURVE",
"-81 -94 CURVE",
"-118 -181 LINE"
);
},
{
closed = 1;
nodes = (
"566 275 LINE",
"586 374 LINE",
"231 374 LINE",
"211 275 LINE"
);
},
{
closed = 1;
nodes = (
"591 -10 LINE",
"591 40 LINE",
"-52 40 LINE",
"-52 -10 LINE"
);
}
);
width = 639;
},
{
layerId = "5DA6E103-6A94-47F2-987D-4952DB8EA68E";
paths = (
{
closed = 1;
nodes = (
"54 -257 OFFCURVE",
"204 -193 OFFCURVE",
"243 0 CURVE SMOOTH",
"347 522 LINE",
"680 522 LINE",
"715 700 LINE",
"146 700 LINE",
"11 23 LINE SMOOTH",
"1 -28 OFFCURVE",
"-29 -39 OFFCURVE",
"-101 -16 CURVE",
"-158 -172 LINE"
);
},
{
closed = 1;
nodes = (
"579 224 LINE",
"615 402 LINE",
"307 402 LINE",
"271 224 LINE"
);
},
{
closed = 1;
nodes = (
"606 -17 LINE",
"606 73 LINE",
"-51 73 LINE",
"-51 -17 LINE"
);
}
);
width = 653;
}
);
leftKerningGroup = j;
rightKerningGroup = F;
unicode = 0191;
},
{
glyphname = G;
layers = (
{
anchors = (
{
name = bottom;
position = "{350, 0}";
},
{
name = top;
position = "{490, 699}";
}
);
layerId = UUID0;
paths = (
{
closed = 1;
nodes = (
"483 -3 OFFCURVE",
"569 33 OFFCURVE",
"628 87 CURVE",
"618 102 LINE",
"556 48 OFFCURVE",
"483 16 OFFCURVE",
"388 16 CURVE SMOOTH",
"192 16 OFFCURVE",
"91 123 OFFCURVE",
"91 280 CURVE SMOOTH",
"91 499 OFFCURVE",
"246 684 OFFCURVE",
"490 684 CURVE SMOOTH",
"593 684 OFFCURVE",
"670 656 OFFCURVE",
"718 601 CURVE",
"732 614 LINE",
"685 670 OFFCURVE",
"599 703 OFFCURVE",
"492 703 CURVE SMOOTH",
"229 703 OFFCURVE",
"71 504 OFFCURVE",
"71 280 CURVE SMOOTH",
"71 111 OFFCURVE",
"182 -3 OFFCURVE",
"386 -3 CURVE SMOOTH"
);
},
{
closed = 1;
nodes = (
"628 87 LINE",
"679 343 LINE",
"660 343 LINE",
"609 87 LINE"
);
},
{
closed = 1;
nodes = (
"-54 -3 LINE",
"728 -3 LINE",
"728 16 LINE",
"-54 16 LINE"
);
}
);
width = 774;
},
{
anchors = (
{
name = bottom;
position = "{355, 0}";
},
{
name = top;
position = "{509, 701}";
}
);
layerId = "5DA6E103-6A94-47F2-987D-4952DB8EA68E";
paths = (
{
closed = 1;
nodes = (
"511 -16 OFFCURVE",
"610 14 OFFCURVE",
"684 67 CURVE",
"595 235 LINE",
"539 191 OFFCURVE",
"486 175 OFFCURVE",
"433 175 CURVE SMOOTH",
"336 175 OFFCURVE",
"279 230 OFFCURVE",
"279 312 CURVE SMOOTH",
"279 437 OFFCURVE",
"357 525 OFFCURVE",
"480 525 CURVE SMOOTH",
"546 525 OFFCURVE",
"595 506 OFFCURVE",
"640 448 CURVE",
"809 579 LINE",
"743 669 OFFCURVE",
"638 716 OFFCURVE",
"491 716 CURVE SMOOTH",
"224 716 OFFCURVE",
"41 543 OFFCURVE",
"41 297 CURVE SMOOTH",
"41 111 OFFCURVE",
"183 -16 OFFCURVE",
"400 -16 CURVE SMOOTH"
);
},
{
closed = 1;
nodes = (
"684 67 LINE",
"744 369 LINE",
"539 369 LINE",
"486 103 LINE"
);
},
{
closed = 1;
nodes = (
"-50 -17 LINE",
"731 -17 LINE",
"731 73 LINE",
"-50 73 LINE"
);
}
);
width = 769;
},
{
anchors = (
{
name = bottom;
position = "{352, 0}";
},
{
name = top;
position = "{498, 700}";
}
);
color = 3;
layerId = "C4221BDF-4AE8-4E40-821A-B2476087DE1A";
paths = (
{
closed = 1;
nodes = (
"490 -9 OFFCURVE",
"584 22 OFFCURVE",
"653 77 CURVE",
"608 170 LINE",
"549 119 OFFCURVE",
"484 93 OFFCURVE",
"408 93 CURVE SMOOTH",
"252 93 OFFCURVE",
"173 175 OFFCURVE",
"173 295 CURVE SMOOTH",
"173 469 OFFCURVE",
"295 607 OFFCURVE",
"486 607 CURVE SMOOTH",
"573 607 OFFCURVE",
"637 583 OFFCURVE",
"684 527 CURVE",
"766 597 LINE",
"710 669 OFFCURVE",
"616 709 OFFCURVE",
"491 709 CURVE SMOOTH",
"227 709 OFFCURVE",
"58 523 OFFCURVE",
"58 288 CURVE SMOOTH",
"58 111 OFFCURVE",
"187 -9 OFFCURVE",
"395 -9 CURVE SMOOTH"
);
},
{
closed = 1;
nodes = (
"653 77 LINE",
"709 356 LINE",
"599 356 LINE",
"547 95 LINE"
);
},
{
closed = 1;
nodes = (
"-55 -10 LINE",
"727 -10 LINE",
"727 40 LINE",
"-55 40 LINE"
);
}
);
width = 772;
}
);
leftKerningGroup = O;
rightKerningGroup = G;
unicode = 0047;
},
{
glyphname = Ghook;
layers = (
{
anchors = (
{
name = bottom;
position = "{406, 0}";
},
{
name = top;
position = "{546, 699}";
}
);
layerId = UUID0;
paths = (
{
closed = 1;
nodes = (
"499 -3 OFFCURVE",
"585 33 OFFCURVE",
"644 87 CURVE",
"634 102 LINE",
"572 48 OFFCURVE",
"499 16 OFFCURVE",
"404 16 CURVE SMOOTH",
"208 16 OFFCURVE",
"107 123 OFFCURVE",
"107 280 CURVE SMOOTH",
"107 499 OFFCURVE",
"262 684 OFFCURVE",
"506 684 CURVE SMOOTH",
"609 684 OFFCURVE",
"686 656 OFFCURVE",
"734 601 CURVE",
"748 614 LINE",
"701 670 OFFCURVE",
"615 703 OFFCURVE",
"508 703 CURVE SMOOTH",
"245 703 OFFCURVE",
"87 504 OFFCURVE",
"87 280 CURVE SMOOTH",
"87 111 OFFCURVE",
"198 -3 OFFCURVE",
"402 -3 CURVE SMOOTH"
);
},
{
closed = 1;
nodes = (
"695 343 LINE",
"676 343 LINE",
"626 91 LINE",
"644 87 LINE"
);
},
{
closed = 1;
nodes = (
"748 614 LINE",
"762 684 LINE SMOOTH",
"779 771 OFFCURVE",
"845 809 OFFCURVE",
"911 769 CURVE",
"920 786 LINE",
"848 829 OFFCURVE",
"763 794 OFFCURVE",
"742 686 CURVE SMOOTH",
"728 614 LINE"
);
},
{
closed = 1;
nodes = (
"737 -3 LINE",
"737 16 LINE",
"-52 16 LINE",
"-52 -3 LINE"
);
}
);
width = 785;
},
{
anchors = (
{
name = bottom;
position = "{378, 0}";
},
{
name = top;
position = "{525, 700}";
}
);
guideLines = (
{
position = "{741, 862}";
}
);
layerId = "C4221BDF-4AE8-4E40-821A-B2476087DE1A";
paths = (
{
closed = 1;
nodes = (
"496 -9 OFFCURVE",
"590 22 OFFCURVE",
"659 77 CURVE",
"614 170 LINE",
"555 119 OFFCURVE",
"490 93 OFFCURVE",
"414 93 CURVE SMOOTH",
"258 93 OFFCURVE",
"179 175 OFFCURVE",
"179 295 CURVE SMOOTH",
"179 469 OFFCURVE",
"301 607 OFFCURVE",
"492 607 CURVE SMOOTH",
"579 607 OFFCURVE",
"643 583 OFFCURVE",
"690 527 CURVE",
"772 596 LINE",
"716 668 OFFCURVE",
"622 709 OFFCURVE",
"497 709 CURVE SMOOTH",
"233 709 OFFCURVE",
"64 523 OFFCURVE",
"64 288 CURVE SMOOTH",
"64 111 OFFCURVE",
"193 -9 OFFCURVE",
"401 -9 CURVE SMOOTH"
);
},
{
closed = 1;
nodes = (
"715 356 LINE",
"605 356 LINE",
"553 95 LINE",
"659 77 LINE"
);
},
{
closed = 1;
nodes = (
"772 596 LINE",
"782 650 LINE SMOOTH",
"795 718 OFFCURVE",
"846 749 OFFCURVE",
"904 733 CURVE",
"930 820 LINE",
"833 855 OFFCURVE",
"704 798 OFFCURVE",
"681 672 CURVE SMOOTH",
"667 596 LINE"
);
},
{
closed = 1;
nodes = (
"732 -10 LINE",
"732 40 LINE",
"-52 40 LINE",
"-52 -10 LINE"
);
}
);
width = 780;
},
{
anchors = (
{
name = bottom;
position = "{353, 0}";
},
{
name = top;
position = "{507, 701}";
}
);
guideLines = (
{
position = "{724, 862}";
}
);
layerId = "5DA6E103-6A94-47F2-987D-4952DB8EA68E";
paths = (
{
closed = 1;
nodes = (
"511 -16 OFFCURVE",
"610 14 OFFCURVE",
"684 67 CURVE",
"595 235 LINE",
"539 191 OFFCURVE",
"486 175 OFFCURVE",
"433 175 CURVE SMOOTH",
"336 175 OFFCURVE",
"279 230 OFFCURVE",
"279 312 CURVE SMOOTH",
"279 437 OFFCURVE",
"357 525 OFFCURVE",
"480 525 CURVE SMOOTH",
"546 525 OFFCURVE",
"595 506 OFFCURVE",
"640 448 CURVE",
"809 579 LINE",
"743 669 OFFCURVE",
"638 716 OFFCURVE",
"491 716 CURVE SMOOTH",
"224 716 OFFCURVE",
"41 543 OFFCURVE",
"41 297 CURVE SMOOTH",
"41 111 OFFCURVE",
"183 -16 OFFCURVE",
"400 -16 CURVE SMOOTH"
);
},
{
closed = 1;
nodes = (
"744 369 LINE",
"539 369 LINE",
"486 103 LINE",
"684 67 LINE"
);
},
{
closed = 1;
nodes = (
"809 579 LINE",
"818 637 LINE SMOOTH",
"825 682 OFFCURVE",
"859 701 OFFCURVE",
"903 687 CURVE",
"961 838 LINE",
"791 895 OFFCURVE",
"669 822 OFFCURVE",
"647 684 CURVE SMOOTH",
"630 579 LINE"
);
},
{
closed = 1;
nodes = (
"776 -17 LINE",
"776 73 LINE",
"-51 73 LINE",
"-51 -17 LINE"
);
}
);
width = 823;
}
);
leftKerningGroup = O;
rightKerningGroup = G;
unicode = 0193;
},
{
glyphname = Glottalstop;
layers = (
{
anchors = (
{
name = bottom;
position = "{240, 0}";
},
{
name = top;
position = "{380, 700}";
}
);
layerId = UUID0;
paths = (
{
closed = 1;
nodes = (
"250 0 LINE",
"279 143 LINE SMOOTH",
"318 338 OFFCURVE",
"560 316 OFFCURVE",
"600 512 CURVE SMOOTH",
"627 649 OFFCURVE",
"516 703 OFFCURVE",
"389 703 CURVE SMOOTH",
"281 703 OFFCURVE",
"163 665 OFFCURVE",
"91 583 CURVE",
"103 570 LINE",
"171 648 OFFCURVE",
"283 684 OFFCURVE",
"385 684 CURVE SMOOTH",
"501 684 OFFCURVE",
"605 637 OFFCURVE",
"580 512 CURVE SMOOTH",
"542 326 OFFCURVE",
"301 354 OFFCURVE",
"259 143 CURVE SMOOTH",
"230 0 LINE"
);
},
{
closed = 1;
nodes = (
"555 -3 LINE",
"555 16 LINE",
"-52 16 LINE",
"-52 -3 LINE"
);
}
);
width = 603;
},
{
anchors = (
{
name = bottom;
position = "{192, 0}";
},
{
name = top;
position = "{332, 700}";
}
);
layerId = "C4221BDF-4AE8-4E40-821A-B2476087DE1A";
paths = (
{
closed = 1;
nodes = (
"248 0 LINE",
"279 154 LINE SMOOTH",
"308 299 OFFCURVE",
"560 289 OFFCURVE",
"599 487 CURVE SMOOTH",
"629 635 OFFCURVE",
"501 709 OFFCURVE",
"350 709 CURVE SMOOTH",
"231 709 OFFCURVE",
"109 663 OFFCURVE",
"23 571 CURVE",
"101 506 LINE",
"160 578 OFFCURVE",
"251 610 OFFCURVE",
"331 610 CURVE SMOOTH",
"420 610 OFFCURVE",
"501 571 OFFCURVE",
"484 486 CURVE SMOOTH",
"455 342 OFFCURVE",
"207 364 OFFCURVE",
"166 160 CURVE SMOOTH",
"134 0 LINE"
);
},
{
closed = 1;
nodes = (
"517 -10 LINE",
"517 40 LINE",
"-52 40 LINE",
"-52 -10 LINE"
);
}
);
width = 565;
},
{
anchors = (
{
name = bottom;
position = "{306, 0}";
},
{
name = top;
position = "{456, 700}";
}
);
layerId = "5DA6E103-6A94-47F2-987D-4952DB8EA68E";
paths = (
{
closed = 1;
nodes = (
"424 0 LINE",
"456 159 LINE SMOOTH",
"481 284 OFFCURVE",
"676 284 OFFCURVE",
"714 472 CURVE SMOOTH",
"748 643 OFFCURVE",
"599 716 OFFCURVE",
"435 716 CURVE SMOOTH",
"291 716 OFFCURVE",
"135 659 OFFCURVE",
"64 553 CURVE",
"224 464 LINE",
"269 512 OFFCURVE",
"329 534 OFFCURVE",
"380 534 CURVE SMOOTH",
"438 534 OFFCURVE",
"483 505 OFFCURVE",
"474 457 CURVE SMOOTH",
"455 363 OFFCURVE",
"263 373 OFFCURVE",
"225 181 CURVE SMOOTH",
"188 0 LINE"
);
},
{
closed = 1;
nodes = (
"648 -17 LINE",
"648 73 LINE",
"-51 73 LINE",
"-51 -17 LINE"
);
}
);
width = 695;
}
);
leftKerningGroup = question;
rightKerningGroup = question;
unicode = 0241;
},
{
color = 8;
glyphname = Gstroke;
layers = (
{
anchors = (
{
name = _center;
position = "{594, 234}";
},
{
name = bottom;
position = "{350, 0}";
},
{
name = top;
position = "{490, 699}";
}
);
guideLines = (
{
angle = 90;
position = "{431, 328}";
}
);
layerId = UUID0;
paths = (
{
closed = 1;
nodes = (
"483 -3 OFFCURVE",
"569 33 OFFCURVE",
"628 87 CURVE",
"618 102 LINE",
"556 48 OFFCURVE",
"483 16 OFFCURVE",
"388 16 CURVE SMOOTH",
"192 16 OFFCURVE",
"91 123 OFFCURVE",
"91 280 CURVE SMOOTH",
"91 499 OFFCURVE",
"246 684 OFFCURVE",
"490 684 CURVE SMOOTH",
"593 684 OFFCURVE",
"670 656 OFFCURVE",
"718 601 CURVE",
"732 614 LINE",
"685 670 OFFCURVE",
"599 703 OFFCURVE",
"492 703 CURVE SMOOTH",
"229 703 OFFCURVE",
"71 504 OFFCURVE",
"71 280 CURVE SMOOTH",
"71 111 OFFCURVE",
"182 -3 OFFCURVE",
"386 -3 CURVE SMOOTH"
);
},
{
closed = 1;
nodes = (
"758 -3 LINE",
"758 16 LINE",
"-54 16 LINE",
"-54 -3 LINE"
);
},
{
closed = 1;
nodes = (
"772 224 LINE",
"776 243 LINE",
"416 243 LINE",
"412 224 LINE"
);
},
{
closed = 1;
nodes = (
"679 343 LINE",
"660 343 LINE",
"609 87 LINE",
"628 87 LINE"
);
}
);
width = 804;
},
{
anchors = (
{
name = _center;
position = "{594.96, 271.88}";
},
{
name = bottom;
position = "{355, 0}";
},
{
name = top;
position = "{509, 701}";
}
);
guideLines = (
{
angle = 90;
position = "{400, 328}";
}
);
layerId = "5DA6E103-6A94-47F2-987D-4952DB8EA68E";
paths = (
{
closed = 1;
nodes = (
"511 -16 OFFCURVE",
"610 14 OFFCURVE",
"684 67 CURVE",
"595 235 LINE",
"539 191 OFFCURVE",
"486 175 OFFCURVE",
"433 175 CURVE SMOOTH",
"336 175 OFFCURVE",
"279 230 OFFCURVE",
"279 312 CURVE SMOOTH",
"279 437 OFFCURVE",
"357 525 OFFCURVE",
"480 525 CURVE SMOOTH",
"546 525 OFFCURVE",
"595 506 OFFCURVE",
"640 448 CURVE",
"809 579 LINE",
"743 669 OFFCURVE",
"638 716 OFFCURVE",
"491 716 CURVE SMOOTH",
"224 716 OFFCURVE",
"41 543 OFFCURVE",
"41 297 CURVE SMOOTH",
"41 111 OFFCURVE",
"183 -16 OFFCURVE",
"400 -16 CURVE SMOOTH"
);
},
{
closed = 1;
nodes = (
"768 -17 LINE",
"768 73 LINE",
"-50 73 LINE",
"-50 -17 LINE"
);
},
{
closed = 1;
nodes = (
"790.32 205.24 LINE",
"814.08 338.52 LINE",
"400.48 338.52 LINE",
"376.72 205.24 LINE"
);
},
{
closed = 1;
nodes = (
"744 369 LINE",
"539 369 LINE",
"486 103 LINE",
"684 67 LINE"
);
}
);
width = 816;
},
{
anchors = (
{
name = _center;
position = "{587.15, 238}";
},
{
name = bottom;
position = "{352, 0}";
},
{
name = top;
position = "{498, 700}";
}
);
guideLines = (
{
angle = 90;
position = "{398, 326}";
}
);
layerId = "C4221BDF-4AE8-4E40-821A-B2476087DE1A";
paths = (
{
closed = 1;
nodes = (
"490 -9 OFFCURVE",
"584 22 OFFCURVE",
"653 77 CURVE",
"608 170 LINE",
"549 119 OFFCURVE",
"484 93 OFFCURVE",
"408 93 CURVE SMOOTH",
"252 93 OFFCURVE",
"173 175 OFFCURVE",
"173 295 CURVE SMOOTH",
"173 469 OFFCURVE",
"295 607 OFFCURVE",
"486 607 CURVE SMOOTH",
"573 607 OFFCURVE",
"637 583 OFFCURVE",
"684 527 CURVE",
"766 597 LINE",
"710 669 OFFCURVE",
"616 709 OFFCURVE",
"491 709 CURVE SMOOTH",
"227 709 OFFCURVE",
"58 523 OFFCURVE",
"58 288 CURVE SMOOTH",
"58 111 OFFCURVE",
"187 -9 OFFCURVE",
"395 -9 CURVE SMOOTH"
);
},
{
closed = 1;
nodes = (
"763 -10 LINE",
"763 40 LINE",
"-55 40 LINE",
"-55 -10 LINE"
);
},
{
closed = 1;
nodes = (
"772.4 193 LINE",
"789.5 283 LINE",
"401.9 283 LINE",
"384.8 193 LINE"
);
},
{
closed = 1;
nodes = (
"709 356 LINE",
"599 356 LINE",
"547 95 LINE",
"653 77 LINE"
);
}
);
width = 808;
}
);
leftKerningGroup = O;
rightKerningGroup = G;
unicode = 01E4;
},
{
glyphname = Yogh;
layers = (
{
layerId = UUID0;
paths = (
{
closed = 1;
nodes = (
"154 -71 OFFCURVE",
"510 36 OFFCURVE",
"510 233 CURVE SMOOTH",
"510 336 OFFCURVE",
"407 380 OFFCURVE",
"260 349 CURVE",
"259 341 LINE",
"401 373 OFFCURVE",
"539 433 OFFCURVE",
"539 563 CURVE SMOOTH",
"539 637 OFFCURVE",
"494 704 OFFCURVE",
"369 704 CURVE SMOOTH",
"295 704 OFFCURVE",
"189 681 OFFCURVE",
"69 610 CURVE",
"78 594 LINE",
"192 658 OFFCURVE",
"292 685 OFFCURVE",
"366 685 CURVE SMOOTH",
"478 685 OFFCURVE",
"519 625 OFFCURVE",
"519 561 CURVE SMOOTH",
"519 435 OFFCURVE",
"358 377 OFFCURVE",
"231 348 CURVE SMOOTH",
"140 327 LINE",
"139 307 LINE",
"234 329 LINE SMOOTH",
"389 365 OFFCURVE",
"490 330 OFFCURVE",
"490 232 CURVE SMOOTH",
"490 47 OFFCURVE",
"129 -54 OFFCURVE",
"-80 -83 CURVE",
"-80 -102 LINE"
);
},
{
closed = 1;
nodes = (
"518 -3 LINE",
"518 16 LINE",
"-52 16 LINE",
"-52 -3 LINE"
);
}
);
width = 566;
},
{
layerId = "C4221BDF-4AE8-4E40-821A-B2476087DE1A";
paths = (
{
closed = 1;
nodes = (
"178 -85 OFFCURVE",
"559 12 OFFCURVE",
"559 226 CURVE SMOOTH",
"559 346 OFFCURVE",
"446 384 OFFCURVE",
"317 347 CURVE",
"316 324 LINE",
"460 357 OFFCURVE",
"594 419 OFFCURVE",
"594 550 CURVE SMOOTH",
"594 635 OFFCURVE",
"538 709 OFFCURVE",
"395 709 CURVE SMOOTH",
"296 709 OFFCURVE",
"169 673 OFFCURVE",
"62 614 CURVE",
"84 527 LINE",
"197 581 OFFCURVE",
"299 612 OFFCURVE",
"370 612 CURVE SMOOTH",
"445 612 OFFCURVE",
"473 577 OFFCURVE",
"473 533 CURVE SMOOTH",
"473 445 OFFCURVE",
"360 401 OFFCURVE",
"272 381 CURVE SMOOTH",
"152 354 LINE",
"145 259 LINE",
"293 291 LINE SMOOTH",
"383 310 OFFCURVE",
"440 296 OFFCURVE",
"440 226 CURVE SMOOTH",
"440 96 OFFCURVE",
"219 22 OFFCURVE",
"-71 -11 CURVE",
"-84 -108 LINE"
);
},
{
closed = 1;
nodes = (
"588 -10 LINE",
"588 40 LINE",
"-52 40 LINE",
"-52 -10 LINE"
);
}
);
width = 636;
},
{
layerId = "5DA6E103-6A94-47F2-987D-4952DB8EA68E";
paths = (
{
closed = 1;
nodes = (
"228 -107 OFFCURVE",
"637 -40 OFFCURVE",
"637 208 CURVE SMOOTH",
"637 318 OFFCURVE",
"556 397 OFFCURVE",
"404 360 CURVE",
"406 315 LINE",
"541 344 OFFCURVE",
"680 410 OFFCURVE",
"680 537 CURVE SMOOTH",
"680 625 OFFCURVE",
"612 715 OFFCURVE",
"442 715 CURVE SMOOTH",
"311 715 OFFCURVE",
"158 662 OFFCURVE",
"67 620 CURVE",
"101 446 LINE",
"213 488 OFFCURVE",
"328 518 OFFCURVE",
"379 518 CURVE SMOOTH",
"413 518 OFFCURVE",
"429 505 OFFCURVE",
"429 483 CURVE SMOOTH",
"429 455 OFFCURVE",
"401 435 OFFCURVE",
"364 427 CURVE SMOOTH",
"181 387 LINE",
"160 206 LINE",
"331 244 LINE SMOOTH",
"372 253 OFFCURVE",
"392 243 OFFCURVE",
"392 217 CURVE SMOOTH",
"392 135 OFFCURVE",
"186 97 OFFCURVE",
"-43 77 CURVE",
"-73 -116 LINE"
);
},
{
closed = 1;
nodes = (
"640 -17 LINE",
"640 73 LINE",
"-51 73 LINE",
"-51 -17 LINE"
);
}
);
width = 687;
}
);
leftKerningGroup = Yogh;
rightKerningGroup = B;
unicode = 021C;
},
{
glyphname = H;
layers = (
{
anchors = (
{
name = bottom;
position = "{356, 0}";
},
{
name = center;
position = "{464, 538}";
},
{
name = top;
position = "{496, 700}";
}
);
layerId = UUID0;
paths = (
{
closed = 1;
nodes = (
"610 -3 LINE",
"630 -3 LINE",
"771 700 LINE",
"751 700 LINE"
);
},
{
closed = 1;
nodes = (
"241 700 LINE",
"221 700 LINE",
"80 -3 LINE",
"100 -3 LINE"
);
},
{
closed = 1;
nodes = (
"689 365 LINE",
"169 365 LINE",
"165 346 LINE",
"685 346 LINE"
);
},
{
closed = 1;
nodes = (
"-54 -3 LINE",
"100 -3 LINE",
"100 16 LINE",
"-54 16 LINE"
);
},
{
closed = 1;
nodes = (
"610 -3 LINE",
"770 -3 LINE",
"770 16 LINE",
"624 16 LINE"
);
}
);
width = 816;
},
{
anchors = (
{
name = bottom;
position = "{347, 0}";
},
{
name = center;
position = "{462, 576}";
},
{
name = top;
position = "{487, 700}";
}
);
layerId = "5DA6E103-6A94-47F2-987D-4952DB8EA68E";
paths = (
{
closed = 1;
nodes = (
"453 -17 LINE",
"692 0 LINE",
"832 700 LINE",
"596 700 LINE"
);
},
{
closed = 1;
nodes = (
"378 700 LINE",
"142 700 LINE",
"2 0 LINE",
"235 -17 LINE"
);
},
{
closed = 1;
nodes = (
"562 452 LINE",
"313 452 LINE",
"274 258 LINE",
"523 258 LINE"
);
},
{
closed = 1;
nodes = (
"-50 -17 LINE",
"235 -17 LINE",
"231 73 LINE",
"-50 73 LINE"
);
},
{
closed = 1;
nodes = (
"453 -17 LINE",
"756 -17 LINE",
"756 73 LINE",
"500 73 LINE"
);
}
);
width = 804;
},
{
anchors = (
{
name = bottom;
position = "{352, 0}";
},
{
name = center;
position = "{463, 556}";
},
{
name = top;
position = "{492, 700}";
}
);
layerId = "C4221BDF-4AE8-4E40-821A-B2476087DE1A";
paths = (
{
closed = 1;
nodes = (
"542 -10 LINE",
"658 0 LINE",
"798 700 LINE",
"684 700 LINE"
);
},
{
closed = 1;
nodes = (
"301 700 LINE",
"187 700 LINE",
"47 0 LINE",
"159 -10 LINE"
);
},
{
closed = 1;
nodes = (
"635 407 LINE",
"233 407 LINE",
"214 303 LINE",
"615 303 LINE"
);
},
{
closed = 1;
nodes = (
"-55 -10 LINE",
"159 -10 LINE",
"159 40 LINE",
"-55 40 LINE"
);
},
{
closed = 1;
nodes = (
"542 -10 LINE",
"766 -10 LINE",
"766 40 LINE",
"556 40 LINE"
);
}
);
width = 811;
}
);
leftKerningGroup = H;
rightKerningGroup = H;
unicode = 0048;
},
{
glyphname = Hbar;
layers = (
{
anchors = (
{
name = _center;
position = "{464, 538}";
},
{
name = bottom;
position = "{356, 0}";
},
{
name = center;
position = "{464, 538}";
},
{
name = top;
position = "{496, 700}";
}
);
layerId = UUID0;
paths = (
{
closed = 1;
nodes = (
"610 -3 LINE",
"630 -3 LINE",
"771 700 LINE",
"751 700 LINE"
);
},
{
closed = 1;
nodes = (
"241 700 LINE",
"221 700 LINE",
"80 -3 LINE",
"100 -3 LINE"
);
},
{
closed = 1;
nodes = (
"689 365 LINE",
"169 365 LINE",
"165 346 LINE",
"685 346 LINE"
);
},
{
closed = 1;
nodes = (
"-54 -3 LINE",
"100 -3 LINE",
"100 16 LINE",
"-54 16 LINE"
);
},
{
closed = 1;
nodes = (
"610 -3 LINE",
"770 -3 LINE",
"770 16 LINE",
"624 16 LINE"
);
},
{
closed = 1;
nodes = (
"850 529 LINE",
"854 548 LINE",
"78 548 LINE",
"74 529 LINE"
);
}
);
width = 816;
},
{
anchors = (
{
name = _center;
position = "{482, 576}";
},
{
name = bottom;
position = "{367, 0}";
},
{
name = center;
position = "{482, 576}";
},
{
name = top;
position = "{507, 700}";
}
);
layerId = "5DA6E103-6A94-47F2-987D-4952DB8EA68E";
paths = (
{
closed = 1;
nodes = (
"473 -17 LINE",
"712 0 LINE",
"852 700 LINE",
"616 700 LINE"
);
},
{
closed = 1;
nodes = (
"398 700 LINE",
"162 700 LINE",
"22 0 LINE",
"255 -17 LINE"
);
},
{
closed = 1;
nodes = (
"582 452 LINE",
"333 452 LINE",
"294 258 LINE",
"543 258 LINE"
);
},
{
closed = 1;
nodes = (
"-50 -17 LINE",
"255 -17 LINE",
"251 73 LINE",
"-50 73 LINE"
);
},
{
closed = 1;
nodes = (
"473 -17 LINE",
"796 -17 LINE",
"796 73 LINE",
"520 73 LINE"
);
},
{
closed = 1;
nodes = (
"900 507 LINE",
"927 643 LINE",
"64 643 LINE",
"37 507 LINE"
);
}
);
width = 844;
},
{
anchors = (
{
name = _center;
position = "{472, 556}";
},
{
name = bottom;
position = "{361, 0}";
},
{
name = center;
position = "{472, 556}";
},
{
name = top;
position = "{501, 700}";
}
);
layerId = "C4221BDF-4AE8-4E40-821A-B2476087DE1A";
paths = (
{
closed = 1;
nodes = (
"551 -10 LINE",
"667 0 LINE",
"807 700 LINE",
"693 700 LINE"
);
},
{
closed = 1;
nodes = (
"310 700 LINE",
"196 700 LINE",
"56 0 LINE",
"168 -10 LINE"
);
},
{
closed = 1;
nodes = (
"644 407 LINE",
"242 407 LINE",
"223 303 LINE",
"624 303 LINE"
);
},
{
closed = 1;
nodes = (
"-55 -10 LINE",
"168 -10 LINE",
"168 40 LINE",
"-55 40 LINE"
);
},
{
closed = 1;
nodes = (
"551 -10 LINE",
"784 -10 LINE",
"784 40 LINE",
"565 40 LINE"
);
},
{
closed = 1;
nodes = (
"871 511 LINE",
"887 601 LINE",
"73 601 LINE",
"57 511 LINE"
);
}
);
width = 829;
}
);
leftKerningGroup = Hbar;
rightKerningGroup = Hbar;
unicode = 0126;
},
{
glyphname = Hcedilla;
layers = (
{
anchors = (
{
name = bottom;
position = "{356, 0}";
},
{
name = center;
position = "{464, 538}";
},
{
name = hook.af;
position = "{221, 700}";
},
{
name = top;
position = "{496, 700}";
}
);
layerId = UUID0;
paths = (
{
closed = 1;
nodes = (
"95 -213 OFFCURVE",
"138 -186 OFFCURVE",
"147 -140 CURVE SMOOTH",
"156 -94 OFFCURVE",
"125 -59 OFFCURVE",
"78 -56 CURVE",
"101 0 LINE",
"81 0 LINE",
"51 -74 LINE",
"67 -74 LINE SMOOTH",
"110 -74 OFFCURVE",
"134 -104 OFFCURVE",
"127 -140 CURVE SMOOTH",
"120 -176 OFFCURVE",
"87 -194 OFFCURVE",
"44 -194 CURVE SMOOTH",
"16 -194 OFFCURVE",
"-2 -186 OFFCURVE",
"-15 -171 CURVE",
"-29 -186 LINE",
"-11 -204 OFFCURVE",
"10 -213 OFFCURVE",
"41 -213 CURVE SMOOTH"
);
},
{
closed = 1;
nodes = (
"610 -3 LINE",
"630 -3 LINE",
"771 700 LINE",
"751 700 LINE"
);
},
{
closed = 1;
nodes = (
"241 700 LINE",
"221 700 LINE",
"80 -3 LINE",
"100 -3 LINE"
);
},
{
closed = 1;
nodes = (
"689 365 LINE",
"169 365 LINE",
"165 346 LINE",
"685 346 LINE"
);
},
{
closed = 1;
nodes = (
"-52 -3 LINE",
"100 -3 LINE",
"100 16 LINE",
"-52 16 LINE"
);
},
{
closed = 1;
nodes = (
"610 -3 LINE",
"768 -3 LINE",
"768 16 LINE",
"624 16 LINE"
);
}
);
width = 816;
},
{
anchors = (
{
name = bottom;
position = "{352, 0}";
},
{
name = center;
position = "{463, 556}";
},
{
name = hook.af;
position = "{187, 700}";
},
{
name = top;
position = "{492, 700}";
}
);
layerId = "C4221BDF-4AE8-4E40-821A-B2476087DE1A";
paths = (
{
closed = 1;
nodes = (
"137 -226 OFFCURVE",
"192 -194 OFFCURVE",
"204 -138 CURVE SMOOTH",
"215 -86 OFFCURVE",
"180 -53 OFFCURVE",
"119 -49 CURVE",
"144 7 LINE",
"83 7 LINE",
"37 -94 LINE",
"80 -94 LINE SMOOTH",
"116 -94 OFFCURVE",
"132 -106 OFFCURVE",
"128 -129 CURVE SMOOTH",
"124 -153 OFFCURVE",
"103 -166 OFFCURVE",
"65 -166 CURVE SMOOTH",
"42 -166 OFFCURVE",
"19 -161 OFFCURVE",
"1 -150 CURVE",
"-32 -205 LINE",
"-10 -219 OFFCURVE",
"19 -226 OFFCURVE",
"57 -226 CURVE SMOOTH"
);
},
{
closed = 1;
nodes = (
"542 -10 LINE",
"658 0 LINE",
"798 700 LINE",
"684 700 LINE"
);
},
{
closed = 1;
nodes = (
"301 700 LINE",
"187 700 LINE",
"47 0 LINE",
"159 -10 LINE"
);
},
{
closed = 1;
nodes = (
"635 407 LINE",
"233 407 LINE",
"214 303 LINE",
"615 303 LINE"
);
},
{
closed = 1;
nodes = (
"-52 -10 LINE",
"159 -10 LINE",
"159 40 LINE",
"-52 40 LINE"
);
},
{
closed = 1;
nodes = (
"542 -10 LINE",
"763 -10 LINE",
"763 40 LINE",
"556 40 LINE"
);
}
);
width = 811;
},
{
anchors = (
{
name = bottom;
position = "{347, 0}";
},
{
name = center;
position = "{462, 576}";
},
{
name = hook.af;
position = "{142, 700}";
},
{
name = top;
position = "{487, 700}";
}
);
layerId = "5DA6E103-6A94-47F2-987D-4952DB8EA68E";
paths = (
{
closed = 1;
nodes = (
"143 -240 OFFCURVE",
"217 -204 OFFCURVE",
"229 -142 CURVE SMOOTH",
"238 -96 OFFCURVE",
"209 -58 OFFCURVE",
"160 -52 CURVE",
"186 10 LINE",
"70 10 LINE",
"21 -104 LINE",
"62 -104 LINE SMOOTH",
"89 -104 OFFCURVE",
"101 -111 OFFCURVE",
"99 -124 CURVE SMOOTH",
"97 -138 OFFCURVE",
"81 -148 OFFCURVE",
"47 -148 CURVE SMOOTH",
"26 -148 OFFCURVE",
"5 -144 OFFCURVE",
"-12 -136 CURVE",
"-56 -219 LINE",
"-32 -233 OFFCURVE",
"2 -240 OFFCURVE",
"45 -240 CURVE SMOOTH"
);
},
{
closed = 1;
nodes = (
"453 -17 LINE",
"692 0 LINE",
"832 700 LINE",
"596 700 LINE"
);
},
{
closed = 1;
nodes = (
"378 700 LINE",
"142 700 LINE",
"2 0 LINE",
"235 -17 LINE"
);
},
{
closed = 1;
nodes = (
"562 452 LINE",
"313 452 LINE",
"274 258 LINE",
"523 258 LINE"
);
},
{
closed = 1;
nodes = (
"-50 -17 LINE",
"235 -17 LINE",
"231 73 LINE",
"-50 73 LINE"
);
},
{
closed = 1;
nodes = (
"453 -17 LINE",
"756 -17 LINE",
"756 73 LINE",
"500 73 LINE"
);
}
);
width = 804;
}
);
leftKerningGroup = H;
rightKerningGroup = H;
unicode = 1E28;
},
{
glyphname = Hhook;
layers = (
{
anchors = (
{
name = bottom;
position = "{498, 0}";
},
{
name = center;
position = "{606, 538}";
},
{
name = top;
position = "{638, 700}";
}
);
layerId = UUID0;
paths = (
{
closed = 1;
nodes = (
"752 -3 LINE",
"772 -3 LINE",
"913 700 LINE",
"893 700 LINE"
);
},
{
closed = 1;
nodes = (
"383 700 LINE",
"363 700 LINE",
"222 -3 LINE",
"242 -3 LINE"
);
},
{
closed = 1;
nodes = (
"831 365 LINE",
"311 365 LINE",
"307 346 LINE",
"827 346 LINE"
);
},
{
closed = 1;
nodes = (
"-52 -3 LINE",
"242 -3 LINE",
"242 16 LINE",
"-52 16 LINE"
);
},
{
closed = 1;
nodes = (
"752 -3 LINE",
"910 -3 LINE",
"910 16 LINE",
"766 16 LINE"
);
},
{
closed = 1;
nodes = (
"141 455 LINE",
"85 572 OFFCURVE",
"145 681 OFFCURVE",
"266 681 CURVE SMOOTH",
"364 681 LINE",
"368 700 LINE",
"266 700 LINE SMOOTH",
"129 700 OFFCURVE",
"56 567 OFFCURVE",
"125 445 CURVE"
);
}
);
width = 958;
},
{
anchors = (
{
name = bottom;
position = "{527, 0}";
},
{
name = center;
position = "{638, 556}";
},
{
name = top;
position = "{667, 700}";
}
);
layerId = "C4221BDF-4AE8-4E40-821A-B2476087DE1A";
paths = (
{
closed = 1;
nodes = (
"717 -10 LINE",
"833 0 LINE",
"973 700 LINE",
"859 700 LINE"
);
},
{
closed = 1;
nodes = (
"476 700 LINE",
"362 700 LINE",
"222 0 LINE",
"334 -10 LINE"
);
},
{
closed = 1;
nodes = (
"810 407 LINE",
"408 407 LINE",
"389 303 LINE",
"790 303 LINE"
);
},
{
closed = 1;
nodes = (
"-52 -10 LINE",
"334 -10 LINE",
"334 40 LINE",
"-52 40 LINE"
);
},
{
closed = 1;
nodes = (
"717 -10 LINE",
"938 -10 LINE",
"938 40 LINE",
"731 40 LINE"
);
},
{
closed = 1;
nodes = (
"221 435 LINE",
"167 506 OFFCURVE",
"203 601 OFFCURVE",
"284 601 CURVE SMOOTH",
"351 601 LINE",
"371 700 LINE",
"283 700 LINE SMOOTH",
"107 700 OFFCURVE",
"25 527 OFFCURVE",
"130 371 CURVE"
);
}
);
width = 986;
},
{
anchors = (
{
name = bottom;
position = "{597, 0}";
},
{
name = center;
position = "{712, 576}";
},
{
name = top;
position = "{737, 700}";
}
);
layerId = "5DA6E103-6A94-47F2-987D-4952DB8EA68E";
paths = (
{
closed = 1;
nodes = (
"703 -17 LINE",
"942 0 LINE",
"1082 700 LINE",
"846 700 LINE"
);
},
{
closed = 1;
nodes = (
"628 700 LINE",
"392 700 LINE",
"252 0 LINE",
"485 -17 LINE"
);
},
{
closed = 1;
nodes = (
"812 452 LINE",
"563 452 LINE",
"524 258 LINE",
"773 258 LINE"
);
},
{
closed = 1;
nodes = (
"-51 -17 LINE",
"485 -17 LINE",
"481 73 LINE",
"-51 73 LINE"
);
},
{
closed = 1;
nodes = (
"703 -17 LINE",
"1007 -17 LINE",
"1007 73 LINE",
"750 73 LINE"
);
},
{
closed = 1;
nodes = (
"268 393 LINE",
"243 458 OFFCURVE",
"263 517 OFFCURVE",
"322 517 CURVE SMOOTH",
"361 517 LINE",
"397 700 LINE",
"309 700 LINE SMOOTH",
"89 700 OFFCURVE",
"4 492 OFFCURVE",
"75 317 CURVE"
);
}
);
width = 1054;
}
);
leftKerningGroup = Hhook;
rightKerningGroup = H;
unicode = A7AA;
},
{
glyphname = Hturned;
layers = (
{
layerId = UUID0;
paths = (
{
closed = 1;
nodes = (
"550 0 LINE",
"690 700 LINE",
"670 700 LINE",
"632 507 LINE SMOOTH",
"600 342 OFFCURVE",
"507 259 OFFCURVE",
"355 259 CURVE SMOOTH",
"183 259 OFFCURVE",
"104 364 OFFCURVE",
"140 548 CURVE SMOOTH",
"170 700 LINE",
"150 700 LINE",
"120 551 LINE SMOOTH",
"81 356 OFFCURVE",
"168 240 OFFCURVE",
"355 240 CURVE SMOOTH",
"487 240 OFFCURVE",
"576 298 OFFCURVE",
"620 413 CURVE",
"614 419 LINE",
"530 0 LINE"
);
},
{
closed = 1;
nodes = (
"671 -3 LINE",
"671 16 LINE",
"-52 16 LINE",
"-52 -3 LINE"
);
}
);
width = 719;
},
{
layerId = "C4221BDF-4AE8-4E40-821A-B2476087DE1A";
paths = (
{
closed = 1;
nodes = (
"600 0 LINE",
"740 700 LINE",
"626 700 LINE",
"588 509 LINE SMOOTH",
"564 388 OFFCURVE",
"481 317 OFFCURVE",
"364 317 CURVE SMOOTH",
"244 317 OFFCURVE",
"188 390 OFFCURVE",
"213 514 CURVE SMOOTH",
"250 700 LINE",
"136 700 LINE",
"98 510 LINE SMOOTH",
"62 330 OFFCURVE",
"152 215 OFFCURVE",
"339 215 CURVE SMOOTH",
"460 215 OFFCURVE",
"539 263 OFFCURVE",
"600 374 CURVE",
"569 394 LINE",
"490 0 LINE"
);
},
{
closed = 1;
nodes = (
"709 -10 LINE",
"709 40 LINE",
"-52 40 LINE",
"-52 -10 LINE"
);
}
);
width = 757;
},
{
layerId = "5DA6E103-6A94-47F2-987D-4952DB8EA68E";
paths = (
{
closed = 1;
nodes = (
"660 0 LINE",
"800 700 LINE",
"564 700 LINE",
"522 489 LINE SMOOTH",
"506 407 OFFCURVE",
"465 368 OFFCURVE",
"394 368 CURVE SMOOTH",
"321 368 OFFCURVE",
"292 409 OFFCURVE",
"308 490 CURVE SMOOTH",
"350 700 LINE",
"114 700 LINE",
"74 501 LINE SMOOTH",
"34 303 OFFCURVE",
"119 181 OFFCURVE",
"297 181 CURVE SMOOTH",
"404 181 OFFCURVE",
"479 224 OFFCURVE",
"535 317 CURVE",
"504 378 LINE",
"431 0 LINE"
);
},
{
closed = 1;
nodes = (
"730 -17 LINE",
"730 73 LINE",
"-51 73 LINE",
"-51 -17 LINE"
);
}
);
width = 777;
}
);
leftKerningGroup = "Che-cy";
rightKerningGroup = H;
unicode = A78D;
},
{
glyphname = I;
layers = (
{
anchors = (
{
name = bottom;
position = "{91, 0}";
},
{
name = ogonek;
position = "{101, 0}";
},
{
name = top;
position = "{231, 700}";
},
{
name = topleft;
position = "{129, 699}";
}
);
layerId = UUID0;
paths = (
{
closed = 1;
nodes = (
"101 0 LINE",
"241 700 LINE",
"221 700 LINE",
"81 0 LINE"
);
},
{
closed = 1;
nodes = (
"-54 -3 LINE",
"240 -3 LINE",
"240 16 LINE",
"-54 16 LINE"
);
}
);
width = 286;
},
{
anchors = (
{
name = bottom;
position = "{120, 0}";
},
{
name = ogonek;
position = "{238, 0}";
},
{
name = top;
position = "{260, 700}";
},
{
name = topleft;
position = "{76, 700}";
}
);
layerId = "5DA6E103-6A94-47F2-987D-4952DB8EA68E";
paths = (
{
closed = 1;
nodes = (
"238 0 LINE",
"378 700 LINE",
"142 700 LINE",
"2 0 LINE"
);
},
{
closed = 1;
nodes = (
"-50 -17 LINE",
"302 -17 LINE",
"302 73 LINE",
"-50 73 LINE"
);
}
);
width = 350;
},
{
anchors = (
{
name = bottom;
position = "{104, 0}";
},
{
name = ogonek;
position = "{161, 0}";
},
{
name = top;
position = "{244, 700}";
},
{
name = topleft;
position = "{107, 699}";
}
);
layerId = "C4221BDF-4AE8-4E40-821A-B2476087DE1A";
paths = (
{
closed = 1;
nodes = (
"161 0 LINE",
"301 700 LINE",
"187 700 LINE",
"47 0 LINE"
);
},
{
closed = 1;
nodes = (
"-55 -10 LINE",
"269 -10 LINE",
"269 40 LINE",
"-55 40 LINE"
);
}
);
width = 314;
}
);
leftKerningGroup = H;
rightKerningGroup = H;
unicode = 0049;
},
{
glyphname = IJ;
layers = (
{
anchors = (
{
name = top;
position = "{255, 700}";
}
);
guideLines = (
{
angle = 90;
position = "{224, 197}";
}
);
layerId = UUID0;
paths = (
{
closed = 1;
nodes = (
"456 -3 OFFCURVE",
"553 91 OFFCURVE",
"593 290 CURVE SMOOTH",
"675 700 LINE",
"655 700 LINE",
"574 294 LINE SMOOTH",
"536 103 OFFCURVE",
"445 16 OFFCURVE",
"289 16 CURVE SMOOTH",
"210 16 OFFCURVE",
"143 40 OFFCURVE",
"94 78 CURVE",
"81 61 LINE",
"130 24 OFFCURVE",
"201 -3 OFFCURVE",
"289 -3 CURVE SMOOTH"
);
},
{
closed = 1;
nodes = (
"153 290 LINE",
"235 700 LINE",
"215 700 LINE",
"133 290 LINE"
);
},
{
closed = 1;
nodes = (
"-54 -3 LINE",
"668 -3 LINE",
"668 16 LINE",
"-54 16 LINE"
);
}
);
width = 714;
},
{
anchors = (
{
name = top;
position = "{254, 700}";
}
);
layerId = "5DA6E103-6A94-47F2-987D-4952DB8EA68E";
paths = (
{
closed = 1;
nodes = (
"508 -16 OFFCURVE",
"640 87 OFFCURVE",
"684 305 CURVE SMOOTH",
"763 700 LINE",
"527 700 LINE",
"450 313 LINE SMOOTH",
"430 211 OFFCURVE",
"390 172 OFFCURVE",
"307 172 CURVE SMOOTH",
"240 172 OFFCURVE",
"170 194 OFFCURVE",
"106 238 CURVE",
"-8 69 LINE",
"66 17 OFFCURVE",
"163 -16 OFFCURVE",
"297 -16 CURVE SMOOTH"
);
},
{
closed = 1;
nodes = (
"299 336 LINE",
"372 700 LINE",
"136 700 LINE",
"63 336 LINE"
);
},
{
closed = 1;
nodes = (
"-50 -17 LINE",
"681 -17 LINE",
"681 73 LINE",
"-50 73 LINE"
);
}
);
width = 729;
},
{
anchors = (
{
name = top;
position = "{256, 700}";
}
);
layerId = "C4221BDF-4AE8-4E40-821A-B2476087DE1A";
paths = (
{
closed = 1;
nodes = (
"481 -9 OFFCURVE",
"592 89 OFFCURVE",
"633 297 CURVE SMOOTH",
"713 700 LINE",
"599 700 LINE",
"520 303 LINE SMOOTH",
"491 155 OFFCURVE",
"424 93 OFFCURVE",
"304 93 CURVE SMOOTH",
"227 93 OFFCURVE",
"156 115 OFFCURVE",
"99 156 CURVE",
"42 64 LINE",
"101 20 OFFCURVE",
"186 -9 OFFCURVE",
"296 -9 CURVE SMOOTH"
);
},
{
closed = 1;
nodes = (
"217 312 LINE",
"295 700 LINE",
"181 700 LINE",
"103 312 LINE"
);
},
{
closed = 1;
nodes = (
"-55 -10 LINE",
"676 -10 LINE",
"676 40 LINE",
"-55 40 LINE"
);
}
);
width = 721;
}
);
leftKerningGroup = H;
rightKerningGroup = U;
unicode = 0132;
},
{
glyphname = "Iota-latin";
layers = (
{
anchors = (
{
name = bottom;
position = "{134, 0}";
},
{
name = top;
position = "{229, 700}";
}
);
guideLines = (
{
position = "{70, 376}";
}
);
layerId = UUID0;
paths = (
{
closed = 1;
nodes = (
"245 -3 OFFCURVE",
"284 11 OFFCURVE",
"316 33 CURVE",
"307 48 LINE",
"279 29 OFFCURVE",
"243 17 OFFCURVE",
"212 17 CURVE SMOOTH",
"145 17 OFFCURVE",
"112 59 OFFCURVE",
"125 127 CURVE SMOOTH",
"239 700 LINE",
"219 700 LINE",
"105 130 LINE SMOOTH",
"89 48 OFFCURVE",
"130 -3 OFFCURVE",
"213 -3 CURVE SMOOTH"
);
},
{
closed = 1;
nodes = (
"324 -3 LINE",
"324 16 LINE",
"-52 16 LINE",
"-52 -3 LINE"
);
}
);
width = 372;
},
{
anchors = (
{
name = bottom;
position = "{150, 0}";
},
{
name = top;
position = "{240, 700}";
}
);
layerId = "C4221BDF-4AE8-4E40-821A-B2476087DE1A";
paths = (
{
closed = 1;
nodes = (
"271 -9 OFFCURVE",
"311 3 OFFCURVE",
"348 28 CURVE",
"330 113 LINE",
"302 98 OFFCURVE",
"276 91 OFFCURVE",
"254 91 CURVE SMOOTH",
"208 91 OFFCURVE",
"181 121 OFFCURVE",
"191 171 CURVE SMOOTH",
"297 700 LINE",
"183 700 LINE",
"75 161 LINE SMOOTH",
"55 62 OFFCURVE",
"138 -9 OFFCURVE",
"233 -9 CURVE SMOOTH"
);
},
{
closed = 1;
nodes = (
"358 -10 LINE",
"358 40 LINE",
"-52 40 LINE",
"-52 -10 LINE"
);
}
);
width = 406;
},
{
anchors = (
{
name = bottom;
position = "{166, 0}";
},
{
name = top;
position = "{254, 700}";
}
);
layerId = "5DA6E103-6A94-47F2-987D-4952DB8EA68E";
paths = (
{
closed = 1;
nodes = (
"284 -14 OFFCURVE",
"331 -5 OFFCURVE",
"380 12 CURVE",
"377 186 LINE",
"357 175 OFFCURVE",
"338 170 OFFCURVE",
"323 170 CURVE SMOOTH",
"290 170 OFFCURVE",
"272 194 OFFCURVE",
"280 236 CURVE SMOOTH",
"372 700 LINE",
"136 700 LINE",
"44 236 LINE SMOOTH",
"14 83 OFFCURVE",
"100 -14 OFFCURVE",
"243 -14 CURVE SMOOTH"
);
},
{
closed = 1;
nodes = (
"395 -17 LINE",
"395 73 LINE",
"-51 73 LINE",
"-51 -17 LINE"
);
}
);
width = 442;
}
);
leftKerningGroup = U;
rightKerningGroup = l.ss01;
unicode = 0196;
},
{
glyphname = Istroke;
layers = (
{
anchors = (
{
name = bottom;
position = "{117, 0}";
},
{
name = ogonek;
position = "{127, 0}";
},
{
name = top;
position = "{257, 700}";
},
{
name = topleft;
position = "{155, 699}";
}
);
layerId = UUID0;
paths = (
{
closed = 1;
nodes = (
"127 0 LINE",
"267 700 LINE",
"247 700 LINE",
"107 0 LINE"
);
},
{
closed = 1;
nodes = (
"316 345 LINE",
"320 364 LINE",
"60 364 LINE",
"56 345 LINE"
);
},
{
closed = 1;
nodes = (
"289 -3 LINE",
"289 16 LINE",
"-52 16 LINE",
"-52 -3 LINE"
);
}
);
width = 337;
},
{
anchors = (
{
name = bottom;
position = "{134, 0}";
},
{
name = ogonek;
position = "{191, 0}";
},
{
name = top;
position = "{274, 700}";
},
{
name = topleft;
position = "{137, 699}";
}
);
layerId = "C4221BDF-4AE8-4E40-821A-B2476087DE1A";
paths = (
{
closed = 1;
nodes = (
"191 0 LINE",
"331 700 LINE",
"217 700 LINE",
"77 0 LINE"
);
},
{
closed = 1;
nodes = (
"354 314 LINE",
"371 404 LINE",
"57 404 LINE",
"40 314 LINE"
);
},
{
closed = 1;
nodes = (
"326 -10 LINE",
"326 40 LINE",
"-52 40 LINE",
"-52 -10 LINE"
);
}
);
width = 374;
},
{
anchors = (
{
name = bottom;
position = "{149, 0}";
},
{
name = ogonek;
position = "{267, 0}";
},
{
name = top;
position = "{289, 700}";
},
{
name = topleft;
position = "{105, 700}";
}
);
layerId = "5DA6E103-6A94-47F2-987D-4952DB8EA68E";
paths = (
{
closed = 1;
nodes = (
"267 0 LINE",
"407 700 LINE",
"171 700 LINE",
"31 0 LINE"
);
},
{
closed = 1;
nodes = (
"395 287 LINE",
"422 423 LINE",
"45 423 LINE",
"18 287 LINE"
);
},
{
closed = 1;
nodes = (
"360 -17 LINE",
"360 73 LINE",
"-51 73 LINE",
"-51 -17 LINE"
);
}
);
width = 407;
}
);
leftKerningGroup = Lbar;
rightKerningGroup = Istroke;
unicode = 0197;
},
{
glyphname = J;
layers = (
{
anchors = (
{
name = top;
position = "{297, 700}";
}
);
layerId = UUID0;
paths = (
{
closed = 1;
nodes = (
"243 -3 OFFCURVE",
"308 49 OFFCURVE",
"336 190 CURVE SMOOTH",
"438 700 LINE",
"156 700 LINE",
"152 681 LINE",
"414 681 LINE",
"317 196 LINE SMOOTH",
"290 63 OFFCURVE",
"233 16 OFFCURVE",
"140 16 CURVE SMOOTH",
"67 16 OFFCURVE",
"13 51 OFFCURVE",
"-12 106 CURVE",
"-30 96 LINE",
"-5 37 OFFCURVE",
"58 -3 OFFCURVE",
"137 -3 CURVE SMOOTH"
);
},
{
closed = 1;
nodes = (
"-54 -3 LINE",
"431 -3 LINE",
"431 16 LINE",
"-54 16 LINE"
);
}
);
width = 477;
},
{
anchors = (
{
name = top;
position = "{373, 700}";
}
);
layerId = "5DA6E103-6A94-47F2-987D-4952DB8EA68E";
paths = (
{
closed = 1;
nodes = (
"374 -16 OFFCURVE",
"480 58 OFFCURVE",
"520 260 CURVE SMOOTH",
"608 700 LINE",
"137 700 LINE",
"101 522 LINE",
"339 522 LINE",
"284 246 LINE SMOOTH",
"274 197 OFFCURVE",
"245 169 OFFCURVE",
"200 169 CURVE SMOOTH",
"158 169 OFFCURVE",
"124 191 OFFCURVE",
"93 235 CURVE",
"-58 92 LINE",
"-6 20 OFFCURVE",
"78 -16 OFFCURVE",
"196 -16 CURVE SMOOTH"
);
},
{
closed = 1;
nodes = (
"-50 -17 LINE",
"526 -17 LINE",
"526 73 LINE",
"-50 73 LINE"
);
}
);
width = 574;
},
{
anchors = (
{
name = top;
position = "{331, 700}";
}
);
layerId = "C4221BDF-4AE8-4E40-821A-B2476087DE1A";
paths = (
{
closed = 1;
nodes = (
"302 -9 OFFCURVE",
"384 52 OFFCURVE",
"418 224 CURVE SMOOTH",
"513 700 LINE",
"150 700 LINE",
"130 601 LINE",
"381 601 LINE",
"305 219 LINE SMOOTH",
"287 127 OFFCURVE",
"241 90 OFFCURVE",
"169 90 CURVE SMOOTH",
"108 90 OFFCURVE",
"62 119 OFFCURVE",
"35 169 CURVE",
"-43 94 LINE",
"-6 29 OFFCURVE",
"68 -9 OFFCURVE",
"167 -9 CURVE SMOOTH"
);
},
{
closed = 1;
nodes = (
"-55 -10 LINE",
"475 -10 LINE",
"475 40 LINE",
"-55 40 LINE"
);
}
);
width = 520;
}
);
leftKerningGroup = J;
rightKerningGroup = U;
unicode = 004A;
},
{
glyphname = Jcrossedtail;
layers = (
{
layerId = UUID0;
paths = (
{
closed = 1;
nodes = (
"229 -3 OFFCURVE",
"312 70 OFFCURVE",
"333 173 CURVE SMOOTH",
"438 700 LINE",
"156 700 LINE",
"152 681 LINE",
"414 681 LINE",
"314 177 LINE SMOOTH",
"295 82 OFFCURVE",
"219 16 OFFCURVE",
"131 16 CURVE SMOOTH",
"42 16 OFFCURVE",
"-11 63 OFFCURVE",
"3 131 CURVE SMOOTH",
"13 183 OFFCURVE",
"72 219 OFFCURVE",
"147 219 CURVE SMOOTH",
"423 219 LINE",
"427 238 LINE",
"147 238 LINE SMOOTH",
"63 238 OFFCURVE",
"-5 195 OFFCURVE",
"-17 135 CURVE SMOOTH",
"-33 54 OFFCURVE",
"28 -3 OFFCURVE",
"131 -3 CURVE SMOOTH"
);
},
{
closed = 1;
nodes = (
"429 -3 LINE",
"429 16 LINE",
"-52 16 LINE",
"-52 -3 LINE"
);
}
);
width = 477;
},
{
layerId = "C4221BDF-4AE8-4E40-821A-B2476087DE1A";
paths = (
{
closed = 1;
nodes = (
"295 -9 OFFCURVE",
"379 63 OFFCURVE",
"403 179 CURVE SMOOTH",
"510 700 LINE",
"145 700 LINE",
"125 601 LINE",
"376 601 LINE",
"293 203 LINE SMOOTH",
"277 125 OFFCURVE",
"234 82 OFFCURVE",
"174 82 CURVE SMOOTH",
"122 82 OFFCURVE",
"90 114 OFFCURVE",
"101 153 CURVE SMOOTH",
"110 186 OFFCURVE",
"144 203 OFFCURVE",
"199 203 CURVE SMOOTH",
"487 203 LINE",
"506 294 LINE",
"201 294 LINE SMOOTH",
"85 294 OFFCURVE",
"13 250 OFFCURVE",
"-5 167 CURVE SMOOTH",
"-26 67 OFFCURVE",
"49 -9 OFFCURVE",
"174 -9 CURVE SMOOTH"
);
},
{
closed = 1;
nodes = (
"469 -10 LINE",
"469 40 LINE",
"-52 40 LINE",
"-52 -10 LINE"
);
}
);
width = 517;
},
{
layerId = "5DA6E103-6A94-47F2-987D-4952DB8EA68E";
paths = (
{
closed = 1;
nodes = (
"375 -16 OFFCURVE",
"488 68 OFFCURVE",
"516 206 CURVE SMOOTH",
"615 700 LINE",
"144 700 LINE",
"109 522 LINE",
"347 522 LINE",
"279 183 LINE SMOOTH",
"271 145 OFFCURVE",
"247 123 OFFCURVE",
"214 123 CURVE SMOOTH",
"188 123 OFFCURVE",
"172 137 OFFCURVE",
"174 159 CURVE SMOOTH",
"176 180 OFFCURVE",
"195 191 OFFCURVE",
"231 191 CURVE SMOOTH",
"585 191 LINE",
"610 320 LINE",
"227 320 LINE SMOOTH",
"96 320 OFFCURVE",
"8 258 OFFCURVE",
"-2 159 CURVE SMOOTH",
"-13 53 OFFCURVE",
"74 -16 OFFCURVE",
"218 -16 CURVE SMOOTH"
);
},
{
closed = 1;
nodes = (
"568 -17 LINE",
"568 73 LINE",
"-51 73 LINE",
"-51 -17 LINE"
);
}
);
width = 615;
}
);
leftKerningGroup = J;
rightKerningGroup = Istroke;
unicode = A7B2;
},
{
glyphname = Jstroke;
layers = (
{
anchors = (
{
name = top;
position = "{297, 700}";
}
);
layerId = UUID0;
paths = (
{
closed = 1;
nodes = (
"243 -3 OFFCURVE",
"308 49 OFFCURVE",
"336 190 CURVE SMOOTH",
"438 700 LINE",
"156 700 LINE",
"152 681 LINE",
"414 681 LINE",
"317 196 LINE SMOOTH",
"290 63 OFFCURVE",
"233 16 OFFCURVE",
"140 16 CURVE SMOOTH",
"67 16 OFFCURVE",
"13 51 OFFCURVE",
"-12 106 CURVE",
"-30 96 LINE",
"-5 37 OFFCURVE",
"58 -3 OFFCURVE",
"137 -3 CURVE SMOOTH"
);
},
{
closed = 1;
nodes = (
"488 345 LINE",
"492 364 LINE",
"181 364 LINE",
"177 345 LINE"
);
},
{
closed = 1;
nodes = (
"426 -3 LINE",
"426 16 LINE",
"-52 16 LINE",
"-52 -3 LINE"
);
}
);
width = 474;
},
{
anchors = (
{
name = top;
position = "{331, 700}";
}
);
layerId = "C4221BDF-4AE8-4E40-821A-B2476087DE1A";
paths = (
{
closed = 1;
nodes = (
"302 -9 OFFCURVE",
"384 52 OFFCURVE",
"418 224 CURVE SMOOTH",
"513 700 LINE",
"150 700 LINE",
"130 601 LINE",
"381 601 LINE",
"305 219 LINE SMOOTH",
"287 127 OFFCURVE",
"241 90 OFFCURVE",
"169 90 CURVE SMOOTH",
"108 90 OFFCURVE",
"62 119 OFFCURVE",
"35 169 CURVE",
"-43 94 LINE",
"-6 29 OFFCURVE",
"68 -9 OFFCURVE",
"167 -9 CURVE SMOOTH"
);
},
{
closed = 1;
nodes = (
"538 314 LINE",
"555 404 LINE",
"192 404 LINE",
"175 314 LINE"
);
},
{
closed = 1;
nodes = (
"472 -10 LINE",
"472 40 LINE",
"-52 40 LINE",
"-52 -10 LINE"
);
}
);
width = 520;
},
{
anchors = (
{
name = top;
position = "{373, 700}";
}
);
layerId = "5DA6E103-6A94-47F2-987D-4952DB8EA68E";
paths = (
{
closed = 1;
nodes = (
"374 -16 OFFCURVE",
"480 58 OFFCURVE",
"520 260 CURVE SMOOTH",
"608 700 LINE",
"137 700 LINE",
"101 522 LINE",
"339 522 LINE",
"284 246 LINE SMOOTH",
"274 197 OFFCURVE",
"245 169 OFFCURVE",
"200 169 CURVE SMOOTH",
"158 169 OFFCURVE",
"124 191 OFFCURVE",
"93 235 CURVE",
"-58 92 LINE",
"-6 20 OFFCURVE",
"78 -16 OFFCURVE",
"196 -16 CURVE SMOOTH"
);
},
{
closed = 1;
nodes = (
"595 287 LINE",
"622 423 LINE",
"214 423 LINE",
"187 287 LINE"
);
},
{
closed = 1;
nodes = (
"561 -17 LINE",
"561 73 LINE",
"-51 73 LINE",
"-51 -17 LINE"
);
}
);
width = 608;
}
);
leftKerningGroup = J;
rightKerningGroup = Istroke;
unicode = 0248;
},
{
glyphname = K;
layers = (
{
anchors = (
{
name = bottom;
position = "{318, 0}";
},
{
name = top;
position = "{458, 700}";
}
);
layerId = UUID0;
paths = (
{
closed = 1;
nodes = (
"353 369 LINE",
"361 376 LINE",
"742 700 LINE",
"712 700 LINE",
"140 213 LINE",
"133 182 LINE"
);
},
{
closed = 1;
nodes = (
"100 -3 LINE",
"241 700 LINE",
"221 700 LINE",
"80 -3 LINE"
);
},
{
closed = 1;
nodes = (
"627 -3 LINE",
"357 387 LINE",
"340 377 LINE",
"603 -3 LINE"
);
},
{
closed = 1;
nodes = (
"-54 -3 LINE",
"100 -3 LINE",
"100 16 LINE",
"-54 16 LINE"
);
},
{
closed = 1;
nodes = (
"603 -3 LINE",
"647 -3 LINE",
"647 16 LINE",
"603 16 LINE"
);
}
);
width = 693;
},
{
anchors = (
{
name = bottom;
position = "{329, 0}";
},
{
name = top;
position = "{469, 700}";
}
);
guideLines = (
{
angle = 48.4917;
position = "{961, 544}";
}
);
layerId = "5DA6E103-6A94-47F2-987D-4952DB8EA68E";
paths = (
{
closed = 1;
nodes = (
"342 236 LINE",
"502 374 LINE",
"861 700 LINE",
"590 700 LINE",
"278 409 LINE",
"243 144 LINE"
);
},
{
closed = 1;
nodes = (
"231 -17 LINE",
"374 700 LINE",
"142 700 LINE",
"2 0 LINE"
);
},
{
closed = 1;
nodes = (
"738 0 LINE",
"481 430 LINE",
"306 272 LINE",
"486 -17 LINE"
);
},
{
closed = 1;
nodes = (
"-50 -17 LINE",
"231 -17 LINE",
"231 73 LINE",
"-50 73 LINE"
);
},
{
closed = 1;
nodes = (
"486 -17 LINE",
"748 -17 LINE",
"748 73 LINE",
"500 73 LINE"
);
}
);
width = 765;
},
{
anchors = (
{
name = bottom;
position = "{323, 0}";
},
{
name = top;
position = "{463, 700}";
}
);
layerId = "C4221BDF-4AE8-4E40-821A-B2476087DE1A";
paths = (
{
closed = 1;
nodes = (
"354 316 LINE",
"426 375 LINE",
"802 700 LINE",
"654 700 LINE",
"200 308 LINE",
"186 171 LINE"
);
},
{
closed = 1;
nodes = (
"159 -10 LINE",
"301 700 LINE",
"187 700 LINE",
"47 0 LINE"
);
},
{
closed = 1;
nodes = (
"675 0 LINE",
"402 404 LINE",
"326 326 LINE",
"554 -10 LINE"
);
},
{
closed = 1;
nodes = (
"-55 -10 LINE",
"159 -10 LINE",
"159 40 LINE",
"-55 40 LINE"
);
},
{
closed = 1;
nodes = (
"554 -10 LINE",
"679 -10 LINE",
"679 40 LINE",
"554 40 LINE"
);
}
);
width = 724;
}
);
leftKerningGroup = H;
rightKerningGroup = K;
unicode = 004B;
},
{
glyphname = Khook;
layers = (
{
anchors = (
{
name = bottom;
position = "{318, 0}";
},
{
name = top;
position = "{458, 700}";
}
);
layerId = UUID0;
paths = (
{
closed = 1;
nodes = (
"648 673 LINE SMOOTH",
"710 730 OFFCURVE",
"749 732 OFFCURVE",
"774 712 CURVE",
"787 727 LINE",
"755 753 OFFCURVE",
"706 752 OFFCURVE",
"636 688 CURVE SMOOTH",
"145 243 LINE",
"140 212 LINE"
);
},
{
closed = 1;
nodes = (
"100 -3 LINE",
"100 16 LINE",
"-52 16 LINE",
"-52 -3 LINE"
);
},
{
closed = 1;
nodes = (
"241 700 LINE",
"221 700 LINE",
"81 0 LINE",
"100 -3 LINE"
);
},
{
closed = 1;
nodes = (
"665 -3 LINE",
"665 16 LINE",
"603 16 LINE",
"603 -3 LINE"
);
},
{
closed = 1;
nodes = (
"625 0 LINE",
"343 408 LINE",
"328 395 LINE",
"603 -3 LINE"
);
}
);
width = 713;
},
{
anchors = (
{
name = bottom;
position = "{323, 0}";
},
{
name = top;
position = "{463, 700}";
}
);
layerId = "C4221BDF-4AE8-4E40-821A-B2476087DE1A";
paths = (
{
closed = 1;
nodes = (
"660 611 LINE SMOOTH",
"708 655 OFFCURVE",
"743 660 OFFCURVE",
"768 637 CURVE",
"824 710 LINE",
"775 761 OFFCURVE",
"692 770 OFFCURVE",
"586 674 CURVE SMOOTH",
"197 319 LINE",
"185 182 LINE"
);
},
{
closed = 1;
nodes = (
"159 -10 LINE",
"159 40 LINE",
"-52 40 LINE",
"-52 -10 LINE"
);
},
{
closed = 1;
nodes = (
"299 700 LINE",
"187 700 LINE",
"47 0 LINE",
"159 -10 LINE"
);
},
{
closed = 1;
nodes = (
"699 -10 LINE",
"699 40 LINE",
"554 40 LINE",
"554 -10 LINE"
);
},
{
closed = 1;
nodes = (
"675 0 LINE",
"402 404 LINE",
"326 326 LINE",
"554 -10 LINE"
);
}
);
width = 747;
},
{
anchors = (
{
name = bottom;
position = "{328, 0}";
},
{
name = top;
position = "{468, 700}";
}
);
layerId = "5DA6E103-6A94-47F2-987D-4952DB8EA68E";
paths = (
{
closed = 1;
nodes = (
"676 532 LINE SMOOTH",
"705 559 OFFCURVE",
"734 568 OFFCURVE",
"760 540 CURVE",
"872 688 LINE",
"801 771 OFFCURVE",
"685 789 OFFCURVE",
"534 648 CURVE SMOOTH",
"278 409 LINE",
"243 144 LINE"
);
},
{
closed = 1;
nodes = (
"231 -17 LINE",
"231 73 LINE",
"-51 73 LINE",
"-51 -17 LINE"
);
},
{
closed = 1;
nodes = (
"374 700 LINE",
"142 700 LINE",
"2 0 LINE",
"231 -17 LINE"
);
},
{
closed = 1;
nodes = (
"753 -17 LINE",
"753 73 LINE",
"500 73 LINE",
"486 -17 LINE"
);
},
{
closed = 1;
nodes = (
"738 0 LINE",
"481 430 LINE",
"306 272 LINE",
"486 -17 LINE"
);
}
);
width = 800;
}
);
leftKerningGroup = H;
rightKerningGroup = K;
unicode = 0198;
},
{
glyphname = Kstroke;
layers = (
{
anchors = (
{
name = bottom;
position = "{317, 0}";
},
{
name = top;
position = "{457, 700}";
}
);
layerId = UUID0;
paths = (
{
closed = 1;
nodes = (
"767 700 LINE",
"737 700 LINE",
"165 213 LINE",
"158 182 LINE"
);
},
{
closed = 1;
nodes = (
"125 -3 LINE",
"125 16 LINE",
"-52 16 LINE",
"-52 -3 LINE"
);
},
{
closed = 1;
nodes = (
"266 700 LINE",
"246 700 LINE",
"106 0 LINE",
"125 -3 LINE"
);
},
{
closed = 1;
nodes = (
"679 -3 LINE",
"679 16 LINE",
"628 16 LINE",
"628 -3 LINE"
);
},
{
closed = 1;
nodes = (
"650 0 LINE",
"382 387 LINE",
"365 377 LINE",
"628 -3 LINE"
);
},
{
closed = 1;
nodes = (
"411 575 LINE",
"415 594 LINE",
"105 594 LINE",
"101 575 LINE"
);
}
);
width = 727;
},
{
anchors = (
{
name = bottom;
position = "{352, 0}";
},
{
name = top;
position = "{492, 700}";
}
);
layerId = "C4221BDF-4AE8-4E40-821A-B2476087DE1A";
paths = (
{
closed = 1;
nodes = (
"831 700 LINE",
"683 700 LINE",
"229 308 LINE",
"215 171 LINE"
);
},
{
closed = 1;
nodes = (
"188 -10 LINE",
"188 40 LINE",
"-52 40 LINE",
"-52 -10 LINE"
);
},
{
closed = 1;
nodes = (
"330 700 LINE",
"216 700 LINE",
"76 0 LINE",
"188 -10 LINE"
);
},
{
closed = 1;
nodes = (
"720 -10 LINE",
"720 40 LINE",
"583 40 LINE",
"583 -10 LINE"
);
},
{
closed = 1;
nodes = (
"704 0 LINE",
"431 404 LINE",
"355 326 LINE",
"583 -10 LINE"
);
},
{
closed = 1;
nodes = (
"444 519 LINE",
"461 607 LINE",
"97 607 LINE",
"80 519 LINE"
);
}
);
width = 768;
},
{
anchors = (
{
name = bottom;
position = "{330, 0}";
},
{
name = top;
position = "{470, 700}";
}
);
layerId = "5DA6E103-6A94-47F2-987D-4952DB8EA68E";
paths = (
{
closed = 1;
nodes = (
"886 700 LINE",
"624 700 LINE",
"299 369 LINE",
"244 82 LINE"
);
},
{
closed = 1;
nodes = (
"255 -17 LINE",
"255 73 LINE",
"-51 73 LINE",
"-51 -17 LINE"
);
},
{
closed = 1;
nodes = (
"398 700 LINE",
"166 700 LINE",
"26 0 LINE",
"255 -17 LINE"
);
},
{
closed = 1;
nodes = (
"771 -17 LINE",
"771 73 LINE",
"524 73 LINE",
"510 -17 LINE"
);
},
{
closed = 1;
nodes = (
"762 0 LINE",
"505 430 LINE",
"330 272 LINE",
"510 -17 LINE"
);
},
{
closed = 1;
nodes = (
"459 542 LINE",
"481 652 LINE",
"86 652 LINE",
"64 542 LINE"
);
}
);
width = 818;
}
);
leftKerningGroup = Istroke;
rightKerningGroup = K;
unicode = A740;
},
{
glyphname = L;
layers = (
{
anchors = (
{
name = bottom;
position = "{310, 0}";
},
{
name = center;
position = "{163, 360}";
},
{
name = dot;
position = "{456, 387}";
},
{
name = top;
position = "{231, 700}";
},
{
name = topright;
position = "{534, 700}";
}
);
guideLines = (
{
angle = 90;
position = "{360, 31}";
}
);
layerId = UUID0;
paths = (
{
closed = 1;
nodes = (
"520 8 LINE",
"524 27 LINE",
"107 27 LINE",
"241 700 LINE",
"221 700 LINE",
"83 8 LINE"
);
},
{
closed = 1;
nodes = (
"-54 -3 LINE",
"544 -3 LINE",
"544 16 LINE",
"-54 16 LINE"
);
}
);
width = 580;
},
{
anchors = (
{
name = bottom;
position = "{290, 0}";
},
{
name = center;
position = "{200, 400}";
},
{
name = dot;
position = "{517, 441}";
},
{
name = top;
position = "{260, 700}";
},
{
name = topright;
position = "{508, 700}";
}
);
guideLines = (
{
angle = 90;
position = "{426, 193}";
}
);
layerId = "5DA6E103-6A94-47F2-987D-4952DB8EA68E";
paths = (
{
closed = 1;
nodes = (
"554 0 LINE",
"591 183 LINE",
"275 183 LINE",
"378 700 LINE",
"142 700 LINE",
"2 0 LINE"
);
},
{
closed = 1;
nodes = (
"-50 -17 LINE",
"599 -17 LINE",
"599 73 LINE",
"-50 73 LINE"
);
}
);
width = 617;
},
{
anchors = (
{
name = bottom;
position = "{302, 0}";
},
{
name = center;
position = "{180, 379}";
},
{
name = dot;
position = "{482, 408}";
},
{
name = top;
position = "{245, 700}";
},
{
name = topright;
position = "{524, 700}";
}
);
layerId = "C4221BDF-4AE8-4E40-821A-B2476087DE1A";
paths = (
{
closed = 1;
nodes = (
"534 0 LINE",
"554 99 LINE",
"181 99 LINE",
"301 700 LINE",
"187 700 LINE",
"47 0 LINE"
);
},
{
closed = 1;
nodes = (
"-55 -10 LINE",
"561 -10 LINE",
"561 40 LINE",
"-55 40 LINE"
);
}
);
width = 596;
}
);
leftKerningGroup = H;
rightKerningGroup = L;
unicode = 004C;
},
{
glyphname = Lbar;
layers = (
{
anchors = (
{
name = bottom;
position = "{310, 0}";
},
{
name = center;
position = "{181, 371}";
},
{
name = dot;
position = "{470, 386}";
},
{
name = top;
position = "{231, 700}";
},
{
name = topright;
position = "{534, 700}";
}
);
layerId = UUID0;
paths = (
{
closed = 1;
nodes = (
"520 8 LINE",
"524 27 LINE",
"107 27 LINE",
"241 700 LINE",
"221 700 LINE",
"83 8 LINE"
);
},
{
closed = 1;
nodes = (
"532 -3 LINE",
"532 16 LINE",
"-52 16 LINE",
"-52 -3 LINE"
);
},
{
closed = 1;
nodes = (
"340 345 LINE",
"344 364 LINE",
"34 364 LINE",
"30 345 LINE"
);
}
);
width = 580;
},
{
anchors = (
{
name = bottom;
position = "{302, 0}";
},
{
name = center;
position = "{194, 374}";
},
{
name = dot;
position = "{474, 409}";
},
{
name = top;
position = "{245, 700}";
},
{
name = topright;
position = "{524, 700}";
}
);
layerId = "C4221BDF-4AE8-4E40-821A-B2476087DE1A";
paths = (
{
closed = 1;
nodes = (
"534 0 LINE",
"554 99 LINE",
"181 99 LINE",
"301 700 LINE",
"187 700 LINE",
"47 0 LINE"
);
},
{
closed = 1;
nodes = (
"548 -10 LINE",
"548 40 LINE",
"-52 40 LINE",
"-52 -10 LINE"
);
},
{
closed = 1;
nodes = (
"376 314 LINE",
"393 404 LINE",
"27 404 LINE",
"10 314 LINE"
);
}
);
width = 596;
},
{
anchors = (
{
name = bottom;
position = "{290, 0}";
},
{
name = center;
position = "{205, 390}";
},
{
name = dot;
position = "{526, 441}";
},
{
name = top;
position = "{260, 700}";
},
{
name = topright;
position = "{508, 700}";
}
);
layerId = "5DA6E103-6A94-47F2-987D-4952DB8EA68E";
paths = (
{
closed = 1;
nodes = (
"554 0 LINE",
"591 183 LINE",
"275 183 LINE",
"378 700 LINE",
"142 700 LINE",
"2 0 LINE"
);
},
{
closed = 1;
nodes = (
"570 -17 LINE",
"570 73 LINE",
"-51 73 LINE",
"-51 -17 LINE"
);
},
{
closed = 1;
nodes = (
"400 287 LINE",
"428 423 LINE",
"17 423 LINE",
"-11 287 LINE"
);
}
);
width = 617;
}
);
leftKerningGroup = Istroke;
rightKerningGroup = L;
unicode = 023D;
},
{
glyphname = Lbelt;
layers = (
{
anchors = (
{
name = bottom;
position = "{310, 0}";
},
{
name = center;
position = "{163, 360}";
},
{
name = dot;
position = "{453, 360}";
},
{
name = top;
position = "{231, 700}";
},
{
name = topright;
position = "{534, 700}";
}
);
layerId = UUID0;
paths = (
{
closed = 1;
nodes = (
"521 8 LINE",
"525 27 LINE",
"108 27 LINE",
"242 700 LINE",
"222 700 LINE",
"84 8 LINE"
);
},
{
closed = 1;
nodes = (
"532 -3 LINE",
"532 16 LINE",
"-52 16 LINE",
"-52 -3 LINE"
);
},
{
closed = 1;
nodes = (
"412 346 LINE",
"415 365 LINE",
"120 365 LINE SMOOTH",
"57 365 OFFCURVE",
"21 393 OFFCURVE",
"29 435 CURVE SMOOTH",
"35 465 OFFCURVE",
"59 484 OFFCURVE",
"91 484 CURVE SMOOTH",
"142 484 OFFCURVE",
"168 435 OFFCURVE",
"154 365 CURVE",
"173 365 LINE",
"189 445 OFFCURVE",
"155 503 OFFCURVE",
"92 503 CURVE SMOOTH",
"52 503 OFFCURVE",
"17 479 OFFCURVE",
"9 437 CURVE SMOOTH",
"-1 383 OFFCURVE",
"44 346 OFFCURVE",
"118 346 CURVE SMOOTH"
);
}
);
width = 580;
},
{
anchors = (
{
name = bottom;
position = "{353, 0}";
},
{
name = center;
position = "{231, 379}";
},
{
name = dot;
position = "{533, 399}";
},
{
name = top;
position = "{295, 700}";
},
{
name = topright;
position = "{574, 700}";
}
);
layerId = "C4221BDF-4AE8-4E40-821A-B2476087DE1A";
paths = (
{
closed = 1;
nodes = (
"585 0 LINE",
"605 99 LINE",
"232 99 LINE",
"352 700 LINE",
"238 700 LINE",
"98 0 LINE"
);
},
{
closed = 1;
nodes = (
"599 -10 LINE",
"599 40 LINE",
"-52 40 LINE",
"-52 -10 LINE"
);
},
{
closed = 1;
nodes = (
"488 314 LINE",
"505 404 LINE",
"161 404 LINE SMOOTH",
"120 404 OFFCURVE",
"88 422 OFFCURVE",
"93 455 CURVE SMOOTH",
"96 475 OFFCURVE",
"111 487 OFFCURVE",
"132 487 CURVE SMOOTH",
"167 487 OFFCURVE",
"188 451 OFFCURVE",
"179 404 CURVE",
"236 404 LINE",
"255 502 OFFCURVE",
"212 567 OFFCURVE",
"129 567 CURVE SMOOTH",
"63 567 OFFCURVE",
"15 527 OFFCURVE",
"2 462 CURVE SMOOTH",
"-15 375 OFFCURVE",
"42 314 OFFCURVE",
"139 314 CURVE SMOOTH"
);
}
);
width = 647;
},
{
anchors = (
{
name = bottom;
position = "{423, 0}";
},
{
name = center;
position = "{333, 400}";
},
{
name = dot;
position = "{650, 441}";
},
{
name = top;
position = "{393, 700}";
},
{
name = topright;
position = "{641, 700}";
}
);
layerId = "5DA6E103-6A94-47F2-987D-4952DB8EA68E";
paths = (
{
closed = 1;
nodes = (
"687 0 LINE",
"724 183 LINE",
"408 183 LINE",
"511 700 LINE",
"275 700 LINE",
"135 0 LINE"
);
},
{
closed = 1;
nodes = (
"703 -17 LINE",
"703 73 LINE",
"-51 73 LINE",
"-51 -17 LINE"
);
},
{
closed = 1;
nodes = (
"603 307 LINE",
"629 450 LINE",
"198 450 LINE SMOOTH",
"162 450 OFFCURVE",
"141 466 OFFCURVE",
"146 491 CURVE SMOOTH",
"149 506 OFFCURVE",
"161 520 OFFCURVE",
"181 520 CURVE SMOOTH",
"210 520 OFFCURVE",
"229 490 OFFCURVE",
"225 450 CURVE",
"299 450 LINE",
"322 559 OFFCURVE",
"276 629 OFFCURVE",
"183 629 CURVE SMOOTH",
"96 629 OFFCURVE",
"29 568 OFFCURVE",
"15 477 CURVE SMOOTH",
"-1 373 OFFCURVE",
"66 307 OFFCURVE",
"176 307 CURVE SMOOTH"
);
}
);
width = 750;
}
);
leftKerningGroup = Lbar;
rightKerningGroup = L;
unicode = A7AD;
},
{
glyphname = Ldot;
layers = (
{
background = {
paths = (
{
closed = 1;
nodes = (
"467 334 OFFCURVE",
"479 346 OFFCURVE",
"479 360 CURVE SMOOTH",
"479 374 OFFCURVE",
"467 386 OFFCURVE",
"453 386 CURVE SMOOTH",
"439 386 OFFCURVE",
"427 374 OFFCURVE",
"427 360 CURVE SMOOTH",
"427 346 OFFCURVE",
"439 334 OFFCURVE",
"453 334 CURVE SMOOTH"
);
}
);
};
components = (
{
name = L;
},
{
alignment = 1;
name = periodcentered.loclCAT.case;
transform = "{1, 0, 0, 1, 406, 0}";
}
);
layerId = UUID0;
width = 580;
},
{
background = {
paths = (
{
closed = 1;
nodes = (
"576 327 OFFCURVE",
"632 376 OFFCURVE",
"632 450 CURVE SMOOTH",
"632 513 OFFCURVE",
"589 555 OFFCURVE",
"526 555 CURVE SMOOTH",
"458 555 OFFCURVE",
"403 506 OFFCURVE",
"403 432 CURVE SMOOTH",
"403 371 OFFCURVE",
"447 327 OFFCURVE",
"510 327 CURVE SMOOTH"
);
}
);
};
components = (
{
name = L;
},
{
alignment = 1;
name = periodcentered.loclCAT.case;
transform = "{1, 0, 0, 1, 370, 1}";
}
);
layerId = "5DA6E103-6A94-47F2-987D-4952DB8EA68E";
width = 617;
},
{
background = {
paths = (
{
closed = 1;
nodes = (
"515 330 OFFCURVE",
"549 360 OFFCURVE",
"549 403 CURVE SMOOTH",
"549 441 OFFCURVE",
"521 468 OFFCURVE",
"486 468 CURVE SMOOTH",
"448 468 OFFCURVE",
"415 438 OFFCURVE",
"415 394 CURVE SMOOTH",
"415 358 OFFCURVE",
"443 330 OFFCURVE",
"479 330 CURVE SMOOTH"
);
}
);
};
components = (
{
name = L;
},
{
alignment = 1;
name = periodcentered.loclCAT.case;
transform = "{1, 0, 0, 1, 385, 0}";
}
);
layerId = "C4221BDF-4AE8-4E40-821A-B2476087DE1A";
width = 596;
}
);
leftKerningGroup = H;
rightKerningGroup = L;
unicode = 013F;
},
{
glyphname = Ldoublebar;
layers = (
{
anchors = (
{
name = bottom;
position = "{341, 0}";
},
{
name = center;
position = "{212, 371}";
},
{
name = dot;
position = "{501, 386}";
},
{
name = top;
position = "{262, 700}";
},
{
name = topright;
position = "{565, 700}";
}
);
layerId = UUID0;
paths = (
{
closed = 1;
nodes = (
"551 8 LINE",
"555 27 LINE",
"138 27 LINE",
"272 700 LINE",
"252 700 LINE",
"114 8 LINE"
);
},
{
closed = 1;
nodes = (
"563 -3 LINE",
"563 16 LINE",
"-52 16 LINE",
"-52 -3 LINE"
);
},
{
closed = 1;
nodes = (
"362 302 LINE",
"366 321 LINE",
"56 321 LINE",
"52 302 LINE"
);
},
{
closed = 1;
nodes = (
"390 441 LINE",
"394 460 LINE",
"84 460 LINE",
"80 441 LINE"
);
}
);
width = 611;
},
{
anchors = (
{
name = bottom;
position = "{337, 0}";
},
{
name = center;
position = "{229, 374}";
},
{
name = dot;
position = "{509, 409}";
},
{
name = top;
position = "{280, 700}";
},
{
name = topright;
position = "{559, 700}";
}
);
layerId = "C4221BDF-4AE8-4E40-821A-B2476087DE1A";
paths = (
{
closed = 1;
nodes = (
"569 0 LINE",
"589 99 LINE",
"216 99 LINE",
"336 700 LINE",
"222 700 LINE",
"82 0 LINE"
);
},
{
closed = 1;
nodes = (
"583 -10 LINE",
"583 40 LINE",
"-52 40 LINE",
"-52 -10 LINE"
);
},
{
closed = 1;
nodes = (
"402 268 LINE",
"419 356 LINE",
"52 356 LINE",
"36 268 LINE"
);
},
{
closed = 1;
nodes = (
"436 431 LINE",
"453 519 LINE",
"86 519 LINE",
"70 431 LINE"
);
}
);
width = 631;
},
{
anchors = (
{
name = bottom;
position = "{332, 0}";
},
{
name = center;
position = "{247, 390}";
},
{
name = dot;
position = "{568, 441}";
},
{
name = top;
position = "{302, 700}";
},
{
name = topright;
position = "{550, 700}";
}
);
layerId = "5DA6E103-6A94-47F2-987D-4952DB8EA68E";
paths = (
{
closed = 1;
nodes = (
"596 0 LINE",
"633 183 LINE",
"317 183 LINE",
"420 700 LINE",
"184 700 LINE",
"44 0 LINE"
);
},
{
closed = 1;
nodes = (
"628 -17 LINE",
"628 73 LINE",
"-50 73 LINE",
"-50 -17 LINE"
);
},
{
closed = 1;
nodes = (
"434 246 LINE",
"461 382 LINE",
"50 382 LINE",
"23 246 LINE"
);
},
{
closed = 1;
nodes = (
"466 407 LINE",
"493 543 LINE",
"82 543 LINE",
"55 407 LINE"
);
}
);
width = 659;
}
);
leftKerningGroup = Lbar;
rightKerningGroup = L;
unicode = 2C60;
},
{
glyphname = Lmiddletilde;
layers = (
{
anchors = (
{
name = bottom;
position = "{327, 0}";
},
{
name = top;
position = "{258, 700}";
},
{
name = topright;
position = "{561, 700}";
}
);
layerId = UUID0;
paths = (
{
closed = 1;
nodes = (
"546 8 LINE",
"550 27 LINE",
"133 27 LINE",
"267 700 LINE",
"247 700 LINE",
"109 8 LINE"
);
},
{
closed = 1;
nodes = (
"557 -3 LINE",
"557 16 LINE",
"-52 16 LINE",
"-52 -3 LINE"
);
},
{
closed = 1;
nodes = (
"308 332 OFFCURVE",
"340 366 OFFCURVE",
"352 416 CURVE",
"333 416 LINE",
"323 377 OFFCURVE",
"298 351 OFFCURVE",
"266 351 CURVE SMOOTH",
"221 351 OFFCURVE",
"210 420 OFFCURVE",
"153 420 CURVE SMOOTH",
"110 420 OFFCURVE",
"76 386 OFFCURVE",
"63 334 CURVE",
"82 334 LINE",
"92 375 OFFCURVE",
"121 401 OFFCURVE",
"153 401 CURVE SMOOTH",
"198 401 OFFCURVE",
"208 332 OFFCURVE",
"265 332 CURVE SMOOTH"
);
}
);
width = 605;
},
{
anchors = (
{
name = bottom;
position = "{344, 0}";
},
{
name = top;
position = "{297, 700}";
},
{
name = topright;
position = "{576, 700}";
}
);
layerId = "C4221BDF-4AE8-4E40-821A-B2476087DE1A";
paths = (
{
closed = 1;
nodes = (
"587 0 LINE",
"607 99 LINE",
"234 99 LINE",
"354 700 LINE",
"240 700 LINE",
"100 0 LINE"
);
},
{
closed = 1;
nodes = (
"606 -10 LINE",
"606 40 LINE",
"-52 40 LINE",
"-52 -10 LINE"
);
},
{
closed = 1;
nodes = (
"396 330 OFFCURVE",
"438 379 OFFCURVE",
"455 452 CURVE",
"396 452 LINE",
"387 417 OFFCURVE",
"364 395 OFFCURVE",
"330 395 CURVE SMOOTH",
"283 395 OFFCURVE",
"230 460 OFFCURVE",
"157 460 CURVE SMOOTH",
"89 460 OFFCURVE",
"47 411 OFFCURVE",
"30 336 CURVE",
"89 336 LINE",
"98 373 OFFCURVE",
"121 395 OFFCURVE",
"155 395 CURVE SMOOTH",
"202 395 OFFCURVE",
"254 330 OFFCURVE",
"328 330 CURVE SMOOTH"
);
}
);
width = 654;
},
{
anchors = (
{
name = bottom;
position = "{393, 0}";
},
{
name = top;
position = "{375, 700}";
},
{
name = topright;
position = "{623, 700}";
}
);
layerId = "5DA6E103-6A94-47F2-987D-4952DB8EA68E";
paths = (
{
closed = 1;
nodes = (
"669 0 LINE",
"706 183 LINE",
"390 183 LINE",
"493 700 LINE",
"257 700 LINE",
"117 0 LINE"
);
},
{
closed = 1;
nodes = (
"693 -17 LINE",
"693 73 LINE",
"-51 73 LINE",
"-51 -17 LINE"
);
},
{
closed = 1;
nodes = (
"537 314 OFFCURVE",
"599 382 OFFCURVE",
"622 484 CURVE",
"512 484 LINE",
"504 455 OFFCURVE",
"484 438 OFFCURVE",
"448 438 CURVE SMOOTH",
"399 438 OFFCURVE",
"291 497 OFFCURVE",
"196 497 CURVE SMOOTH",
"96 497 OFFCURVE",
"44 429 OFFCURVE",
"20 324 CURVE",
"130 324 LINE",
"140 355 OFFCURVE",
"149 373 OFFCURVE",
"185 373 CURVE SMOOTH",
"235 373 OFFCURVE",
"342 314 OFFCURVE",
"437 314 CURVE SMOOTH"
);
}
);
width = 740;
}
);
leftKerningGroup = Lbar;
rightKerningGroup = L;
unicode = 2C62;
},
{
glyphname = M;
layers = (
{
anchors = (
{
name = bottom;
position = "{426, 0}";
},
{
name = top;
position = "{566, 700}";
}
);
layerId = UUID0;
paths = (
{
closed = 1;
nodes = (
"100 -3 LINE",
"235 671 LINE",
"227 672 LINE",
"446 99 LINE",
"458 99 LINE",
"894 669 LINE",
"885 671 LINE",
"750 -3 LINE",
"770 -3 LINE",
"911 700 LINE",
"892 700 LINE",
"451 121 LINE",
"460 118 LINE",
"238 700 LINE",
"221 700 LINE",
"80 -3 LINE"
);
},
{
closed = 1;
nodes = (
"-54 -3 LINE",
"99 -3 LINE",
"99 16 LINE",
"-54 16 LINE"
);
},
{
closed = 1;
nodes = (
"751 -3 LINE",
"910 -3 LINE",
"910 16 LINE",
"757 16 LINE"
);
}
);
width = 956;
},
{
anchors = (
{
name = bottom;
position = "{421, 0}";
},
{
name = top;
position = "{561, 700}";
}
);
layerId = "5DA6E103-6A94-47F2-987D-4952DB8EA68E";
paths = (
{
closed = 1;
nodes = (
"214 -17 LINE",
"292 376 LINE",
"252 379 LINE",
"388 63 LINE",
"492 63 LINE",
"734 378 LINE",
"700 376 LINE",
"624 -17 LINE",
"842 0 LINE",
"980 700 LINE",
"779 700 LINE",
"419 243 LINE",
"521 243 LINE",
"334 700 LINE",
"142 700 LINE",
"2 0 LINE"
);
},
{
closed = 1;
nodes = (
"-50 -17 LINE",
"214 -17 LINE",
"211 73 LINE",
"-50 73 LINE"
);
},
{
closed = 1;
nodes = (
"624 -17 LINE",
"906 -17 LINE",
"906 73 LINE",
"670 73 LINE"
);
}
);
width = 954;
},
{
anchors = (
{
name = bottom;
position = "{425, 0}";
},
{
name = top;
position = "{565, 700}";
}
);
layerId = "C4221BDF-4AE8-4E40-821A-B2476087DE1A";
paths = (
{
closed = 1;
nodes = (
"155 -10 LINE",
"262 526 LINE",
"239 530 LINE",
"422 82 LINE",
"474 82 LINE",
"826 528 LINE",
"798 530 LINE",
"690 -10 LINE",
"802 0 LINE",
"942 700 LINE",
"843 700 LINE",
"438 180 LINE",
"487 179 LINE",
"280 700 LINE",
"187 700 LINE",
"47 0 LINE"
);
},
{
closed = 1;
nodes = (
"-55 -10 LINE",
"155 -10 LINE",
"155 40 LINE",
"-55 40 LINE"
);
},
{
closed = 1;
nodes = (
"690 -10 LINE",
"910 -10 LINE",
"910 40 LINE",
"708 40 LINE"
);
}
);
width = 955;
}
);
leftKerningGroup = H;
rightKerningGroup = H;
unicode = 004D;
},
{
glyphname = Mhook;
layers = (
{
anchors = (
{
name = bottom;
position = "{430, 0}";
},
{
name = top;
position = "{570, 700}";
}
);
layerId = UUID0;
paths = (
{
closed = 1;
nodes = (
"603 -235 OFFCURVE",
"738 -188 OFFCURVE",
"760 -78 CURVE SMOOTH",
"915 700 LINE",
"896 700 LINE",
"455 121 LINE",
"464 118 LINE",
"242 700 LINE",
"225 700 LINE",
"85 0 LINE",
"104 -3 LINE",
"239 671 LINE",
"231 672 LINE",
"450 99 LINE",
"462 99 LINE",
"898 669 LINE",
"889 671 LINE",
"740 -74 LINE SMOOTH",
"721 -170 OFFCURVE",
"607 -210 OFFCURVE",
"534 -145 CURVE",
"523 -161 LINE"
);
},
{
closed = 1;
nodes = (
"104 -3 LINE",
"104 16 LINE",
"-52 16 LINE",
"-52 -3 LINE"
);
},
{
closed = 1;
nodes = (
"912 -3 LINE",
"912 16 LINE",
"762 16 LINE",
"758 -3 LINE"
);
}
);
width = 960;
},
{
anchors = (
{
name = bottom;
position = "{429, 0}";
},
{
name = top;
position = "{569, 700}";
}
);
layerId = "C4221BDF-4AE8-4E40-821A-B2476087DE1A";
paths = (
{
closed = 1;
nodes = (
"586 -239 OFFCURVE",
"767 -198 OFFCURVE",
"800 -31 CURVE SMOOTH",
"945 700 LINE",
"851 700 LINE",
"441 181 LINE",
"491 181 LINE",
"285 700 LINE",
"191 700 LINE",
"51 0 LINE",
"159 -10 LINE",
"266 526 LINE",
"246 526 LINE",
"426 82 LINE",
"478 82 LINE",
"833 526 LINE",
"800 526 LINE",
"690 -27 LINE SMOOTH",
"674 -108 OFFCURVE",
"586 -127 OFFCURVE",
"529 -85 CURVE",
"480 -168 LINE"
);
},
{
closed = 1;
nodes = (
"159 -10 LINE",
"159 40 LINE",
"-52 40 LINE",
"-52 -10 LINE"
);
},
{
closed = 1;
nodes = (
"911 -10 LINE",
"911 40 LINE",
"762 40 LINE",
"752 -10 LINE"
);
}
);
width = 959;
},
{
anchors = (
{
name = bottom;
position = "{425, 0}";
},
{
name = top;
position = "{565, 700}";
}
);
layerId = "5DA6E103-6A94-47F2-987D-4952DB8EA68E";
paths = (
{
closed = 1;
nodes = (
"657 -255 OFFCURVE",
"811 -179 OFFCURVE",
"851 22 CURVE SMOOTH",
"985 700 LINE",
"784 700 LINE",
"424 243 LINE",
"526 243 LINE",
"339 700 LINE",
"147 700 LINE",
"7 0 LINE",
"219 -17 LINE",
"297 376 LINE",
"257 379 LINE",
"393 63 LINE",
"497 63 LINE",
"739 378 LINE",
"705 376 LINE",
"639 37 LINE SMOOTH",
"626 -31 OFFCURVE",
"577 -50 OFFCURVE",
"499 -18 CURVE",
"444 -177 LINE"
);
},
{
closed = 1;
nodes = (
"219 -17 LINE",
"216 73 LINE",
"-51 73 LINE",
"-51 -17 LINE"
);
},
{
closed = 1;
nodes = (
"911 -17 LINE",
"911 73 LINE",
"738 73 LINE",
"722 -17 LINE"
);
}
);
width = 958;
}
);
leftKerningGroup = H;
rightKerningGroup = H;
unicode = 2C6E;
},
{
glyphname = Mturned;
layers = (
{
layerId = UUID0;
paths = (
{
closed = 1;
nodes = (
"414 -3 OFFCURVE",
"509 51 OFFCURVE",
"565 182 CURVE",
"561 182 LINE",
"559 59 OFFCURVE",
"632 -3 OFFCURVE",
"758 -3 CURVE SMOOTH",
"864 -3 OFFCURVE",
"958 45 OFFCURVE",
"1010 151 CURVE",
"1005 156 LINE",
"971 -3 LINE",
"991 0 LINE",
"1143 700 LINE",
"1123 700 LINE",
"1027 255 LINE SMOOTH",
"991 89 OFFCURVE",
"890 16 OFFCURVE",
"760 16 CURVE SMOOTH",
"618 16 OFFCURVE",
"556 96 OFFCURVE",
"591 259 CURVE SMOOTH",
"686 700 LINE",
"665 700 LINE",
"575 279 LINE SMOOTH",
"536 97 OFFCURVE",
"439 16 OFFCURVE",
"304 16 CURVE SMOOTH",
"161 16 OFFCURVE",
"98 96 OFFCURVE",
"133 259 CURVE SMOOTH",
"228 700 LINE",
"209 700 LINE",
"114 258 LINE SMOOTH",
"77 85 OFFCURVE",
"153 -3 OFFCURVE",
"303 -3 CURVE SMOOTH"
);
},
{
closed = 1;
nodes = (
"303 -3 LINE",
"303 16 LINE",
"-52 16 LINE",
"-52 -3 LINE"
);
},
{
closed = 1;
nodes = (
"1139 -3 LINE",
"1139 16 LINE",
"976 16 LINE",
"971 -3 LINE"
);
}
);
width = 1187;
},
{
layerId = "C4221BDF-4AE8-4E40-821A-B2476087DE1A";
paths = (
{
closed = 1;
nodes = (
"428 -10 OFFCURVE",
"516 42 OFFCURVE",
"572 130 CURVE",
"536 132 LINE",
"546 46 OFFCURVE",
"628 -10 OFFCURVE",
"748 -10 CURVE SMOOTH",
"861 -10 OFFCURVE",
"945 40 OFFCURVE",
"996 120 CURVE",
"975 136 LINE",
"945 -10 LINE",
"1057 -1 LINE",
"1197 700 LINE",
"1083 700 LINE",
"1000 281 LINE SMOOTH",
"974 148 OFFCURVE",
"884 92 OFFCURVE",
"785 92 CURVE SMOOTH",
"687 92 OFFCURVE",
"636 147 OFFCURVE",
"660 269 CURVE SMOOTH",
"746 700 LINE",
"632 700 LINE",
"549 281 LINE SMOOTH",
"523 150 OFFCURVE",
"439 92 OFFCURVE",
"339 92 CURVE SMOOTH",
"241 92 OFFCURVE",
"185 147 OFFCURVE",
"209 269 CURVE SMOOTH",
"295 700 LINE",
"181 700 LINE",
"95 265 LINE SMOOTH",
"60 86 OFFCURVE",
"147 -10 OFFCURVE",
"309 -10 CURVE SMOOTH"
);
},
{
closed = 1;
nodes = (
"309 -10 LINE",
"309 40 LINE",
"-52 40 LINE",
"-52 -10 LINE"
);
},
{
closed = 1;
nodes = (
"1162 -10 LINE",
"1162 40 LINE",
"970 40 LINE",
"945 -10 LINE"
);
}
);
width = 1210;
},
{
layerId = "5DA6E103-6A94-47F2-987D-4952DB8EA68E";
paths = (
{
closed = 1;
nodes = (
"381 -17 OFFCURVE",
"478 35 OFFCURVE",
"543 140 CURVE",
"476 148 LINE",
"489 39 OFFCURVE",
"554 -17 OFFCURVE",
"672 -17 CURVE SMOOTH",
"787 -17 OFFCURVE",
"866 37 OFFCURVE",
"919 134 CURVE",
"904 175 LINE",
"864 -17 LINE",
"1096 -1 LINE",
"1236 700 LINE",
"1000 700 LINE",
"918 289 LINE SMOOTH",
"903 212 OFFCURVE",
"856 174 OFFCURVE",
"798 174 CURVE SMOOTH",
"741 174 OFFCURVE",
"713 210 OFFCURVE",
"727 281 CURVE SMOOTH",
"810 700 LINE",
"574 700 LINE",
"492 289 LINE SMOOTH",
"477 212 OFFCURVE",
"426 174 OFFCURVE",
"364 174 CURVE SMOOTH",
"303 174 OFFCURVE",
"271 210 OFFCURVE",
"285 281 CURVE SMOOTH",
"368 700 LINE",
"132 700 LINE",
"47 274 LINE SMOOTH",
"9 84 OFFCURVE",
"108 -17 OFFCURVE",
"263 -17 CURVE SMOOTH"
);
},
{
closed = 1;
nodes = (
"263 -17 LINE",
"260 73 LINE",
"-51 73 LINE",
"-51 -17 LINE"
);
},
{
closed = 1;
nodes = (
"1160 -17 LINE",
"1160 73 LINE",
"922 73 LINE",
"864 -17 LINE"
);
}
);
width = 1207;
}
);
leftKerningGroup = U;
rightKerningGroup = H;
unicode = 019C;
},
{
glyphname = N;
layers = (
{
anchors = (
{
name = bottom;
position = "{356, 0}";
},
{
name = top;
position = "{496, 700}";
}
);
layerId = UUID0;
paths = (
{
closed = 1;
nodes = (
"100 -3 LINE",
"236 675 LINE",
"228 678 LINE",
"616 -3 LINE",
"631 -3 LINE",
"771 700 LINE",
"751 700 LINE",
"616 25 LINE",
"624 22 LINE",
"238 700 LINE",
"221 700 LINE",
"80 -3 LINE"
);
},
{
closed = 1;
nodes = (
"-54 -3 LINE",
"99 -3 LINE",
"99 16 LINE",
"-54 16 LINE"
);
},
{
closed = 1;
nodes = (
"617 -3 LINE",
"770 -3 LINE",
"770 16 LINE",
"617 16 LINE"
);
}
);
width = 816;
},
{
anchors = (
{
name = bottom;
position = "{347, 0}";
},
{
name = top;
position = "{487, 700}";
}
);
layerId = "5DA6E103-6A94-47F2-987D-4952DB8EA68E";
paths = (
{
closed = 1;
nodes = (
"229 -17 LINE",
"317 426 LINE",
"235 426 LINE",
"508 -17 LINE",
"692 0 LINE",
"832 700 LINE",
"602 700 LINE",
"517 274 LINE",
"599 274 LINE",
"336 700 LINE",
"142 700 LINE",
"2 0 LINE"
);
},
{
closed = 1;
nodes = (
"-50 -17 LINE",
"229 -17 LINE",
"231 73 LINE",
"-50 73 LINE"
);
},
{
closed = 1;
nodes = (
"508 -17 LINE",
"756 -17 LINE",
"756 73 LINE",
"500 73 LINE"
);
}
);
width = 804;
},
{
anchors = (
{
name = bottom;
position = "{353, 0}";
},
{
name = top;
position = "{493, 700}";
}
);
layerId = "C4221BDF-4AE8-4E40-821A-B2476087DE1A";
paths = (
{
closed = 1;
nodes = (
"159 -10 LINE",
"272 555 LINE",
"237 560 LINE",
"570 -10 LINE",
"658 0 LINE",
"798 700 LINE",
"684 700 LINE",
"573 145 LINE",
"608 140 LINE",
"281 700 LINE",
"187 700 LINE",
"47 0 LINE"
);
},
{
closed = 1;
nodes = (
"-55 -10 LINE",
"159 -10 LINE",
"159 40 LINE",
"-55 40 LINE"
);
},
{
closed = 1;
nodes = (
"570 -10 LINE",
"766 -10 LINE",
"766 40 LINE",
"588 40 LINE"
);
}
);
width = 811;
}
);
leftKerningGroup = H;
rightKerningGroup = H;
unicode = 004E;
},
{
glyphname = Nhookleft;
layers = (
{
anchors = (
{
name = bottom;
position = "{354, 0}";
},
{
name = top;
position = "{496, 700}";
}
);
layerId = UUID0;
paths = (
{
closed = 1;
nodes = (
"-42 -226 OFFCURVE",
"72 -178 OFFCURVE",
"92 -78 CURVE SMOOTH",
"192 423 LINE SMOOTH",
"227 600 OFFCURVE",
"341 684 OFFCURVE",
"492 684 CURVE SMOOTH",
"651 684 OFFCURVE",
"726 592 OFFCURVE",
"689 410 CURVE SMOOTH",
"606 -3 LINE",
"627 0 LINE",
"709 411 LINE SMOOTH",
"747 603 OFFCURVE",
"660 703 OFFCURVE",
"494 703 CURVE SMOOTH",
"368 703 OFFCURVE",
"266 647 OFFCURVE",
"208 526 CURVE",
"212 524 LINE",
"247 700 LINE",
"227 700 LINE",
"72 -74 LINE SMOOTH",
"55 -161 OFFCURVE",
"-41 -202 OFFCURVE",
"-113 -160 CURVE",
"-122 -178 LINE"
);
},
{
closed = 1;
nodes = (
"99 -3 LINE",
"103 16 LINE",
"-52 16 LINE",
"-52 -3 LINE"
);
},
{
closed = 1;
nodes = (
"745 -3 LINE",
"745 16 LINE",
"612 16 LINE",
"606 -3 LINE"
);
}
);
width = 793;
},
{
anchors = (
{
name = bottom;
position = "{351, 0}";
},
{
name = top;
position = "{492, 700}";
}
);
layerId = "C4221BDF-4AE8-4E40-821A-B2476087DE1A";
paths = (
{
closed = 1;
nodes = (
"0 -236 OFFCURVE",
"131 -178 OFFCURVE",
"156 -51 CURVE SMOOTH",
"247 405 LINE SMOOTH",
"275 545 OFFCURVE",
"365 607 OFFCURVE",
"476 607 CURVE SMOOTH",
"596 607 OFFCURVE",
"650 538 OFFCURVE",
"622 400 CURVE SMOOTH",
"540 -10 LINE",
"656 0 LINE",
"735 396 LINE SMOOTH",
"775 595 OFFCURVE",
"676 709 OFFCURVE",
"508 709 CURVE SMOOTH",
"397 709 OFFCURVE",
"311 663 OFFCURVE",
"255 581 CURVE",
"268 530 LINE",
"302 700 LINE",
"192 700 LINE",
"45 -32 LINE SMOOTH",
"32 -98 OFFCURVE",
"-11 -119 OFFCURVE",
"-81 -94 CURVE",
"-118 -181 LINE"
);
},
{
closed = 1;
nodes = (
"112 -10 LINE",
"122 40 LINE",
"-52 40 LINE",
"-52 -10 LINE"
);
},
{
closed = 1;
nodes = (
"744 -10 LINE",
"744 40 LINE",
"600 40 LINE",
"540 -10 LINE"
);
}
);
width = 792;
},
{
anchors = (
{
name = bottom;
position = "{348, 0}";
},
{
name = top;
position = "{488, 700}";
}
);
layerId = "5DA6E103-6A94-47F2-987D-4952DB8EA68E";
paths = (
{
closed = 1;
nodes = (
"55 -258 OFFCURVE",
"205 -192 OFFCURVE",
"243 0 CURVE SMOOTH",
"321 390 LINE SMOOTH",
"339 478 OFFCURVE",
"385 525 OFFCURVE",
"455 525 CURVE SMOOTH",
"525 525 OFFCURVE",
"553 478 OFFCURVE",
"535 389 CURVE SMOOTH",
"454 -17 LINE",
"693 0 LINE",
"770 385 LINE SMOOTH",
"810 585 OFFCURVE",
"724 716 OFFCURVE",
"553 716 CURVE SMOOTH",
"456 716 OFFCURVE",
"373 668 OFFCURVE",
"319 581 CURVE",
"343 536 LINE",
"376 700 LINE",
"147 700 LINE",
"11 23 LINE SMOOTH",
"1 -28 OFFCURVE",
"-28 -39 OFFCURVE",
"-101 -16 CURVE",
"-158 -172 LINE"
);
},
{
closed = 1;
nodes = (
"121 -17 LINE",
"137 73 LINE",
"-51 73 LINE",
"-51 -17 LINE"
);
},
{
closed = 1;
nodes = (
"747 -17 LINE",
"747 73 LINE",
"478 73 LINE",
"454 -17 LINE"
);
}
);
width = 794;
}
);
leftKerningGroup = j;
rightKerningGroup = N.ss01;
unicode = 019D;
},
{
glyphname = Nlongrightleg;
layers = (
{
anchors = (
{
name = bottom;
position = "{347, 0}";
},
{
name = top;
position = "{489, 700}";
}
);
layerId = UUID0;
paths = (
{
closed = 1;
nodes = (
"586 -194 LINE",
"707 411 LINE SMOOTH",
"745 603 OFFCURVE",
"658 703 OFFCURVE",
"492 703 CURVE SMOOTH",
"366 703 OFFCURVE",
"264 647 OFFCURVE",
"206 526 CURVE",
"210 524 LINE",
"245 700 LINE",
"225 700 LINE",
"85 0 LINE",
"104 -3 LINE",
"190 423 LINE SMOOTH",
"226 601 OFFCURVE",
"339 684 OFFCURVE",
"490 684 CURVE SMOOTH",
"649 684 OFFCURVE",
"723 592 OFFCURVE",
"687 410 CURVE SMOOTH",
"566 -194 LINE"
);
},
{
closed = 1;
nodes = (
"104 -3 LINE",
"102 16 LINE",
"-52 16 LINE",
"-52 -3 LINE"
);
},
{
closed = 1;
nodes = (
"745 -3 LINE",
"745 16 LINE",
"617 16 LINE",
"611 -3 LINE"
);
}
);
width = 793;
},
{
anchors = (
{
name = bottom;
position = "{363, 0}";
},
{
name = top;
position = "{504, 700}";
}
);
layerId = "C4221BDF-4AE8-4E40-821A-B2476087DE1A";
paths = (
{
closed = 1;
nodes = (
"616 -194 LINE",
"734 396 LINE SMOOTH",
"774 595 OFFCURVE",
"675 709 OFFCURVE",
"507 709 CURVE SMOOTH",
"396 709 OFFCURVE",
"310 663 OFFCURVE",
"254 581 CURVE",
"267 530 LINE",
"301 700 LINE",
"191 700 LINE",
"51 0 LINE",
"163 -10 LINE",
"246 405 LINE SMOOTH",
"274 545 OFFCURVE",
"364 607 OFFCURVE",
"475 607 CURVE SMOOTH",
"595 607 OFFCURVE",
"649 538 OFFCURVE",
"621 400 CURVE SMOOTH",
"502 -194 LINE"
);
},
{
closed = 1;
nodes = (
"163 -10 LINE",
"143 40 LINE",
"-52 40 LINE",
"-52 -10 LINE"
);
},
{
closed = 1;
nodes = (
"745 -10 LINE",
"745 40 LINE",
"598 40 LINE",
"598 -10 LINE"
);
}
);
width = 793;
},
{
anchors = (
{
name = bottom;
position = "{354, 0}";
},
{
name = top;
position = "{494, 700}";
}
);
layerId = "5DA6E103-6A94-47F2-987D-4952DB8EA68E";
paths = (
{
closed = 1;
nodes = (
"649 -194 LINE",
"765 385 LINE SMOOTH",
"806 589 OFFCURVE",
"715 716 OFFCURVE",
"548 716 CURVE SMOOTH",
"454 716 OFFCURVE",
"369 670 OFFCURVE",
"314 581 CURVE",
"338 536 LINE",
"371 700 LINE",
"142 700 LINE",
"2 0 LINE",
"234 -17 LINE",
"316 390 LINE SMOOTH",
"336 489 OFFCURVE",
"389 525 OFFCURVE",
"450 525 CURVE SMOOTH",
"518 525 OFFCURVE",
"548 480 OFFCURVE",
"530 389 CURVE SMOOTH",
"413 -194 LINE"
);
},
{
closed = 1;
nodes = (
"234 -17 LINE",
"215 73 LINE",
"-51 73 LINE",
"-51 -17 LINE"
);
},
{
closed = 1;
nodes = (
"759 -17 LINE",
"759 73 LINE",
"590 73 LINE",
"566 -17 LINE"
);
}
);
width = 806;
}
);
leftKerningGroup = H;
rightKerningGroup = H;
unicode = 0220;
},
{
glyphname = Eng;
layers = (
{
layerId = UUID0;
paths = (
{
closed = 1;
nodes = (
"100 -3 LINE",
"236 677 LINE",
"228 678 LINE",
"614 1 LINE",
"624 23 LINE",
"238 700 LINE",
"221 700 LINE",
"80 -3 LINE"
);
},
{
closed = 1;
nodes = (
"537 -197 OFFCURVE",
"602 -145 OFFCURVE",
"630 -4 CURVE SMOOTH",
"771 700 LINE",
"751 700 LINE",
"611 2 LINE SMOOTH",
"584 -131 OFFCURVE",
"527 -178 OFFCURVE",
"434 -178 CURVE SMOOTH",
"361 -178 OFFCURVE",
"307 -143 OFFCURVE",
"282 -88 CURVE",
"264 -98 LINE",
"289 -157 OFFCURVE",
"352 -197 OFFCURVE",
"431 -197 CURVE SMOOTH"
);
},
{
closed = 1;
nodes = (
"-54 -3 LINE",
"99 -3 LINE",
"99 16 LINE",
"-54 16 LINE"
);
},
{
closed = 1;
nodes = (
"617 -3 LINE",
"770 -3 LINE",
"770 16 LINE",
"617 16 LINE"
);
}
);
width = 816;
},
{
layerId = "5DA6E103-6A94-47F2-987D-4952DB8EA68E";
paths = (
{
closed = 1;
nodes = (
"229 -17 LINE",
"317 426 LINE",
"235 426 LINE",
"498 0 LINE",
"599 274 LINE",
"336 700 LINE",
"142 700 LINE",
"2 0 LINE"
);
},
{
closed = 1;
nodes = (
"553 -204 OFFCURVE",
"664 -142 OFFCURVE",
"712 100 CURVE SMOOTH",
"832 700 LINE",
"602 700 LINE",
"475 67 LINE SMOOTH",
"462 0 OFFCURVE",
"435 -20 OFFCURVE",
"390 -20 CURVE SMOOTH",
"362 -20 OFFCURVE",
"336 -11 OFFCURVE",
"313 5 CURVE",
"192 -148 LINE",
"242 -184 OFFCURVE",
"319 -204 OFFCURVE",
"385 -204 CURVE SMOOTH"
);
},
{
closed = 1;
nodes = (
"-50 -17 LINE",
"229 -17 LINE",
"231 73 LINE",
"-50 73 LINE"
);
},
{
closed = 1;
nodes = (
"508 -17 LINE",
"756 -17 LINE",
"756 73 LINE",
"500 73 LINE"
);
}
);
width = 804;
},
{
layerId = "C4221BDF-4AE8-4E40-821A-B2476087DE1A";
paths = (
{
closed = 1;
nodes = (
"159 -10 LINE",
"272 555 LINE",
"237 560 LINE",
"564 0 LINE",
"608 140 LINE",
"281 700 LINE",
"187 700 LINE",
"47 0 LINE"
);
},
{
closed = 1;
nodes = (
"547 -200 OFFCURVE",
"629 -144 OFFCURVE",
"667 46 CURVE SMOOTH",
"798 700 LINE",
"684 700 LINE",
"549 24 LINE SMOOTH",
"531 -67 OFFCURVE",
"489 -102 OFFCURVE",
"417 -102 CURVE SMOOTH",
"365 -102 OFFCURVE",
"322 -79 OFFCURVE",
"296 -43 CURVE",
"232 -122 LINE",
"267 -170 OFFCURVE",
"339 -200 OFFCURVE",
"414 -200 CURVE SMOOTH"
);
},
{
closed = 1;
nodes = (
"-55 -10 LINE",
"159 -10 LINE",
"159 40 LINE",
"-55 40 LINE"
);
},
{
closed = 1;
nodes = (
"570 -10 LINE",
"766 -10 LINE",
"766 40 LINE",
"588 40 LINE"
);
}
);
width = 811;
}
);
leftKerningGroup = H;
rightKerningGroup = H;
unicode = 014A;
},
{
glyphname = O;
layers = (
{
anchors = (
{
name = bottom;
position = "{366, 0}";
},
{
name = center;
position = "{435, 350}";
},
{
name = ogonek;
position = "{417, 0}";
},
{
name = top;
position = "{506, 700}";
},
{
name = topleft;
position = "{147, 700}";
},
{
name = topright;
position = "{755, 700}";
}
);
guideLines = (
{
angle = 90;
position = "{1572, 734}";
}
);
layerId = UUID0;
paths = (
{
closed = 1;
nodes = (
"644 -3 OFFCURVE",
"802 196 OFFCURVE",
"802 420 CURVE SMOOTH",
"802 589 OFFCURVE",
"691 703 OFFCURVE",
"487 703 CURVE SMOOTH",
"229 703 OFFCURVE",
"71 504 OFFCURVE",
"71 280 CURVE SMOOTH",
"71 111 OFFCURVE",
"182 -3 OFFCURVE",
"386 -3 CURVE SMOOTH"
);
},
{
closed = 1;
nodes = (
"192 16 OFFCURVE",
"91 123 OFFCURVE",
"91 280 CURVE SMOOTH",
"91 499 OFFCURVE",
"246 684 OFFCURVE",
"485 684 CURVE SMOOTH",
"681 684 OFFCURVE",
"782 577 OFFCURVE",
"782 420 CURVE SMOOTH",
"782 201 OFFCURVE",
"627 16 OFFCURVE",
"388 16 CURVE SMOOTH"
);
},
{
closed = 1;
nodes = (
"-54 -3 LINE",
"790 -3 LINE",
"790 16 LINE",
"-54 16 LINE"
);
}
);
width = 836;
},
{
anchors = (
{
name = bottom;
position = "{369, 0}";
},
{
name = center;
position = "{439, 350}";
},
{
name = ogonek;
position = "{492, 0}";
},
{
name = top;
position = "{509, 700}";
},
{
name = topleft;
position = "{119, 700}";
},
{
name = topright;
position = "{675, 700}";
}
);
guideLines = (
{
angle = 90;
position = "{1323, 664}";
}
);
layerId = "5DA6E103-6A94-47F2-987D-4952DB8EA68E";
paths = (
{
closed = 1;
nodes = (
"653 -16 OFFCURVE",
"837 156 OFFCURVE",
"837 403 CURVE SMOOTH",
"837 587 OFFCURVE",
"700 716 OFFCURVE",
"482 716 CURVE SMOOTH",
"225 716 OFFCURVE",
"41 544 OFFCURVE",
"41 297 CURVE SMOOTH",
"41 113 OFFCURVE",
"178 -16 OFFCURVE",
"396 -16 CURVE SMOOTH"
);
},
{
closed = 1;
nodes = (
"330 175 OFFCURVE",
"279 230 OFFCURVE",
"279 311 CURVE SMOOTH",
"279 426 OFFCURVE",
"346 525 OFFCURVE",
"462 525 CURVE SMOOTH",
"548 525 OFFCURVE",
"599 470 OFFCURVE",
"599 389 CURVE SMOOTH",
"599 274 OFFCURVE",
"532 175 OFFCURVE",
"416 175 CURVE SMOOTH"
);
},
{
closed = 1;
nodes = (
"-50 -17 LINE",
"800 -17 LINE",
"800 73 LINE",
"-50 73 LINE"
);
}
);
width = 848;
},
{
anchors = (
{
name = bottom;
position = "{367, 0}";
},
{
name = center;
position = "{437, 350}";
},
{
name = ogonek;
position = "{450, 0}";
},
{
name = top;
position = "{507, 700}";
},
{
name = topleft;
position = "{135, 700}";
},
{
name = topright;
position = "{720, 700}";
}
);
layerId = "C4221BDF-4AE8-4E40-821A-B2476087DE1A";
paths = (
{
closed = 1;
nodes = (
"648 -9 OFFCURVE",
"817 177 OFFCURVE",
"817 412 CURVE SMOOTH",
"817 588 OFFCURVE",
"695 709 OFFCURVE",
"485 709 CURVE SMOOTH",
"227 709 OFFCURVE",
"58 523 OFFCURVE",
"58 288 CURVE SMOOTH",
"58 112 OFFCURVE",
"180 -9 OFFCURVE",
"390 -9 CURVE SMOOTH"
);
},
{
closed = 1;
nodes = (
"252 93 OFFCURVE",
"173 175 OFFCURVE",
"173 295 CURVE SMOOTH",
"173 464 OFFCURVE",
"290 607 OFFCURVE",
"475 607 CURVE SMOOTH",
"623 607 OFFCURVE",
"702 525 OFFCURVE",
"702 405 CURVE SMOOTH",
"702 236 OFFCURVE",
"585 93 OFFCURVE",
"400 93 CURVE SMOOTH"
);
},
{
closed = 1;
nodes = (
"-55 -10 LINE",
"796 -10 LINE",
"796 40 LINE",
"-55 40 LINE"
);
}
);
width = 841;
}
);
leftKerningGroup = O;
rightKerningGroup = O;
unicode = 004F;
},
{
glyphname = OU;
layers = (
{
layerId = UUID0;
paths = (
{
closed = 1;
nodes = (
"526 -3 OFFCURVE",
"650 73 OFFCURVE",
"677 193 CURVE SMOOTH",
"711 337 OFFCURVE",
"601 427 OFFCURVE",
"394 427 CURVE SMOOTH",
"228 427 OFFCURVE",
"106 352 OFFCURVE",
"79 233 CURVE SMOOTH",
"45 88 OFFCURVE",
"151 -3 OFFCURVE",
"355 -3 CURVE SMOOTH"
);
},
{
closed = 1;
nodes = (
"168 17 OFFCURVE",
"68 100 OFFCURVE",
"98 231 CURVE SMOOTH",
"123 340 OFFCURVE",
"238 409 OFFCURVE",
"395 409 CURVE SMOOTH",
"588 409 OFFCURVE",
"689 326 OFFCURVE",
"658 195 CURVE SMOOTH",
"633 86 OFFCURVE",
"517 17 OFFCURVE",
"357 17 CURVE SMOOTH"
);
},
{
closed = 1;
nodes = (
"584 410 OFFCURVE",
"703 483 OFFCURVE",
"725 591 CURVE SMOOTH",
"746 700 LINE",
"726 700 LINE",
"705 593 LINE SMOOTH",
"684 493 OFFCURVE",
"575 428 OFFCURVE",
"427 428 CURVE SMOOTH",
"273 428 OFFCURVE",
"184 501 OFFCURVE",
"205 609 CURVE SMOOTH",
"224 700 LINE",
"204 700 LINE",
"186 611 LINE SMOOTH",
"162 491 OFFCURVE",
"258 410 OFFCURVE",
"426 410 CURVE SMOOTH"
);
},
{
closed = 1;
nodes = (
"-52 -3 LINE",
"728 -3 LINE",
"728 16 LINE",
"-52 16 LINE"
);
}
);
userData = {
RMXScaler = {
height = 94;
width = 115;
};
};
width = 776;
},
{
layerId = "C4221BDF-4AE8-4E40-821A-B2476087DE1A";
paths = (
{
closed = 1;
nodes = (
"543 -9 OFFCURVE",
"666 80 OFFCURVE",
"692 220 CURVE SMOOTH",
"718 363 OFFCURVE",
"591 454 OFFCURVE",
"397 454 CURVE",
"198 454 OFFCURVE",
"81 375 OFFCURVE",
"54 240 CURVE SMOOTH",
"25 96 OFFCURVE",
"140 -9 OFFCURVE",
"349 -9 CURVE SMOOTH"
);
},
{
closed = 1;
nodes = (
"215 89 OFFCURVE",
"154 158 OFFCURVE",
"169 242 CURVE SMOOTH",
"186 324 OFFCURVE",
"267 376 OFFCURVE",
"389 376 CURVE SMOOTH",
"532 376 OFFCURVE",
"594 306 OFFCURVE",
"577 222 CURVE SMOOTH",
"562 140 OFFCURVE",
"480 89 OFFCURVE",
"358 89 CURVE SMOOTH"
);
},
{
closed = 1;
nodes = (
"591 389 OFFCURVE",
"710 465 OFFCURVE",
"735 589 CURVE SMOOTH",
"757 700 LINE",
"643 700 LINE",
"623 602 LINE SMOOTH",
"605 514 OFFCURVE",
"538 466 OFFCURVE",
"430 466 CURVE SMOOTH",
"316 466 OFFCURVE",
"254 519 OFFCURVE",
"271 602 CURVE SMOOTH",
"291 700 LINE",
"177 700 LINE",
"159 612 LINE SMOOTH",
"131 474 OFFCURVE",
"225 389 OFFCURVE",
"414 389 CURVE SMOOTH"
);
},
{
closed = 1;
nodes = (
"-52 -10 LINE",
"713 -10 LINE",
"713 40 LINE",
"-52 40 LINE"
);
}
);
userData = {
RMXScaler = {
height = 95;
weight = 6;
width = 114;
};
};
width = 761;
},
{
layerId = "5DA6E103-6A94-47F2-987D-4952DB8EA68E";
paths = (
{
closed = 1;
nodes = (
"575 -11 OFFCURVE",
"727 76 OFFCURVE",
"753 219 CURVE SMOOTH",
"782 373 OFFCURVE",
"646 476 OFFCURVE",
"412 476 CURVE SMOOTH",
"196 476 OFFCURVE",
"46 386 OFFCURVE",
"19 244 CURVE SMOOTH",
"-9 91 OFFCURVE",
"128 -11 OFFCURVE",
"360 -11 CURVE SMOOTH"
);
},
{
closed = 1;
nodes = (
"290 154 OFFCURVE",
"239 191 OFFCURVE",
"250 250 CURVE SMOOTH",
"260 305 OFFCURVE",
"312 334 OFFCURVE",
"397 334 CURVE SMOOTH",
"488 334 OFFCURVE",
"538 301 OFFCURVE",
"530 243 CURVE SMOOTH",
"521 187 OFFCURVE",
"466 154 OFFCURVE",
"381 154 CURVE SMOOTH"
);
},
{
closed = 1;
nodes = (
"626 340 OFFCURVE",
"762 419 OFFCURVE",
"791 567 CURVE SMOOTH",
"817 700 LINE",
"585 700 LINE",
"560 572 LINE SMOOTH",
"548 514 OFFCURVE",
"506 484 OFFCURVE",
"441 484 CURVE SMOOTH",
"373 484 OFFCURVE",
"339 514 OFFCURVE",
"349 568 CURVE SMOOTH",
"375 700 LINE",
"143 700 LINE",
"118 575 LINE SMOOTH",
"88 426 OFFCURVE",
"205 340 OFFCURVE",
"420 340 CURVE SMOOTH"
);
},
{
closed = 1;
nodes = (
"-51 -17 LINE",
"743 -17 LINE",
"743 73 LINE",
"-51 73 LINE"
);
}
);
userData = {
RMXScaler = {
height = 95;
weight = 9;
width = 120;
};
};
width = 790;
}
);
leftKerningGroup = U;
rightKerningGroup = U;
unicode = 0222;
userData = {
RMXScaler = {
source = ou;
};
};
},
{
glyphname = Ohorn;
layers = (
{
anchors = (
{
name = bottom;
position = "{366, 0}";
},
{
name = top;
position = "{506, 700}";
}
);
layerId = UUID0;
paths = (
{
closed = 1;
nodes = (
"644 -3 OFFCURVE",
"802 196 OFFCURVE",
"802 420 CURVE SMOOTH",
"802 540 OFFCURVE",
"746 632 OFFCURVE",
"640 675 CURVE",
"637 674 LINE",
"661 671 OFFCURVE",
"685 669 OFFCURVE",
"721 669 CURVE SMOOTH",
"807 669 OFFCURVE",
"855 706 OFFCURVE",
"855 771 CURVE SMOOTH",
"855 797 OFFCURVE",
"846 825 OFFCURVE",
"833 845 CURVE",
"815 837 LINE",
"826 818 OFFCURVE",
"835 796 OFFCURVE",
"835 770 CURVE SMOOTH",
"835 719 OFFCURVE",
"795 688 OFFCURVE",
"722 688 CURVE SMOOTH",
"646 688 OFFCURVE",
"592 703 OFFCURVE",
"487 703 CURVE SMOOTH",
"229 703 OFFCURVE",
"71 504 OFFCURVE",
"71 280 CURVE SMOOTH",
"71 111 OFFCURVE",
"182 -3 OFFCURVE",
"386 -3 CURVE SMOOTH"
);
},
{
closed = 1;
nodes = (
"192 16 OFFCURVE",
"91 123 OFFCURVE",
"91 280 CURVE SMOOTH",
"91 499 OFFCURVE",
"246 684 OFFCURVE",
"485 684 CURVE SMOOTH",
"681 684 OFFCURVE",
"782 577 OFFCURVE",
"782 420 CURVE SMOOTH",
"782 201 OFFCURVE",
"627 16 OFFCURVE",
"388 16 CURVE SMOOTH"
);
},
{
closed = 1;
nodes = (
"-54 -3 LINE",
"790 -3 LINE",
"790 16 LINE",
"-54 16 LINE"
);
}
);
width = 836;
},
{
anchors = (
{
name = bottom;
position = "{369, 0}";
},
{
name = top;
position = "{509, 700}";
}
);
layerId = "5DA6E103-6A94-47F2-987D-4952DB8EA68E";
paths = (
{
closed = 1;
nodes = (
"653 -16 OFFCURVE",
"837 156 OFFCURVE",
"837 403 CURVE SMOOTH",
"837 488 OFFCURVE",
"808 562 OFFCURVE",
"755 615 CURVE",
"633 564 LINE",
"664 560 OFFCURVE",
"684 557 OFFCURVE",
"705 557 CURVE SMOOTH",
"827 557 OFFCURVE",
"915 626 OFFCURVE",
"915 749 CURVE SMOOTH",
"915 797 OFFCURVE",
"901 834 OFFCURVE",
"878 863 CURVE",
"750 818 LINE",
"762 804 OFFCURVE",
"770 783 OFFCURVE",
"770 761 CURVE SMOOTH",
"770 724 OFFCURVE",
"743 695 OFFCURVE",
"695 695 CURVE SMOOTH",
"642 695 OFFCURVE",
"592 716 OFFCURVE",
"482 716 CURVE SMOOTH",
"225 716 OFFCURVE",
"41 544 OFFCURVE",
"41 297 CURVE SMOOTH",
"41 113 OFFCURVE",
"178 -16 OFFCURVE",
"396 -16 CURVE SMOOTH"
);
},
{
closed = 1;
nodes = (
"330 175 OFFCURVE",
"279 230 OFFCURVE",
"279 311 CURVE SMOOTH",
"279 426 OFFCURVE",
"346 525 OFFCURVE",
"462 525 CURVE SMOOTH",
"548 525 OFFCURVE",
"599 470 OFFCURVE",
"599 389 CURVE SMOOTH",
"599 274 OFFCURVE",
"532 175 OFFCURVE",
"416 175 CURVE SMOOTH"
);
},
{
closed = 1;
nodes = (
"-50 -17 LINE",
"800 -17 LINE",
"800 73 LINE",
"-50 73 LINE"
);
}
);
width = 848;
},
{
anchors = (
{
name = bottom;
position = "{367, 0}";
},
{
name = top;
position = "{507, 700}";
}
);
layerId = "C4221BDF-4AE8-4E40-821A-B2476087DE1A";
paths = (
{
closed = 1;
nodes = (
"648 -9 OFFCURVE",
"817 177 OFFCURVE",
"817 412 CURVE SMOOTH",
"817 504 OFFCURVE",
"783 580 OFFCURVE",
"722 633 CURVE",
"682 620 LINE",
"698 618 OFFCURVE",
"716 616 OFFCURVE",
"732 616 CURVE SMOOTH",
"820 616 OFFCURVE",
"880 672 OFFCURVE",
"880 761 CURVE SMOOTH",
"880 797 OFFCURVE",
"868 829 OFFCURVE",
"851 853 CURVE",
"782 827 LINE",
"794 811 OFFCURVE",
"802 789 OFFCURVE",
"802 765 CURVE SMOOTH",
"802 720 OFFCURVE",
"768 692 OFFCURVE",
"707 692 CURVE SMOOTH",
"628 692 OFFCURVE",
"576 709 OFFCURVE",
"485 709 CURVE SMOOTH",
"227 709 OFFCURVE",
"58 523 OFFCURVE",
"58 288 CURVE SMOOTH",
"58 112 OFFCURVE",
"180 -9 OFFCURVE",
"390 -9 CURVE SMOOTH"
);
},
{
closed = 1;
nodes = (
"252 93 OFFCURVE",
"173 175 OFFCURVE",
"173 295 CURVE SMOOTH",
"173 464 OFFCURVE",
"290 607 OFFCURVE",
"475 607 CURVE SMOOTH",
"623 607 OFFCURVE",
"702 525 OFFCURVE",
"702 405 CURVE SMOOTH",
"702 236 OFFCURVE",
"585 93 OFFCURVE",
"400 93 CURVE SMOOTH"
);
},
{
closed = 1;
nodes = (
"-55 -10 LINE",
"796 -10 LINE",
"796 40 LINE",
"-55 40 LINE"
);
}
);
width = 841;
}
);
leftKerningGroup = O;
rightKerningGroup = O;
unicode = 01A0;
},
{
glyphname = "Omega-latin";
layers = (
{
layerId = UUID0;
paths = (
{
closed = 1;
nodes = (
"419 -3 OFFCURVE",
"514 87 OFFCURVE",
"542 222 CURVE",
"532 222 LINE",
"507 98 OFFCURVE",
"591 -3 OFFCURVE",
"717 -3 CURVE SMOOTH",
"857 -3 OFFCURVE",
"964 122 OFFCURVE",
"1002 324 CURVE SMOOTH",
"1028 463 OFFCURVE",
"1012 589 OFFCURVE",
"949 700 CURVE",
"924 700 LINE",
"989 592 OFFCURVE",
"1008 463 OFFCURVE",
"982 324 CURVE SMOOTH",
"947 136 OFFCURVE",
"846 16 OFFCURVE",
"716 16 CURVE SMOOTH",
"599 16 OFFCURVE",
"524 114 OFFCURVE",
"548 235 CURVE SMOOTH",
"584 415 LINE",
"564 415 LINE",
"528 235 LINE SMOOTH",
"502 103 OFFCURVE",
"412 16 OFFCURVE",
"300 16 CURVE SMOOTH",
"165 16 OFFCURVE",
"95 144 OFFCURVE",
"130 323 CURVE SMOOTH",
"156 457 OFFCURVE",
"236 600 OFFCURVE",
"338 700 CURVE",
"313 700 LINE",
"210 594 OFFCURVE",
"135 454 OFFCURVE",
"110 324 CURVE SMOOTH",
"73 133 OFFCURVE",
"151 -3 OFFCURVE",
"299 -3 CURVE SMOOTH"
);
},
{
closed = 1;
nodes = (
"-52 -3 LINE",
"299 -3 LINE",
"299 16 LINE",
"-52 16 LINE"
);
},
{
closed = 1;
nodes = (
"717 -3 LINE",
"1038 -3 LINE",
"1038 16 LINE",
"717 16 LINE"
);
}
);
width = 1086;
},
{
layerId = "C4221BDF-4AE8-4E40-821A-B2476087DE1A";
paths = (
{
closed = 1;
nodes = (
"419 -10 OFFCURVE",
"519 89 OFFCURVE",
"551 251 CURVE",
"488 251 LINE",
"458 100 OFFCURVE",
"540 -10 OFFCURVE",
"684 -10 CURVE SMOOTH",
"843 -10 OFFCURVE",
"959 124 OFFCURVE",
"1002 350 CURVE SMOOTH",
"1029 493 OFFCURVE",
"1016 609 OFFCURVE",
"966 700 CURVE",
"838 700 LINE",
"895 605 OFFCURVE",
"911 486 OFFCURVE",
"887 353 CURVE SMOOTH",
"857 189 OFFCURVE",
"784 93 OFFCURVE",
"687 93 CURVE SMOOTH",
"601 93 OFFCURVE",
"563 170 OFFCURVE",
"585 280 CURVE SMOOTH",
"616 435 LINE",
"496 435 LINE",
"465 280 LINE SMOOTH",
"441 161 OFFCURVE",
"384 93 OFFCURVE",
"304 93 CURVE SMOOTH",
"205 93 OFFCURVE",
"160 196 OFFCURVE",
"191 350 CURVE SMOOTH",
"217 480 OFFCURVE",
"288 610 OFFCURVE",
"383 700 CURVE",
"255 700 LINE",
"171 617 OFFCURVE",
"103 484 OFFCURVE",
"77 351 CURVE SMOOTH",
"35 135 OFFCURVE",
"117 -10 OFFCURVE",
"283 -10 CURVE SMOOTH"
);
},
{
closed = 1;
nodes = (
"-52 -10 LINE",
"283 -10 LINE",
"283 40 LINE",
"-52 40 LINE"
);
},
{
closed = 1;
nodes = (
"684 -10 LINE",
"997 -10 LINE",
"997 40 LINE",
"684 40 LINE"
);
}
);
width = 1045;
},
{
layerId = "5DA6E103-6A94-47F2-987D-4952DB8EA68E";
paths = (
{
closed = 1;
nodes = (
"413 -17 OFFCURVE",
"525 69 OFFCURVE",
"564 204 CURVE",
"459 204 LINE",
"444 84 OFFCURVE",
"549 -17 OFFCURVE",
"694 -17 CURVE SMOOTH",
"868 -17 OFFCURVE",
"998 128 OFFCURVE",
"1042 364 CURVE SMOOTH",
"1066 493 OFFCURVE",
"1057 612 OFFCURVE",
"1020 700 CURVE",
"799 700 LINE",
"817 601 OFFCURVE",
"819 468 OFFCURVE",
"797 348 CURVE SMOOTH",
"776 232 OFFCURVE",
"740 171 OFFCURVE",
"687 171 CURVE SMOOTH",
"645 171 OFFCURVE",
"626 211 OFFCURVE",
"638 271 CURVE SMOOTH",
"678 473 LINE",
"453 473 LINE",
"413 271 LINE SMOOTH",
"399 200 OFFCURVE",
"379 171 OFFCURVE",
"338 171 CURVE SMOOTH",
"279 171 OFFCURVE",
"260 231 OFFCURVE",
"284 348 CURVE SMOOTH",
"307 459 OFFCURVE",
"364 602 OFFCURVE",
"422 700 CURVE",
"200 700 LINE",
"132 617 OFFCURVE",
"73 486 OFFCURVE",
"50 365 CURVE SMOOTH",
"6 136 OFFCURVE",
"98 -17 OFFCURVE",
"278 -17 CURVE SMOOTH"
);
},
{
closed = 1;
nodes = (
"-51 -17 LINE",
"278 -17 LINE",
"278 73 LINE",
"-51 73 LINE"
);
},
{
closed = 1;
nodes = (
"694 -17 LINE",
"1009 -17 LINE",
"1009 73 LINE",
"694 73 LINE"
);
}
);
width = 1056;
}
);
leftKerningGroup = O;
rightKerningGroup = O;
unicode = A7B6;
},
{
glyphname = Oogonek;
layers = (
{
anchors = (
{
name = top;
position = "{506, 700}";
}
);
layerId = UUID0;
paths = (
{
closed = 1;
nodes = (
"347 -213 OFFCURVE",
"375 -204 OFFCURVE",
"398 -186 CURVE",
"390 -169 LINE",
"370 -185 OFFCURVE",
"344 -194 OFFCURVE",
"319 -194 CURVE SMOOTH",
"283 -194 OFFCURVE",
"262 -176 OFFCURVE",
"262 -142 CURVE SMOOTH",
"262 -88 OFFCURVE",
"322 -22 OFFCURVE",
"468 4 CURVE SMOOTH",
"676 41 OFFCURVE",
"802 219 OFFCURVE",
"802 420 CURVE SMOOTH",
"802 589 OFFCURVE",
"691 703 OFFCURVE",
"487 703 CURVE SMOOTH",
"229 703 OFFCURVE",
"71 504 OFFCURVE",
"71 280 CURVE SMOOTH",
"71 111 OFFCURVE",
"182 -2 OFFCURVE",
"386 -2 CURVE",
"383 0 LINE",
"284 -36 OFFCURVE",
"242 -89 OFFCURVE",
"242 -144 CURVE SMOOTH",
"242 -187 OFFCURVE",
"272 -213 OFFCURVE",
"317 -213 CURVE SMOOTH"
);
},
{
closed = 1;
nodes = (
"192 16 OFFCURVE",
"91 123 OFFCURVE",
"91 280 CURVE SMOOTH",
"91 499 OFFCURVE",
"246 684 OFFCURVE",
"485 684 CURVE SMOOTH",
"681 684 OFFCURVE",
"782 577 OFFCURVE",
"782 420 CURVE SMOOTH",
"782 201 OFFCURVE",
"627 16 OFFCURVE",
"388 16 CURVE SMOOTH"
);
},
{
closed = 1;
nodes = (
"-54 -3 LINE",
"790 -3 LINE",
"790 16 LINE",
"-54 16 LINE"
);
}
);
width = 836;
},
{
anchors = (
{
name = top;
position = "{509, 700}";
}
);
layerId = "5DA6E103-6A94-47F2-987D-4952DB8EA68E";
paths = (
{
closed = 1;
nodes = (
"409 -240 OFFCURVE",
"447 -230 OFFCURVE",
"474 -217 CURVE",
"465 -124 LINE",
"449 -131 OFFCURVE",
"427 -138 OFFCURVE",
"405 -138 CURVE SMOOTH",
"377 -138 OFFCURVE",
"359 -122 OFFCURVE",
"359 -97 CURVE SMOOTH",
"359 -67 OFFCURVE",
"383 -27 OFFCURVE",
"486 -9 CURVE SMOOTH",
"695 28 OFFCURVE",
"837 186 OFFCURVE",
"837 403 CURVE SMOOTH",
"837 587 OFFCURVE",
"700 716 OFFCURVE",
"482 716 CURVE SMOOTH",
"225 716 OFFCURVE",
"41 544 OFFCURVE",
"41 297 CURVE SMOOTH",
"41 113 OFFCURVE",
"178 -16 OFFCURVE",
"396 -16 CURVE",
"368 29 LINE",
"284 -4 OFFCURVE",
"220 -59 OFFCURVE",
"220 -132 CURVE SMOOTH",
"220 -200 OFFCURVE",
"278 -240 OFFCURVE",
"366 -240 CURVE SMOOTH"
);
},
{
closed = 1;
nodes = (
"330 175 OFFCURVE",
"279 230 OFFCURVE",
"279 311 CURVE SMOOTH",
"279 426 OFFCURVE",
"346 525 OFFCURVE",
"462 525 CURVE SMOOTH",
"548 525 OFFCURVE",
"599 470 OFFCURVE",
"599 389 CURVE SMOOTH",
"599 274 OFFCURVE",
"532 175 OFFCURVE",
"416 175 CURVE SMOOTH"
);
},
{
closed = 1;
nodes = (
"-50 -17 LINE",
"800 -17 LINE",
"800 73 LINE",
"-50 73 LINE"
);
}
);
width = 848;
},
{
anchors = (
{
name = top;
position = "{507, 700}";
}
);
layerId = "C4221BDF-4AE8-4E40-821A-B2476087DE1A";
paths = (
{
closed = 1;
nodes = (
"379 -226 OFFCURVE",
"410 -217 OFFCURVE",
"437 -203 CURVE",
"424 -147 LINE",
"405 -157 OFFCURVE",
"381 -163 OFFCURVE",
"358 -163 CURVE SMOOTH",
"328 -163 OFFCURVE",
"308 -148 OFFCURVE",
"308 -120 CURVE SMOOTH",
"308 -77 OFFCURVE",
"354 -29 OFFCURVE",
"495 2 CURVE SMOOTH",
"689 44 OFFCURVE",
"817 207 OFFCURVE",
"817 412 CURVE SMOOTH",
"817 588 OFFCURVE",
"695 709 OFFCURVE",
"485 709 CURVE SMOOTH",
"227 709 OFFCURVE",
"58 523 OFFCURVE",
"58 288 CURVE SMOOTH",
"58 112 OFFCURVE",
"180 -9 OFFCURVE",
"390 -9 CURVE",
"375 25 LINE",
"271 -13 OFFCURVE",
"229 -71 OFFCURVE",
"229 -134 CURVE SMOOTH",
"229 -193 OFFCURVE",
"276 -226 OFFCURVE",
"341 -226 CURVE SMOOTH"
);
},
{
closed = 1;
nodes = (
"252 93 OFFCURVE",
"173 175 OFFCURVE",
"173 295 CURVE SMOOTH",
"173 464 OFFCURVE",
"290 607 OFFCURVE",
"475 607 CURVE SMOOTH",
"623 607 OFFCURVE",
"702 525 OFFCURVE",
"702 405 CURVE SMOOTH",
"702 236 OFFCURVE",
"585 93 OFFCURVE",
"400 93 CURVE SMOOTH"
);
},
{
closed = 1;
nodes = (
"-55 -10 LINE",
"796 -10 LINE",
"796 40 LINE",
"-55 40 LINE"
);
}
);
width = 841;
}
);
leftKerningGroup = O;
rightKerningGroup = O;
unicode = 01EA;
},
{
glyphname = Oopen;
layers = (
{
anchors = (
{
name = bottom;
position = "{304, 0}";
},
{
name = top;
position = "{444, 700}";
}
);
layerId = UUID0;
paths = (
{
closed = 1;
nodes = (
"257 703 OFFCURVE",
"162 668 OFFCURVE",
"104 614 CURVE",
"116 598 LINE",
"175 653 OFFCURVE",
"257 684 OFFCURVE",
"360 684 CURVE SMOOTH",
"556 684 OFFCURVE",
"657 577 OFFCURVE",
"657 420 CURVE SMOOTH",
"657 201 OFFCURVE",
"502 16 OFFCURVE",
"258 16 CURVE SMOOTH",
"157 16 OFFCURVE",
"83 44 OFFCURVE",
"35 98 CURVE",
"21 85 LINE",
"68 29 OFFCURVE",
"151 -3 OFFCURVE",
"256 -3 CURVE SMOOTH",
"519 -3 OFFCURVE",
"677 196 OFFCURVE",
"677 420 CURVE SMOOTH",
"677 589 OFFCURVE",
"566 703 OFFCURVE",
"362 703 CURVE SMOOTH"
);
},
{
closed = 1;
nodes = (
"-52 -3 LINE",
"663 -3 LINE",
"663 16 LINE",
"-52 16 LINE"
);
}
);
width = 711;
},
{
anchors = (
{
name = bottom;
position = "{310, 0}";
},
{
name = top;
position = "{450, 700}";
}
);
layerId = "C4221BDF-4AE8-4E40-821A-B2476087DE1A";
paths = (
{
closed = 1;
nodes = (
"250 709 OFFCURVE",
"149 674 OFFCURVE",
"83 600 CURVE",
"150 525 LINE",
"204 580 OFFCURVE",
"274 607 OFFCURVE",
"356 607 CURVE SMOOTH",
"507 607 OFFCURVE",
"586 526 OFFCURVE",
"586 405 CURVE SMOOTH",
"586 236 OFFCURVE",
"469 93 OFFCURVE",
"279 93 CURVE SMOOTH",
"194 93 OFFCURVE",
"132 122 OFFCURVE",
"92 175 CURVE",
"10 104 LINE",
"58 31 OFFCURVE",
"153 -9 OFFCURVE",
"271 -9 CURVE SMOOTH",
"532 -9 OFFCURVE",
"701 177 OFFCURVE",
"701 412 CURVE SMOOTH",
"701 588 OFFCURVE",
"576 709 OFFCURVE",
"364 709 CURVE SMOOTH"
);
},
{
closed = 1;
nodes = (
"-52 -10 LINE",
"677 -10 LINE",
"677 40 LINE",
"-52 40 LINE"
);
}
);
width = 725;
},
{
anchors = (
{
name = bottom;
position = "{317, 0}";
},
{
name = top;
position = "{457, 700}";
}
);
layerId = "5DA6E103-6A94-47F2-987D-4952DB8EA68E";
paths = (
{
closed = 1;
nodes = (
"246 716 OFFCURVE",
"142 681 OFFCURVE",
"57 577 CURVE",
"196 444 LINE",
"244 502 OFFCURVE",
"297 525 OFFCURVE",
"352 525 CURVE SMOOTH",
"439 525 OFFCURVE",
"496 470 OFFCURVE",
"496 388 CURVE SMOOTH",
"496 263 OFFCURVE",
"418 175 OFFCURVE",
"307 175 CURVE SMOOTH",
"243 175 OFFCURVE",
"197 205 OFFCURVE",
"167 257 CURVE",
"-3 124 LINE",
"48 34 OFFCURVE",
"158 -16 OFFCURVE",
"292 -16 CURVE SMOOTH",
"551 -16 OFFCURVE",
"734 157 OFFCURVE",
"734 403 CURVE SMOOTH",
"734 589 OFFCURVE",
"592 716 OFFCURVE",
"375 716 CURVE SMOOTH"
);
},
{
closed = 1;
nodes = (
"-51 -17 LINE",
"697 -17 LINE",
"697 73 LINE",
"-51 73 LINE"
);
}
);
width = 744;
}
);
leftKerningGroup = Oopen;
rightKerningGroup = O;
unicode = 0186;
},
{
glyphname = OE;
layers = (
{
anchors = (
{
name = bottom;
position = "{535, 0}";
},
{
name = top;
position = "{675, 700}";
}
);
layerId = UUID0;
paths = (
{
closed = 1;
nodes = (
"533 8 LINE",
"537 27 LINE",
"396 27 LINE SMOOTH",
"194 27 OFFCURVE",
"91 125 OFFCURVE",
"91 294 CURVE SMOOTH",
"91 506 OFFCURVE",
"252 681 OFFCURVE",
"505 681 CURVE SMOOTH",
"667 681 LINE",
"671 700 LINE",
"507 700 LINE SMOOTH",
"240 700 OFFCURVE",
"71 516 OFFCURVE",
"71 295 CURVE SMOOTH",
"71 114 OFFCURVE",
"185 8 OFFCURVE",
"394 8 CURVE SMOOTH"
);
},
{
closed = 1;
nodes = (
"993 8 LINE",
"997 27 LINE",
"551 27 LINE",
"681 681 LINE",
"1112 681 LINE",
"1116 700 LINE",
"665 700 LINE",
"527 8 LINE"
);
},
{
closed = 1;
nodes = (
"1000 346 LINE",
"1004 365 LINE",
"613 365 LINE",
"609 346 LINE"
);
},
{
closed = 1;
nodes = (
"-54 -3 LINE",
"1066 -3 LINE",
"1066 16 LINE",
"-54 16 LINE"
);
}
);
width = 1112;
},
{
anchors = (
{
name = bottom;
position = "{594, 0}";
},
{
name = top;
position = "{734, 700}";
}
);
layerId = "5DA6E103-6A94-47F2-987D-4952DB8EA68E";
paths = (
{
closed = 1;
nodes = (
"538 0 LINE",
"575 184 LINE",
"425 184 LINE SMOOTH",
"330 184 OFFCURVE",
"279 230 OFFCURVE",
"279 311 CURVE SMOOTH",
"279 426 OFFCURVE",
"346 516 OFFCURVE",
"471 516 CURVE SMOOTH",
"641 516 LINE",
"678 700 LINE",
"479 700 LINE SMOOTH",
"224 700 OFFCURVE",
"41 544 OFFCURVE",
"41 297 CURVE SMOOTH",
"41 113 OFFCURVE",
"177 0 OFFCURVE",
"398 0 CURVE SMOOTH"
);
},
{
closed = 1;
nodes = (
"1060 0 LINE",
"1096 178 LINE",
"745 178 LINE",
"814 522 LINE",
"1151 522 LINE",
"1187 700 LINE",
"618 700 LINE",
"478 0 LINE"
);
},
{
closed = 1;
nodes = (
"1060 270 LINE",
"1094 440 LINE",
"782 440 LINE",
"748 270 LINE"
);
},
{
closed = 1;
nodes = (
"-50 -17 LINE",
"1111 -17 LINE",
"1111 73 LINE",
"-50 73 LINE"
);
}
);
width = 1149;
},
{
anchors = (
{
name = bottom;
position = "{561, 0}";
},
{
name = top;
position = "{701, 700}";
}
);
layerId = "C4221BDF-4AE8-4E40-821A-B2476087DE1A";
paths = (
{
closed = 1;
nodes = (
"534 0 LINE",
"552 99 LINE",
"407 99 LINE SMOOTH",
"251 99 OFFCURVE",
"173 175 OFFCURVE",
"173 295 CURVE SMOOTH",
"173 471 OFFCURVE",
"293 601 OFFCURVE",
"490 601 CURVE SMOOTH",
"656 601 LINE",
"674 700 LINE",
"493 700 LINE SMOOTH",
"232 700 OFFCURVE",
"58 536 OFFCURVE",
"58 288 CURVE SMOOTH",
"58 113 OFFCURVE",
"183 0 OFFCURVE",
"395 0 CURVE SMOOTH"
);
},
{
closed = 1;
nodes = (
"1021 0 LINE",
"1041 99 LINE",
"639 99 LINE",
"739 601 LINE",
"1127 601 LINE",
"1147 700 LINE",
"645 700 LINE",
"505 0 LINE"
);
},
{
closed = 1;
nodes = (
"1026 307 LINE",
"1045 404 LINE",
"691 404 LINE",
"672 307 LINE"
);
},
{
closed = 1;
nodes = (
"-55 -10 LINE",
"1083 -10 LINE",
"1083 40 LINE",
"-55 40 LINE"
);
}
);
width = 1128;
}
);
leftKerningGroup = O;
rightKerningGroup = E;
unicode = 0152;
},
{
glyphname = P;
layers = (
{
layerId = UUID0;
paths = (
{
closed = 1;
nodes = (
"101 0 LINE",
"151 249 LINE",
"140 240 LINE",
"373 240 LINE SMOOTH",
"568 240 OFFCURVE",
"690 334 OFFCURVE",
"690 514 CURVE SMOOTH",
"690 633 OFFCURVE",
"604 700 OFFCURVE",
"456 700 CURVE SMOOTH",
"221 700 LINE",
"81 0 LINE"
);
},
{
closed = 1;
nodes = (
"239 691 LINE",
"228 681 LINE",
"457 681 LINE SMOOTH",
"594 681 OFFCURVE",
"670 621 OFFCURVE",
"670 514 CURVE SMOOTH",
"670 345 OFFCURVE",
"561 259 OFFCURVE",
"372 259 CURVE SMOOTH",
"144 259 LINE",
"151 251 LINE"
);
},
{
closed = 1;
nodes = (
"-54 -3 LINE",
"664 -3 LINE",
"664 16 LINE",
"-54 16 LINE"
);
}
);
width = 710;
},
{
layerId = "5DA6E103-6A94-47F2-987D-4952DB8EA68E";
paths = (
{
closed = 1;
nodes = (
"238 0 LINE",
"293 275 LINE",
"167 172 LINE",
"393 172 LINE SMOOTH",
"608 172 OFFCURVE",
"747 291 OFFCURVE",
"747 468 CURVE SMOOTH",
"747 614 OFFCURVE",
"641 700 OFFCURVE",
"453 700 CURVE SMOOTH",
"142 700 LINE",
"2 0 LINE"
);
},
{
closed = 1;
nodes = (
"363 628 LINE",
"237 518 LINE",
"420 518 LINE SMOOTH",
"474 518 OFFCURVE",
"508 497 OFFCURVE",
"508 447 CURVE SMOOTH",
"508 388 OFFCURVE",
"470 354 OFFCURVE",
"405 354 CURVE SMOOTH",
"204 354 LINE",
"287 247 LINE"
);
},
{
closed = 1;
nodes = (
"-50 -17 LINE",
"695 -17 LINE",
"695 73 LINE",
"-50 73 LINE"
);
}
);
width = 743;
},
{
layerId = "C4221BDF-4AE8-4E40-821A-B2476087DE1A";
paths = (
{
closed = 1;
nodes = (
"161 0 LINE",
"214 262 LINE",
"153 207 LINE",
"382 207 LINE SMOOTH",
"586 207 OFFCURVE",
"713 313 OFFCURVE",
"713 492 CURVE SMOOTH",
"713 623 OFFCURVE",
"617 700 OFFCURVE",
"451 700 CURVE SMOOTH",
"187 700 LINE",
"47 0 LINE"
);
},
{
closed = 1;
nodes = (
"293 659 LINE",
"233 601 LINE",
"440 601 LINE SMOOTH",
"541 601 OFFCURVE",
"598 561 OFFCURVE",
"598 481 CURVE SMOOTH",
"598 366 OFFCURVE",
"520 306 OFFCURVE",
"385 306 CURVE SMOOTH",
"171 306 LINE",
"211 249 LINE"
);
},
{
closed = 1;
nodes = (
"-55 -10 LINE",
"679 -10 LINE",
"679 40 LINE",
"-55 40 LINE"
);
}
);
width = 724;
}
);
leftKerningGroup = H;
rightKerningGroup = P;
unicode = 0050;
},
{
glyphname = Phook;
layers = (
{
layerId = UUID0;
paths = (
{
closed = 1;
nodes = (
"243 0 LINE",
"293 249 LINE",
"282 240 LINE",
"515 240 LINE SMOOTH",
"710 240 OFFCURVE",
"832 334 OFFCURVE",
"832 514 CURVE SMOOTH",
"832 633 OFFCURVE",
"746 700 OFFCURVE",
"598 700 CURVE SMOOTH",
"363 700 LINE",
"223 0 LINE"
);
},
{
closed = 1;
nodes = (
"381 691 LINE",
"370 681 LINE",
"599 681 LINE SMOOTH",
"736 681 OFFCURVE",
"812 621 OFFCURVE",
"812 514 CURVE SMOOTH",
"812 345 OFFCURVE",
"703 259 OFFCURVE",
"514 259 CURVE SMOOTH",
"286 259 LINE",
"293 251 LINE"
);
},
{
closed = 1;
nodes = (
"-52 -3 LINE",
"804 -3 LINE",
"804 16 LINE",
"-52 16 LINE"
);
},
{
closed = 1;
nodes = (
"141 455 LINE",
"85 572 OFFCURVE",
"145 681 OFFCURVE",
"266 681 CURVE SMOOTH",
"364 681 LINE",
"368 700 LINE",
"266 700 LINE SMOOTH",
"129 700 OFFCURVE",
"56 567 OFFCURVE",
"125 445 CURVE"
);
}
);
width = 852;
},
{
layerId = "C4221BDF-4AE8-4E40-821A-B2476087DE1A";
paths = (
{
closed = 1;
nodes = (
"336 0 LINE",
"389 262 LINE",
"328 207 LINE",
"557 207 LINE SMOOTH",
"761 207 OFFCURVE",
"888 313 OFFCURVE",
"888 492 CURVE SMOOTH",
"888 623 OFFCURVE",
"792 700 OFFCURVE",
"626 700 CURVE SMOOTH",
"362 700 LINE",
"222 0 LINE"
);
},
{
closed = 1;
nodes = (
"468 659 LINE",
"408 601 LINE",
"615 601 LINE SMOOTH",
"716 601 OFFCURVE",
"773 561 OFFCURVE",
"773 481 CURVE SMOOTH",
"773 366 OFFCURVE",
"695 306 OFFCURVE",
"560 306 CURVE SMOOTH",
"346 306 LINE",
"386 249 LINE"
);
},
{
closed = 1;
nodes = (
"-52 -10 LINE",
"851 -10 LINE",
"851 40 LINE",
"-52 40 LINE"
);
},
{
closed = 1;
nodes = (
"221 435 LINE",
"167 506 OFFCURVE",
"203 601 OFFCURVE",
"284 601 CURVE SMOOTH",
"351 601 LINE",
"371 700 LINE",
"283 700 LINE SMOOTH",
"107 700 OFFCURVE",
"25 527 OFFCURVE",
"130 371 CURVE"
);
}
);
width = 899;
},
{
layerId = "5DA6E103-6A94-47F2-987D-4952DB8EA68E";
paths = (
{
closed = 1;
nodes = (
"488 0 LINE",
"543 275 LINE",
"417 172 LINE",
"643 172 LINE SMOOTH",
"858 172 OFFCURVE",
"997 291 OFFCURVE",
"997 468 CURVE SMOOTH",
"997 614 OFFCURVE",
"891 700 OFFCURVE",
"703 700 CURVE SMOOTH",
"392 700 LINE",
"252 0 LINE"
);
},
{
closed = 1;
nodes = (
"613 628 LINE",
"487 518 LINE",
"670 518 LINE SMOOTH",
"724 518 OFFCURVE",
"758 497 OFFCURVE",
"758 447 CURVE SMOOTH",
"758 388 OFFCURVE",
"720 354 OFFCURVE",
"655 354 CURVE SMOOTH",
"454 354 LINE",
"537 247 LINE"
);
},
{
closed = 1;
nodes = (
"-51 -17 LINE",
"946 -17 LINE",
"946 73 LINE",
"-51 73 LINE"
);
},
{
closed = 1;
nodes = (
"268 393 LINE",
"243 458 OFFCURVE",
"263 517 OFFCURVE",
"322 517 CURVE SMOOTH",
"361 517 LINE",
"397 700 LINE",
"309 700 LINE SMOOTH",
"89 700 OFFCURVE",
"4 492 OFFCURVE",
"75 317 CURVE"
);
}
);
width = 993;
}
);
leftKerningGroup = Hhook;
rightKerningGroup = P;
unicode = 01A4;
},
{
glyphname = Thorn;
layers = (
{
anchors = (
{
name = bottom;
position = "{303, 0}";
},
{
name = top;
position = "{443, 700}";
}
);
layerId = UUID0;
paths = (
{
closed = 1;
nodes = (
"353 139 LINE SMOOTH",
"548 139 OFFCURVE",
"670 233 OFFCURVE",
"670 413 CURVE SMOOTH",
"670 532 OFFCURVE",
"584 599 OFFCURVE",
"436 599 CURVE SMOOTH",
"212 599 LINE",
"208 580 LINE",
"437 580 LINE SMOOTH",
"574 580 OFFCURVE",
"650 520 OFFCURVE",
"650 413 CURVE SMOOTH",
"650 244 OFFCURVE",
"541 158 OFFCURVE",
"352 158 CURVE SMOOTH",
"124 158 LINE",
"120 139 LINE"
);
},
{
closed = 1;
nodes = (
"101 0 LINE",
"241 700 LINE",
"221 700 LINE",
"81 0 LINE"
);
},
{
closed = 1;
nodes = (
"-54 -3 LINE",
"664 -3 LINE",
"664 16 LINE",
"-54 16 LINE"
);
}
);
width = 710;
},
{
anchors = (
{
name = bottom;
position = "{317, 0}";
},
{
name = top;
position = "{457, 700}";
}
);
layerId = "5DA6E103-6A94-47F2-987D-4952DB8EA68E";
paths = (
{
closed = 1;
nodes = (
"379 105 LINE SMOOTH",
"594 105 OFFCURVE",
"733 224 OFFCURVE",
"733 401 CURVE SMOOTH",
"733 547 OFFCURVE",
"627 633 OFFCURVE",
"442 633 CURVE SMOOTH",
"316 633 LINE",
"280 451 LINE",
"406 451 LINE SMOOTH",
"460 451 OFFCURVE",
"494 430 OFFCURVE",
"494 380 CURVE SMOOTH",
"494 321 OFFCURVE",
"456 287 OFFCURVE",
"391 287 CURVE SMOOTH",
"247 287 LINE",
"211 105 LINE"
);
},
{
closed = 1;
nodes = (
"238 0 LINE",
"378 700 LINE",
"142 700 LINE",
"2 0 LINE"
);
},
{
closed = 1;
nodes = (
"-50 -17 LINE",
"695 -17 LINE",
"695 73 LINE",
"-50 73 LINE"
);
}
);
width = 743;
},
{
anchors = (
{
name = bottom;
position = "{309, 0}";
},
{
name = top;
position = "{449, 700}";
}
);
layerId = "C4221BDF-4AE8-4E40-821A-B2476087DE1A";
paths = (
{
closed = 1;
nodes = (
"366 123 LINE SMOOTH",
"570 123 OFFCURVE",
"697 230 OFFCURVE",
"697 408 CURVE SMOOTH",
"697 540 OFFCURVE",
"602 616 OFFCURVE",
"438 616 CURVE SMOOTH",
"258 616 LINE",
"240 517 LINE",
"424 517 LINE SMOOTH",
"525 517 OFFCURVE",
"582 477 OFFCURVE",
"582 397 CURVE SMOOTH",
"582 282 OFFCURVE",
"504 222 OFFCURVE",
"369 222 CURVE SMOOTH",
"179 222 LINE",
"161 123 LINE"
);
},
{
closed = 1;
nodes = (
"161 0 LINE",
"301 700 LINE",
"187 700 LINE",
"47 0 LINE"
);
},
{
closed = 1;
nodes = (
"-55 -10 LINE",
"679 -10 LINE",
"679 40 LINE",
"-55 40 LINE"
);
}
);
width = 724;
}
);
leftKerningGroup = H;
rightKerningGroup = Thorn;
unicode = 00DE;
},
{
glyphname = Pstroke;
layers = (
{
anchors = (
{
name = hook.af;
position = "{243, 700}";
}
);
layerId = UUID0;
paths = (
{
closed = 1;
nodes = (
"123 0 LINE",
"173 249 LINE",
"162 240 LINE",
"395 240 LINE SMOOTH",
"590 240 OFFCURVE",
"712 334 OFFCURVE",
"712 514 CURVE SMOOTH",
"712 633 OFFCURVE",
"626 700 OFFCURVE",
"478 700 CURVE SMOOTH",
"243 700 LINE",
"103 0 LINE"
);
},
{
closed = 1;
nodes = (
"385 462 LINE",
"389 481 LINE",
"79 481 LINE",
"75 462 LINE"
);
},
{
closed = 1;
nodes = (
"261 691 LINE",
"250 681 LINE",
"479 681 LINE SMOOTH",
"616 681 OFFCURVE",
"692 621 OFFCURVE",
"692 514 CURVE SMOOTH",
"692 345 OFFCURVE",
"583 259 OFFCURVE",
"394 259 CURVE SMOOTH",
"166 259 LINE",
"173 251 LINE"
);
},
{
closed = 1;
nodes = (
"-52 -3 LINE",
"684 -3 LINE",
"684 16 LINE",
"-52 16 LINE"
);
}
);
width = 732;
},
{
anchors = (
{
name = hook.af;
position = "{216, 700}";
}
);
layerId = "C4221BDF-4AE8-4E40-821A-B2476087DE1A";
paths = (
{
closed = 1;
nodes = (
"190 0 LINE",
"243 262 LINE",
"182 207 LINE",
"411 207 LINE SMOOTH",
"615 207 OFFCURVE",
"742 313 OFFCURVE",
"742 492 CURVE SMOOTH",
"742 623 OFFCURVE",
"646 700 OFFCURVE",
"480 700 CURVE SMOOTH",
"216 700 LINE",
"76 0 LINE"
);
},
{
closed = 1;
nodes = (
"422 411 LINE",
"439 499 LINE",
"76 499 LINE",
"59 411 LINE"
);
},
{
closed = 1;
nodes = (
"322 659 LINE",
"262 601 LINE",
"469 601 LINE SMOOTH",
"570 601 OFFCURVE",
"627 561 OFFCURVE",
"627 481 CURVE SMOOTH",
"627 366 OFFCURVE",
"549 306 OFFCURVE",
"414 306 CURVE SMOOTH",
"200 306 LINE",
"240 249 LINE"
);
},
{
closed = 1;
nodes = (
"-52 -10 LINE",
"705 -10 LINE",
"705 40 LINE",
"-52 40 LINE"
);
}
);
width = 753;
},
{
anchors = (
{
name = hook.af;
position = "{183, 700}";
}
);
layerId = "5DA6E103-6A94-47F2-987D-4952DB8EA68E";
paths = (
{
closed = 1;
nodes = (
"279 0 LINE",
"334 275 LINE",
"208 172 LINE",
"434 172 LINE SMOOTH",
"649 172 OFFCURVE",
"788 291 OFFCURVE",
"788 468 CURVE SMOOTH",
"788 614 OFFCURVE",
"682 700 OFFCURVE",
"494 700 CURVE SMOOTH",
"183 700 LINE",
"43 0 LINE"
);
},
{
closed = 1;
nodes = (
"448 369 LINE",
"475 503 LINE",
"72 503 LINE",
"45 369 LINE"
);
},
{
closed = 1;
nodes = (
"404 628 LINE",
"278 528 LINE",
"461 528 LINE SMOOTH",
"515 528 OFFCURVE",
"549 507 OFFCURVE",
"549 447 CURVE SMOOTH",
"549 387 OFFCURVE",
"511 344 OFFCURVE",
"446 344 CURVE SMOOTH",
"245 344 LINE",
"328 247 LINE"
);
},
{
closed = 1;
nodes = (
"-51 -17 LINE",
"737 -17 LINE",
"737 73 LINE",
"-51 73 LINE"
);
}
);
width = 784;
}
);
leftKerningGroup = Hbar;
rightKerningGroup = P;
unicode = 2C63;
},
{
glyphname = Q;
layers = (
{
anchors = (
{
name = top;
position = "{506, 700}";
}
);
layerId = UUID0;
paths = (
{
closed = 1;
nodes = (
"644 -3 OFFCURVE",
"802 196 OFFCURVE",
"802 420 CURVE SMOOTH",
"802 589 OFFCURVE",
"691 703 OFFCURVE",
"487 703 CURVE SMOOTH",
"229 703 OFFCURVE",
"71 504 OFFCURVE",
"71 280 CURVE SMOOTH",
"71 111 OFFCURVE",
"182 -3 OFFCURVE",
"386 -3 CURVE SMOOTH"
);
},
{
closed = 1;
nodes = (
"790 -3 LINE",
"790 16 LINE",
"-54 16 LINE",
"-54 -3 LINE"
);
},
{
closed = 1;
nodes = (
"644 -124 OFFCURVE",
"703 -99 OFFCURVE",
"745 -48 CURVE",
"731 -35 LINE",
"694 -82 OFFCURVE",
"643 -105 OFFCURVE",
"585 -105 CURVE SMOOTH",
"511 -105 OFFCURVE",
"452 -65 OFFCURVE",
"401 8 CURVE",
"376 3 LINE",
"436 -78 OFFCURVE",
"501 -124 OFFCURVE",
"584 -124 CURVE SMOOTH"
);
},
{
closed = 1;
nodes = (
"192 16 OFFCURVE",
"91 123 OFFCURVE",
"91 280 CURVE SMOOTH",
"91 499 OFFCURVE",
"246 684 OFFCURVE",
"485 684 CURVE SMOOTH",
"681 684 OFFCURVE",
"782 577 OFFCURVE",
"782 420 CURVE SMOOTH",
"782 201 OFFCURVE",
"627 16 OFFCURVE",
"388 16 CURVE SMOOTH"
);
}
);
width = 836;
},
{
anchors = (
{
name = top;
position = "{510, 700}";
}
);
layerId = "5DA6E103-6A94-47F2-987D-4952DB8EA68E";
paths = (
{
closed = 1;
nodes = (
"653 -16 OFFCURVE",
"837 156 OFFCURVE",
"837 403 CURVE SMOOTH",
"837 587 OFFCURVE",
"700 716 OFFCURVE",
"482 716 CURVE SMOOTH",
"225 716 OFFCURVE",
"41 544 OFFCURVE",
"41 297 CURVE SMOOTH",
"41 113 OFFCURVE",
"178 -16 OFFCURVE",
"396 -16 CURVE SMOOTH"
);
},
{
closed = 1;
nodes = (
"800 -17 LINE",
"800 73 LINE",
"-50 73 LINE",
"-50 -17 LINE"
);
},
{
closed = 1;
nodes = (
"644 -197 OFFCURVE",
"700 -185 OFFCURVE",
"746 -161 CURVE",
"656 -25 LINE",
"638 -32 OFFCURVE",
"622 -36 OFFCURVE",
"607 -36 CURVE SMOOTH",
"564 -36 OFFCURVE",
"532 -4 OFFCURVE",
"516 60 CURVE",
"261 10 LINE",
"327 -131 OFFCURVE",
"431 -197 OFFCURVE",
"583 -197 CURVE SMOOTH"
);
},
{
closed = 1;
nodes = (
"330 175 OFFCURVE",
"279 230 OFFCURVE",
"279 311 CURVE SMOOTH",
"279 426 OFFCURVE",
"346 525 OFFCURVE",
"462 525 CURVE SMOOTH",
"548 525 OFFCURVE",
"599 470 OFFCURVE",
"599 389 CURVE SMOOTH",
"599 274 OFFCURVE",
"532 175 OFFCURVE",
"416 175 CURVE SMOOTH"
);
}
);
width = 848;
},
{
anchors = (
{
name = top;
position = "{508, 700}";
}
);
layerId = "C4221BDF-4AE8-4E40-821A-B2476087DE1A";
paths = (
{
closed = 1;
nodes = (
"648 -9 OFFCURVE",
"817 177 OFFCURVE",
"817 412 CURVE SMOOTH",
"817 588 OFFCURVE",
"695 709 OFFCURVE",
"485 709 CURVE SMOOTH",
"227 709 OFFCURVE",
"58 523 OFFCURVE",
"58 288 CURVE SMOOTH",
"58 112 OFFCURVE",
"180 -9 OFFCURVE",
"390 -9 CURVE SMOOTH"
);
},
{
closed = 1;
nodes = (
"796 -10 LINE",
"796 40 LINE",
"-55 40 LINE",
"-55 -10 LINE"
);
},
{
closed = 1;
nodes = (
"660 -150 OFFCURVE",
"725 -126 OFFCURVE",
"766 -77 CURVE",
"720 -6 LINE",
"687 -41 OFFCURVE",
"641 -60 OFFCURVE",
"594 -60 CURVE SMOOTH",
"532 -60 OFFCURVE",
"488 -31 OFFCURVE",
"453 43 CURVE",
"325 16 LINE",
"388 -91 OFFCURVE",
"478 -150 OFFCURVE",
"591 -150 CURVE SMOOTH"
);
},
{
closed = 1;
nodes = (
"252 93 OFFCURVE",
"173 175 OFFCURVE",
"173 295 CURVE SMOOTH",
"173 464 OFFCURVE",
"290 607 OFFCURVE",
"475 607 CURVE SMOOTH",
"623 607 OFFCURVE",
"702 525 OFFCURVE",
"702 405 CURVE SMOOTH",
"702 236 OFFCURVE",
"585 93 OFFCURVE",
"400 93 CURVE SMOOTH"
);
}
);
width = 841;
}
);
leftKerningGroup = O;
rightKerningGroup = O;
unicode = 0051;
},
{
glyphname = Qhooktail;
layers = (
{
anchors = (
{
name = bottom;
position = "{380, 0}";
},
{
name = center;
position = "{450, 350}";
},
{
name = ogonek;
position = "{431, 0}";
},
{
name = top;
position = "{520, 700}";
},
{
name = topleft;
position = "{161, 700}";
},
{
name = topright;
position = "{769, 700}";
}
);
layerId = UUID0;
paths = (
{
closed = 1;
nodes = (
"606 -3 OFFCURVE",
"764 132 OFFCURVE",
"807 352 CURVE",
"848 555 OFFCURVE",
"721 703 OFFCURVE",
"504 703 CURVE SMOOTH",
"268 703 OFFCURVE",
"86 524 OFFCURVE",
"86 290 CURVE SMOOTH",
"86 107 OFFCURVE",
"201 -3 OFFCURVE",
"393 -3 CURVE SMOOTH"
);
},
{
closed = 1;
nodes = (
"393 -3 LINE",
"393 16 LINE",
"-52 16 LINE",
"-52 -3 LINE"
);
},
{
closed = 1;
nodes = (
"880 -3 LINE",
"880 16 LINE",
"731 16 LINE",
"726 -3 LINE"
);
},
{
closed = 1;
nodes = (
"213 16 OFFCURVE",
"106 118 OFFCURVE",
"106 291 CURVE SMOOTH",
"106 514 OFFCURVE",
"279 684 OFFCURVE",
"504 684 CURVE SMOOTH",
"709 684 OFFCURVE",
"826 545 OFFCURVE",
"789 348 CURVE SMOOTH",
"751 150 OFFCURVE",
"591 16 OFFCURVE",
"393 16 CURVE SMOOTH"
);
},
{
closed = 1;
nodes = (
"866 -164 LINE",
"789 -195 OFFCURVE",
"705 -166 OFFCURVE",
"726 -63 CURVE SMOOTH",
"879 700 LINE",
"859 700 LINE",
"808 443 LINE",
"805 353 LINE",
"772 263 LINE",
"707 -60 LINE SMOOTH",
"684 -176 OFFCURVE",
"783 -218 OFFCURVE",
"870 -183 CURVE"
);
}
);
width = 928;
},
{
anchors = (
{
name = bottom;
position = "{373, 0}";
},
{
name = center;
position = "{443, 350}";
},
{
name = ogonek;
position = "{455, 0}";
},
{
name = top;
position = "{513, 700}";
},
{
name = topleft;
position = "{140, 700}";
},
{
name = topright;
position = "{726, 700}";
}
);
layerId = "C4221BDF-4AE8-4E40-821A-B2476087DE1A";
paths = (
{
closed = 1;
nodes = (
"569 -10 OFFCURVE",
"722 128 OFFCURVE",
"765 343 CURVE SMOOTH",
"809 567 OFFCURVE",
"701 709 OFFCURVE",
"488 709 CURVE SMOOTH",
"249 709 OFFCURVE",
"64 531 OFFCURVE",
"64 301 CURVE SMOOTH",
"64 114 OFFCURVE",
"187 -10 OFFCURVE",
"373 -10 CURVE SMOOTH"
);
},
{
closed = 1;
nodes = (
"373 -10 LINE",
"373 40 LINE",
"-52 40 LINE",
"-52 -10 LINE"
);
},
{
closed = 1;
nodes = (
"853 -10 LINE",
"853 40 LINE",
"705 40 LINE",
"690 -10 LINE"
);
},
{
closed = 1;
nodes = (
"259 92 OFFCURVE",
"179 174 OFFCURVE",
"179 305 CURVE SMOOTH",
"179 475 OFFCURVE",
"311 607 OFFCURVE",
"483 607 CURVE SMOOTH",
"635 607 OFFCURVE",
"726 505 OFFCURVE",
"703 361 CURVE SMOOTH",
"679 210 OFFCURVE",
"542 92 OFFCURVE",
"387 92 CURVE SMOOTH"
);
},
{
closed = 1;
nodes = (
"850 -102 LINE",
"779 -119 OFFCURVE",
"725 -93 OFFCURVE",
"740 -20 CURVE SMOOTH",
"884 700 LINE",
"769 700 LINE",
"731 508 LINE",
"714 353 LINE",
"673 198 LINE",
"629 -26 LINE SMOOTH",
"600 -171 OFFCURVE",
"734 -225 OFFCURVE",
"856 -191 CURVE"
);
}
);
width = 901;
},
{
anchors = (
{
name = bottom;
position = "{373, 0}";
},
{
name = center;
position = "{443, 350}";
},
{
name = ogonek;
position = "{496, 0}";
},
{
name = top;
position = "{513, 700}";
},
{
name = topleft;
position = "{123, 700}";
},
{
name = topright;
position = "{679, 700}";
}
);
layerId = "5DA6E103-6A94-47F2-987D-4952DB8EA68E";
paths = (
{
closed = 1;
nodes = (
"525 -17 OFFCURVE",
"643 104 OFFCURVE",
"684 320 CURVE SMOOTH",
"731 567 OFFCURVE",
"635 716 OFFCURVE",
"439 716 CURVE SMOOTH",
"221 716 OFFCURVE",
"39 531 OFFCURVE",
"39 309 CURVE SMOOTH",
"39 120 OFFCURVE",
"171 -17 OFFCURVE",
"354 -17 CURVE SMOOTH"
);
},
{
closed = 1;
nodes = (
"354 -17 LINE",
"354 73 LINE",
"-51 73 LINE",
"-51 -17 LINE"
);
},
{
closed = 1;
nodes = (
"829 -17 LINE",
"829 73 LINE",
"649 73 LINE",
"649 -17 LINE"
);
},
{
closed = 1;
nodes = (
"333 173 OFFCURVE",
"277 230 OFFCURVE",
"277 322 CURVE SMOOTH",
"277 434 OFFCURVE",
"360 525 OFFCURVE",
"467 525 CURVE SMOOTH",
"569 525 OFFCURVE",
"623 441 OFFCURVE",
"601 330 CURVE SMOOTH",
"582 233 OFFCURVE",
"516 173 OFFCURVE",
"423 173 CURVE SMOOTH"
);
},
{
closed = 1;
nodes = (
"839 -28 LINE",
"788 -44 OFFCURVE",
"754 -25 OFFCURVE",
"763 18 CURVE SMOOTH",
"900 700 LINE",
"665 700 LINE",
"641 577 LINE",
"608 350 LINE",
"561 125 LINE",
"539 18 LINE SMOOTH",
"500 -174 OFFCURVE",
"673 -241 OFFCURVE",
"848 -189 CURVE"
);
}
);
width = 876;
}
);
leftKerningGroup = O;
rightKerningGroup = Qhooktail;
unicode = 024A;
},
{
glyphname = R;
layers = (
{
anchors = (
{
name = bottom;
position = "{314, 0}";
},
{
name = top;
position = "{454, 700}";
}
);
layerId = UUID0;
paths = (
{
closed = 1;
nodes = (
"100 -3 LINE",
"151 249 LINE",
"140 240 LINE",
"373 240 LINE SMOOTH",
"568 240 OFFCURVE",
"690 334 OFFCURVE",
"690 514 CURVE SMOOTH",
"690 633 OFFCURVE",
"604 700 OFFCURVE",
"456 700 CURVE SMOOTH",
"221 700 LINE",
"80 -3 LINE"
);
},
{
closed = 1;
nodes = (
"605 -3 LINE",
"459 254 LINE",
"436 254 LINE",
"582 -3 LINE"
);
},
{
closed = 1;
nodes = (
"239 689 LINE",
"228 681 LINE",
"457 681 LINE SMOOTH",
"594 681 OFFCURVE",
"670 621 OFFCURVE",
"670 514 CURVE SMOOTH",
"670 345 OFFCURVE",
"561 259 OFFCURVE",
"372 259 CURVE SMOOTH",
"144 259 LINE",
"151 251 LINE"
);
},
{
closed = 1;
nodes = (
"-54 -3 LINE",
"97 -3 LINE",
"97 16 LINE",
"-54 16 LINE"
);
},
{
closed = 1;
nodes = (
"582 -3 LINE",
"670 -3 LINE",
"670 16 LINE",
"582 16 LINE"
);
}
);
width = 716;
},
{
anchors = (
{
name = bottom;
position = "{324, 0}";
},
{
name = top;
position = "{464, 700}";
}
);
layerId = "5DA6E103-6A94-47F2-987D-4952DB8EA68E";
paths = (
{
closed = 1;
nodes = (
"235 -17 LINE",
"293 275 LINE",
"167 176 LINE",
"393 176 LINE SMOOTH",
"608 176 OFFCURVE",
"747 294 OFFCURVE",
"747 470 CURVE SMOOTH",
"747 615 OFFCURVE",
"641 700 OFFCURVE",
"456 700 CURVE SMOOTH",
"142 700 LINE",
"2 0 LINE"
);
},
{
closed = 1;
nodes = (
"675 0 LINE",
"529 255 LINE",
"286 255 LINE",
"440 -17 LINE"
);
},
{
closed = 1;
nodes = (
"363 628 LINE",
"237 518 LINE",
"420 518 LINE SMOOTH",
"474 518 OFFCURVE",
"508 497 OFFCURVE",
"508 447 CURVE SMOOTH",
"508 388 OFFCURVE",
"470 354 OFFCURVE",
"405 354 CURVE SMOOTH",
"204 354 LINE",
"287 247 LINE"
);
},
{
closed = 1;
nodes = (
"-50 -17 LINE",
"235 -17 LINE",
"234 73 LINE",
"-50 73 LINE"
);
},
{
closed = 1;
nodes = (
"440 -17 LINE",
"697 -17 LINE",
"697 73 LINE",
"438 73 LINE"
);
}
);
width = 745;
},
{
anchors = (
{
name = bottom;
position = "{318, 0}";
},
{
name = top;
position = "{458, 700}";
}
);
layerId = "C4221BDF-4AE8-4E40-821A-B2476087DE1A";
paths = (
{
closed = 1;
nodes = (
"160 -10 LINE",
"214 262 LINE",
"155 209 LINE",
"384 209 LINE SMOOTH",
"588 209 OFFCURVE",
"715 315 OFFCURVE",
"715 492 CURVE SMOOTH",
"715 623 OFFCURVE",
"619 700 OFFCURVE",
"453 700 CURVE SMOOTH",
"187 700 LINE",
"47 0 LINE"
);
},
{
closed = 1;
nodes = (
"634 0 LINE",
"491 254 LINE",
"369 254 LINE",
"518 -10 LINE"
);
},
{
closed = 1;
nodes = (
"294 659 LINE",
"235 601 LINE",
"442 601 LINE SMOOTH",
"543 601 OFFCURVE",
"600 561 OFFCURVE",
"600 481 CURVE SMOOTH",
"600 366 OFFCURVE",
"522 306 OFFCURVE",
"387 306 CURVE SMOOTH",
"173 306 LINE",
"211 249 LINE"
);
},
{
closed = 1;
nodes = (
"-55 -10 LINE",
"160 -10 LINE",
"157 40 LINE",
"-55 40 LINE"
);
},
{
closed = 1;
nodes = (
"518 -10 LINE",
"684 -10 LINE",
"684 40 LINE",
"518 40 LINE"
);
}
);
width = 729;
}
);
leftKerningGroup = H;
rightKerningGroup = R;
unicode = 0052;
},
